<?xml version="1.0" encoding="UTF-8" standalone="no"?>
<!DOCTYPE svg PUBLIC "-//W3C//DTD SVG 1.1//EN"
 "http://www.w3.org/Graphics/SVG/1.1/DTD/svg11.dtd">
<!-- Generated by graphviz version 8.1.0 (0)
 -->
<!-- Title: snakemake_dag Pages: 1 -->
<svg width="287pt" height="404pt"
 viewBox="0.00 0.00 286.50 404.00" xmlns="http://www.w3.org/2000/svg" xmlns:xlink="http://www.w3.org/1999/xlink">
<g id="graph0" class="graph" transform="scale(1 1) rotate(0) translate(4 400)">
<title>snakemake_dag</title>
<polygon fill="white" stroke="none" points="-4,4 -4,-400 282.5,-400 282.5,4 -4,4"/>
<!-- 0 -->
<g id="node1" class="node">
<title>0</title>
<path fill="none" stroke="#56d8c9" stroke-width="2" d="M183.88,-36C183.88,-36 153.88,-36 153.88,-36 147.88,-36 141.88,-30 141.88,-24 141.88,-24 141.88,-12 141.88,-12 141.88,-6 147.88,0 153.88,0 153.88,0 183.88,0 183.88,0 189.88,0 195.88,-6 195.88,-12 195.88,-12 195.88,-24 195.88,-24 195.88,-30 189.88,-36 183.88,-36"/>
<text text-anchor="middle" x="168.88" y="-15.62" font-family="sans" font-size="10.00">all</text>
</g>
<!-- 1 -->
<g id="node2" class="node">
<title>1</title>
<path fill="none" stroke="#56a2d8" stroke-width="2" d="M209.5,-108C209.5,-108 128.25,-108 128.25,-108 122.25,-108 116.25,-102 116.25,-96 116.25,-96 116.25,-84 116.25,-84 116.25,-78 122.25,-72 128.25,-72 128.25,-72 209.5,-72 209.5,-72 215.5,-72 221.5,-78 221.5,-84 221.5,-84 221.5,-96 221.5,-96 221.5,-102 215.5,-108 209.5,-108"/>
<text text-anchor="middle" x="168.88" y="-87.62" font-family="sans" font-size="10.00">filter_contaminants</text>
</g>
<!-- 1&#45;&gt;0 -->
<g id="edge1" class="edge">
<title>1&#45;&gt;0</title>
<path fill="none" stroke="grey" stroke-width="2" d="M168.88,-71.34C168.88,-64.75 168.88,-57.08 168.88,-49.67"/>
<polygon fill="grey" stroke="grey" stroke-width="2" points="172.38,-49.9 168.88,-39.9 165.38,-49.9 172.38,-49.9"/>
</g>
<!-- 2 -->
<g id="node3" class="node">
<title>2</title>
<path fill="none" stroke="#56d87b" stroke-width="2" d="M173.38,-180C173.38,-180 76.38,-180 76.38,-180 70.38,-180 64.38,-174 64.38,-168 64.38,-168 64.38,-156 64.38,-156 64.38,-150 70.38,-144 76.38,-144 76.38,-144 173.38,-144 173.38,-144 179.38,-144 185.38,-150 185.38,-156 185.38,-156 185.38,-168 185.38,-168 185.38,-174 179.38,-180 173.38,-180"/>
<text text-anchor="middle" x="124.88" y="-159.62" font-family="sans" font-size="10.00">blast_on_contaminants</text>
</g>
<!-- 2&#45;&gt;1 -->
<g id="edge2" class="edge">
<title>2&#45;&gt;1</title>
<path fill="none" stroke="grey" stroke-width="2" d="M135.98,-143.34C140.48,-136.18 145.79,-127.73 150.82,-119.73"/>
<polygon fill="grey" stroke="grey" stroke-width="2" points="154.26,-121.23 156.62,-110.9 148.34,-117.51 154.26,-121.23"/>
</g>
<!-- 3 -->
<g id="node4" class="node">
<title>3</title>
<path fill="none" stroke="#d8a456" stroke-width="2" d="M139.75,-252C139.75,-252 12,-252 12,-252 6,-252 0,-246 0,-240 0,-240 0,-228 0,-228 0,-222 6,-216 12,-216 12,-216 139.75,-216 139.75,-216 145.75,-216 151.75,-222 151.75,-228 151.75,-228 151.75,-240 151.75,-240 151.75,-246 145.75,-252 139.75,-252"/>
<text text-anchor="middle" x="75.88" y="-231.62" font-family="sans" font-size="10.00">build_contaminants_database</text>
</g>
<!-- 3&#45;&gt;2 -->
<g id="edge4" class="edge">
<title>3&#45;&gt;2</title>
<path fill="none" stroke="grey" stroke-width="2" d="M88.24,-215.34C93.31,-208.1 99.3,-199.53 104.96,-191.45"/>
<polygon fill="grey" stroke="grey" stroke-width="2" points="108.48,-193.1 111.34,-182.9 102.74,-189.09 108.48,-193.1"/>
</g>
<!-- 4 -->
<g id="node5" class="node">
<title>4</title>
<path fill="none" stroke="#c6d856" stroke-width="2" d="M246.25,-252C246.25,-252 181.5,-252 181.5,-252 175.5,-252 169.5,-246 169.5,-240 169.5,-240 169.5,-228 169.5,-228 169.5,-222 175.5,-216 181.5,-216 181.5,-216 246.25,-216 246.25,-216 252.25,-216 258.25,-222 258.25,-228 258.25,-228 258.25,-240 258.25,-240 258.25,-246 252.25,-252 246.25,-252"/>
<text text-anchor="middle" x="213.88" y="-231.62" font-family="sans" font-size="10.00">cdhit_clustering</text>
</g>
<!-- 4&#45;&gt;1 -->
<g id="edge3" class="edge">
<title>4&#45;&gt;1</title>
<path fill="none" stroke="grey" stroke-width="2" d="M211.4,-215.26C208.56,-197.04 203.19,-168.04 194.88,-144 192.14,-136.09 188.5,-127.83 184.81,-120.25"/>
<polygon fill="grey" stroke="grey" stroke-width="2" points="187.57,-118 179.91,-110.68 181.34,-121.18 187.57,-118"/>
</g>
<!-- 4&#45;&gt;2 -->
<g id="edge5" class="edge">
<title>4&#45;&gt;2</title>
<path fill="none" stroke="grey" stroke-width="2" d="M191.42,-215.34C181.17,-207.27 168.83,-197.57 157.57,-188.72"/>
<polygon fill="grey" stroke="grey" stroke-width="2" points="159.66,-185.33 149.64,-181.9 155.33,-190.83 159.66,-185.33"/>
</g>
<!-- 5 -->
<g id="node6" class="node">
<title>5</title>
<path fill="none" stroke="#d85656" stroke-width="2" d="M266.5,-324C266.5,-324 161.25,-324 161.25,-324 155.25,-324 149.25,-318 149.25,-312 149.25,-312 149.25,-300 149.25,-300 149.25,-294 155.25,-288 161.25,-288 161.25,-288 266.5,-288 266.5,-288 272.5,-288 278.5,-294 278.5,-300 278.5,-300 278.5,-312 278.5,-312 278.5,-318 272.5,-324 266.5,-324"/>
<text text-anchor="middle" x="213.88" y="-303.62" font-family="sans" font-size="10.00">assemble_transcriptome</text>
</g>
<!-- 5&#45;&gt;4 -->
<g id="edge6" class="edge">
<title>5&#45;&gt;4</title>
<path fill="none" stroke="grey" stroke-width="2" d="M213.88,-287.34C213.88,-280.75 213.88,-273.08 213.88,-265.67"/>
<polygon fill="grey" stroke="grey" stroke-width="2" points="217.38,-265.9 213.88,-255.9 210.38,-265.9 217.38,-265.9"/>
</g>
<!-- 6 -->
<g id="node7" class="node">
<title>6</title>
<path fill="none" stroke="#78d856" stroke-width="2" d="M234.62,-396C234.62,-396 193.12,-396 193.12,-396 187.12,-396 181.12,-390 181.12,-384 181.12,-384 181.12,-372 181.12,-372 181.12,-366 187.12,-360 193.12,-360 193.12,-360 234.62,-360 234.62,-360 240.62,-360 246.62,-366 246.62,-372 246.62,-372 246.62,-384 246.62,-384 246.62,-390 240.62,-396 234.62,-396"/>
<text text-anchor="middle" x="213.88" y="-375.62" font-family="sans" font-size="10.00">trim_reads</text>
</g>
<!-- 6&#45;&gt;5 -->
<g id="edge7" class="edge">
<title>6&#45;&gt;5</title>
<path fill="none" stroke="grey" stroke-width="2" d="M213.88,-359.34C213.88,-352.75 213.88,-345.08 213.88,-337.67"/>
<polygon fill="grey" stroke="grey" stroke-width="2" points="217.38,-337.9 213.88,-327.9 210.38,-337.9 217.38,-337.9"/>
</g>
</g>
</svg>
