<?xml version="1.0" encoding="UTF-8" standalone="no"?>
<!DOCTYPE svg PUBLIC "-//W3C//DTD SVG 1.1//EN"
 "http://www.w3.org/Graphics/SVG/1.1/DTD/svg11.dtd">
<!-- Generated by graphviz version 8.1.0 (0)
 -->
<!-- Title: snakemake_dag Pages: 1 -->
<svg width="287pt" height="476pt"
 viewBox="0.00 0.00 286.50 476.00" xmlns="http://www.w3.org/2000/svg" xmlns:xlink="http://www.w3.org/1999/xlink">
<g id="graph0" class="graph" transform="scale(1 1) rotate(0) translate(4 472)">
<title>snakemake_dag</title>
<polygon fill="white" stroke="none" points="-4,4 -4,-472 282.5,-472 282.5,4 -4,4"/>
<!-- 0 -->
<g id="node1" class="node">
<title>0</title>
<path fill="none" stroke="#56c9d8" stroke-width="2" d="M203.12,-36C203.12,-36 134.62,-36 134.62,-36 128.62,-36 122.62,-30 122.62,-24 122.62,-24 122.62,-12 122.62,-12 122.62,-6 128.62,0 134.62,0 134.62,0 203.12,0 203.12,0 209.12,0 215.12,-6 215.12,-12 215.12,-12 215.12,-24 215.12,-24 215.12,-30 209.12,-36 203.12,-36"/>
<text text-anchor="middle" x="168.88" y="-15.62" font-family="sans" font-size="10.00">cluster_peptides</text>
</g>
<!-- 1 -->
<g id="node2" class="node">
<title>1</title>
<path fill="none" stroke="#d8cb56" stroke-width="2" d="M191.5,-108C191.5,-108 146.25,-108 146.25,-108 140.25,-108 134.25,-102 134.25,-96 134.25,-96 134.25,-84 134.25,-84 134.25,-78 140.25,-72 146.25,-72 146.25,-72 191.5,-72 191.5,-72 197.5,-72 203.5,-78 203.5,-84 203.5,-84 203.5,-96 203.5,-96 203.5,-102 197.5,-108 191.5,-108"/>
<text text-anchor="middle" x="168.88" y="-87.62" font-family="sans" font-size="10.00">detect_orfs</text>
</g>
<!-- 1&#45;&gt;0 -->
<g id="edge1" class="edge">
<title>1&#45;&gt;0</title>
<path fill="none" stroke="grey" stroke-width="2" d="M168.88,-71.34C168.88,-64.75 168.88,-57.08 168.88,-49.67"/>
<polygon fill="grey" stroke="grey" stroke-width="2" points="172.38,-49.9 168.88,-39.9 165.38,-49.9 172.38,-49.9"/>
</g>
<!-- 2 -->
<g id="node3" class="node">
<title>2</title>
<path fill="none" stroke="#5692d8" stroke-width="2" d="M209.5,-180C209.5,-180 128.25,-180 128.25,-180 122.25,-180 116.25,-174 116.25,-168 116.25,-168 116.25,-156 116.25,-156 116.25,-150 122.25,-144 128.25,-144 128.25,-144 209.5,-144 209.5,-144 215.5,-144 221.5,-150 221.5,-156 221.5,-156 221.5,-168 221.5,-168 221.5,-174 215.5,-180 209.5,-180"/>
<text text-anchor="middle" x="168.88" y="-159.62" font-family="sans" font-size="10.00">filter_contaminants</text>
</g>
<!-- 2&#45;&gt;1 -->
<g id="edge2" class="edge">
<title>2&#45;&gt;1</title>
<path fill="none" stroke="grey" stroke-width="2" d="M168.88,-143.34C168.88,-136.75 168.88,-129.08 168.88,-121.67"/>
<polygon fill="grey" stroke="grey" stroke-width="2" points="172.38,-121.9 168.88,-111.9 165.38,-121.9 172.38,-121.9"/>
</g>
<!-- 3 -->
<g id="node4" class="node">
<title>3</title>
<path fill="none" stroke="#afd856" stroke-width="2" d="M173.38,-252C173.38,-252 76.38,-252 76.38,-252 70.38,-252 64.38,-246 64.38,-240 64.38,-240 64.38,-228 64.38,-228 64.38,-222 70.38,-216 76.38,-216 76.38,-216 173.38,-216 173.38,-216 179.38,-216 185.38,-222 185.38,-228 185.38,-228 185.38,-240 185.38,-240 185.38,-246 179.38,-252 173.38,-252"/>
<text text-anchor="middle" x="124.88" y="-231.62" font-family="sans" font-size="10.00">blast_on_contaminants</text>
</g>
<!-- 3&#45;&gt;2 -->
<g id="edge3" class="edge">
<title>3&#45;&gt;2</title>
<path fill="none" stroke="grey" stroke-width="2" d="M135.98,-215.34C140.48,-208.18 145.79,-199.73 150.82,-191.73"/>
<polygon fill="grey" stroke="grey" stroke-width="2" points="154.26,-193.23 156.62,-182.9 148.34,-189.51 154.26,-193.23"/>
</g>
<!-- 4 -->
<g id="node5" class="node">
<title>4</title>
<path fill="none" stroke="#56d873" stroke-width="2" d="M139.75,-324C139.75,-324 12,-324 12,-324 6,-324 0,-318 0,-312 0,-312 0,-300 0,-300 0,-294 6,-288 12,-288 12,-288 139.75,-288 139.75,-288 145.75,-288 151.75,-294 151.75,-300 151.75,-300 151.75,-312 151.75,-312 151.75,-318 145.75,-324 139.75,-324"/>
<text text-anchor="middle" x="75.88" y="-303.62" font-family="sans" font-size="10.00">build_contaminants_database</text>
</g>
<!-- 4&#45;&gt;3 -->
<g id="edge5" class="edge">
<title>4&#45;&gt;3</title>
<path fill="none" stroke="grey" stroke-width="2" d="M88.24,-287.34C93.31,-280.1 99.3,-271.53 104.96,-263.45"/>
<polygon fill="grey" stroke="grey" stroke-width="2" points="108.48,-265.1 111.34,-254.9 102.74,-261.09 108.48,-265.1"/>
</g>
<!-- 5 -->
<g id="node6" class="node">
<title>5</title>
<path fill="none" stroke="#d88d56" stroke-width="2" d="M246.25,-324C246.25,-324 181.5,-324 181.5,-324 175.5,-324 169.5,-318 169.5,-312 169.5,-312 169.5,-300 169.5,-300 169.5,-294 175.5,-288 181.5,-288 181.5,-288 246.25,-288 246.25,-288 252.25,-288 258.25,-294 258.25,-300 258.25,-300 258.25,-312 258.25,-312 258.25,-318 252.25,-324 246.25,-324"/>
<text text-anchor="middle" x="213.88" y="-303.62" font-family="sans" font-size="10.00">cdhit_clustering</text>
</g>
<!-- 5&#45;&gt;2 -->
<g id="edge4" class="edge">
<title>5&#45;&gt;2</title>
<path fill="none" stroke="grey" stroke-width="2" d="M211.4,-287.26C208.56,-269.04 203.19,-240.04 194.88,-216 192.14,-208.09 188.5,-199.83 184.81,-192.25"/>
<polygon fill="grey" stroke="grey" stroke-width="2" points="187.57,-190 179.91,-182.68 181.34,-193.18 187.57,-190"/>
</g>
<!-- 5&#45;&gt;3 -->
<g id="edge6" class="edge">
<title>5&#45;&gt;3</title>
<path fill="none" stroke="grey" stroke-width="2" d="M191.42,-287.34C181.17,-279.27 168.83,-269.57 157.57,-260.72"/>
<polygon fill="grey" stroke="grey" stroke-width="2" points="159.66,-257.33 149.64,-253.9 155.33,-262.83 159.66,-257.33"/>
</g>
<!-- 6 -->
<g id="node7" class="node">
<title>6</title>
<path fill="none" stroke="#56d8a9" stroke-width="2" d="M266.5,-396C266.5,-396 161.25,-396 161.25,-396 155.25,-396 149.25,-390 149.25,-384 149.25,-384 149.25,-372 149.25,-372 149.25,-366 155.25,-360 161.25,-360 161.25,-360 266.5,-360 266.5,-360 272.5,-360 278.5,-366 278.5,-372 278.5,-372 278.5,-384 278.5,-384 278.5,-390 272.5,-396 266.5,-396"/>
<text text-anchor="middle" x="213.88" y="-375.62" font-family="sans" font-size="10.00">assemble_transcriptome</text>
</g>
<!-- 6&#45;&gt;5 -->
<g id="edge7" class="edge">
<title>6&#45;&gt;5</title>
<path fill="none" stroke="grey" stroke-width="2" d="M213.88,-359.34C213.88,-352.75 213.88,-345.08 213.88,-337.67"/>
<polygon fill="grey" stroke="grey" stroke-width="2" points="217.38,-337.9 213.88,-327.9 210.38,-337.9 217.38,-337.9"/>
</g>
<!-- 7 -->
<g id="node8" class="node">
<title>7</title>
<path fill="none" stroke="#d85656" stroke-width="2" d="M234.62,-468C234.62,-468 193.12,-468 193.12,-468 187.12,-468 181.12,-462 181.12,-456 181.12,-456 181.12,-444 181.12,-444 181.12,-438 187.12,-432 193.12,-432 193.12,-432 234.62,-432 234.62,-432 240.62,-432 246.62,-438 246.62,-444 246.62,-444 246.62,-456 246.62,-456 246.62,-462 240.62,-468 234.62,-468"/>
<text text-anchor="middle" x="213.88" y="-447.62" font-family="sans" font-size="10.00">trim_reads</text>
</g>
<!-- 7&#45;&gt;6 -->
<g id="edge8" class="edge">
<title>7&#45;&gt;6</title>
<path fill="none" stroke="grey" stroke-width="2" d="M213.88,-431.34C213.88,-424.75 213.88,-417.08 213.88,-409.67"/>
<polygon fill="grey" stroke="grey" stroke-width="2" points="217.38,-409.9 213.88,-399.9 210.38,-409.9 217.38,-409.9"/>
</g>
</g>
</svg>
