<?xml version="1.0" encoding="UTF-8" standalone="no"?>
<!DOCTYPE svg PUBLIC "-//W3C//DTD SVG 1.1//EN"
 "http://www.w3.org/Graphics/SVG/1.1/DTD/svg11.dtd">
<!-- Generated by graphviz version 8.1.0 (0)
 -->
<!-- Title: snakemake_dag Pages: 1 -->
<svg width="605pt" height="1269pt"
 viewBox="0.00 0.00 604.88 1268.50" xmlns="http://www.w3.org/2000/svg" xmlns:xlink="http://www.w3.org/1999/xlink">
<g id="graph0" class="graph" transform="scale(1 1) rotate(0) translate(4 1264.5)">
<title>snakemake_dag</title>
<polygon fill="white" stroke="none" points="-4,4 -4,-1264.5 600.88,-1264.5 600.88,4 -4,4"/>
<!-- 0 -->
<g id="node1" class="node">
<title>0</title>
<path fill="none" stroke="#56d8c9" stroke-width="2" d="M235.62,-36C235.62,-36 205.62,-36 205.62,-36 199.62,-36 193.62,-30 193.62,-24 193.62,-24 193.62,-12 193.62,-12 193.62,-6 199.62,0 205.62,0 205.62,0 235.62,0 235.62,0 241.62,0 247.62,-6 247.62,-12 247.62,-12 247.62,-24 247.62,-24 247.62,-30 241.62,-36 235.62,-36"/>
<text text-anchor="middle" x="220.62" y="-15.62" font-family="sans" font-size="10.00">all</text>
</g>
<!-- 1 -->
<g id="node2" class="node">
<title>1</title>
<path fill="none" stroke="#d87d56" stroke-width="2" d="M259.75,-108C259.75,-108 181.5,-108 181.5,-108 175.5,-108 169.5,-102 169.5,-96 169.5,-96 169.5,-84 169.5,-84 169.5,-78 175.5,-72 181.5,-72 181.5,-72 259.75,-72 259.75,-72 265.75,-72 271.75,-78 271.75,-84 271.75,-84 271.75,-96 271.75,-96 271.75,-102 265.75,-108 259.75,-108"/>
<text text-anchor="middle" x="220.62" y="-87.62" font-family="sans" font-size="10.00">build_output_table</text>
</g>
<!-- 1&#45;&gt;0 -->
<g id="edge1" class="edge">
<title>1&#45;&gt;0</title>
<path fill="none" stroke="grey" stroke-width="2" d="M220.62,-71.34C220.62,-64.75 220.62,-57.08 220.62,-49.67"/>
<polygon fill="grey" stroke="grey" stroke-width="2" points="224.13,-49.9 220.62,-39.9 217.13,-49.9 224.13,-49.9"/>
</g>
<!-- 2 -->
<g id="node3" class="node">
<title>2</title>
<path fill="none" stroke="#56d8b1" stroke-width="2" d="M191.38,-252C191.38,-252 107.88,-252 107.88,-252 101.88,-252 95.88,-246 95.88,-240 95.88,-240 95.88,-228 95.88,-228 95.88,-222 101.88,-216 107.88,-216 107.88,-216 191.38,-216 191.38,-216 197.38,-216 203.38,-222 203.38,-228 203.38,-228 203.38,-240 203.38,-240 203.38,-246 197.38,-252 191.38,-252"/>
<text text-anchor="middle" x="149.62" y="-231.62" font-family="sans" font-size="10.00">extract_Cys_pattern</text>
</g>
<!-- 2&#45;&gt;1 -->
<g id="edge2" class="edge">
<title>2&#45;&gt;1</title>
<path fill="none" stroke="grey" stroke-width="2" d="M157.36,-215.06C165.3,-196.94 178.22,-168.23 190.62,-144 194.66,-136.13 199.26,-127.74 203.63,-120.01"/>
<polygon fill="grey" stroke="grey" stroke-width="2" points="207.03,-121.36 208.97,-110.95 200.96,-117.88 207.03,-121.36"/>
</g>
<!-- 3 -->
<g id="node4" class="node">
<title>3</title>
<path fill="none" stroke="#d6d856" stroke-width="2" d="M306.88,-324C306.88,-324 196.38,-324 196.38,-324 190.38,-324 184.38,-318 184.38,-312 184.38,-312 184.38,-300 184.38,-300 184.38,-294 190.38,-288 196.38,-288 196.38,-288 306.88,-288 306.88,-288 312.88,-288 318.88,-294 318.88,-300 318.88,-300 318.88,-312 318.88,-312 318.88,-318 312.88,-324 306.88,-324"/>
<text text-anchor="middle" x="251.62" y="-303.62" font-family="sans" font-size="10.00">retrieve_candidate_toxins</text>
</g>
<!-- 3&#45;&gt;2 -->
<g id="edge8" class="edge">
<title>3&#45;&gt;2</title>
<path fill="none" stroke="grey" stroke-width="2" d="M225.62,-287.15C213.63,-278.93 199.2,-269.02 186.14,-260.06"/>
<polygon fill="grey" stroke="grey" stroke-width="2" points="187.81,-256.59 177.58,-253.81 183.85,-262.36 187.81,-256.59"/>
</g>
<!-- 17 -->
<g id="node18" class="node">
<title>17</title>
<path fill="none" stroke="#568ad8" stroke-width="2" d="M290.25,-252C290.25,-252 233,-252 233,-252 227,-252 221,-246 221,-240 221,-240 221,-228 221,-228 221,-222 227,-216 233,-216 233,-216 290.25,-216 290.25,-216 296.25,-216 302.25,-222 302.25,-228 302.25,-228 302.25,-240 302.25,-240 302.25,-246 296.25,-252 290.25,-252"/>
<text text-anchor="middle" x="261.62" y="-231.62" font-family="sans" font-size="10.00">run_wolfpsort</text>
</g>
<!-- 3&#45;&gt;17 -->
<g id="edge27" class="edge">
<title>3&#45;&gt;17</title>
<path fill="none" stroke="grey" stroke-width="2" d="M254.15,-287.34C255.09,-280.75 256.19,-273.08 257.24,-265.67"/>
<polygon fill="grey" stroke="grey" stroke-width="2" points="261.12,-265.3 259.07,-254.9 254.19,-264.31 261.12,-265.3"/>
</g>
<!-- 19 -->
<g id="node20" class="node">
<title>19</title>
<path fill="none" stroke="#d86656" stroke-width="2" d="M405.38,-252C405.38,-252 357.88,-252 357.88,-252 351.88,-252 345.88,-246 345.88,-240 345.88,-240 345.88,-228 345.88,-228 345.88,-222 351.88,-216 357.88,-216 357.88,-216 405.38,-216 405.38,-216 411.38,-216 417.38,-222 417.38,-228 417.38,-228 417.38,-240 417.38,-240 417.38,-246 411.38,-252 405.38,-252"/>
<text text-anchor="middle" x="381.62" y="-231.62" font-family="sans" font-size="10.00">run_hmmer</text>
</g>
<!-- 3&#45;&gt;19 -->
<g id="edge29" class="edge">
<title>3&#45;&gt;19</title>
<path fill="none" stroke="grey" stroke-width="2" d="M284.77,-287.15C300.81,-278.52 320.3,-268.02 337.57,-258.72"/>
<polygon fill="grey" stroke="grey" stroke-width="2" points="339.4,-261.64 346.54,-253.81 336.08,-255.47 339.4,-261.64"/>
</g>
<!-- 21 -->
<g id="node22" class="node">
<title>21</title>
<path fill="none" stroke="#56d8a2" stroke-width="2" d="M532.88,-252C532.88,-252 464.38,-252 464.38,-252 458.38,-252 452.38,-246 452.38,-240 452.38,-240 452.38,-228 452.38,-228 452.38,-222 458.38,-216 464.38,-216 464.38,-216 532.88,-216 532.88,-216 538.88,-216 544.88,-222 544.88,-228 544.88,-228 544.88,-240 544.88,-240 544.88,-246 538.88,-252 532.88,-252"/>
<text text-anchor="middle" x="498.62" y="-231.62" font-family="sans" font-size="10.00">blast_on_uniprot</text>
</g>
<!-- 3&#45;&gt;21 -->
<g id="edge31" class="edge">
<title>3&#45;&gt;21</title>
<path fill="none" stroke="grey" stroke-width="2" d="M314.91,-287.06C353.18,-276.22 401.66,-262.48 439.21,-251.84"/>
<polygon fill="grey" stroke="grey" stroke-width="2" points="440.83,-254.45 449.49,-248.36 438.92,-247.72 440.83,-254.45"/>
</g>
<!-- 4 -->
<g id="node5" class="node">
<title>4</title>
<path fill="none" stroke="#56c9d8" stroke-width="2" d="M306.5,-468C306.5,-468 196.75,-468 196.75,-468 190.75,-468 184.75,-462 184.75,-456 184.75,-456 184.75,-444 184.75,-444 184.75,-438 190.75,-432 196.75,-432 196.75,-432 306.5,-432 306.5,-432 312.5,-432 318.5,-438 318.5,-444 318.5,-444 318.5,-456 318.5,-456 318.5,-462 312.5,-468 306.5,-468"/>
<text text-anchor="middle" x="251.62" y="-447.62" font-family="sans" font-size="10.00">extract_non_TM_peptides</text>
</g>
<!-- 4&#45;&gt;3 -->
<g id="edge10" class="edge">
<title>4&#45;&gt;3</title>
<path fill="none" stroke="grey" stroke-width="2" d="M251.62,-431.02C251.62,-407.54 251.62,-366.11 251.62,-337.64"/>
<polygon fill="grey" stroke="grey" stroke-width="2" points="255.13,-337.84 251.62,-327.84 248.13,-337.84 255.13,-337.84"/>
</g>
<!-- 15 -->
<g id="node16" class="node">
<title>15</title>
<path fill="none" stroke="#68d856" stroke-width="2" d="M177.88,-396C177.88,-396 115.38,-396 115.38,-396 109.38,-396 103.38,-390 103.38,-384 103.38,-384 103.38,-372 103.38,-372 103.38,-366 109.38,-360 115.38,-360 115.38,-360 177.88,-360 177.88,-360 183.88,-360 189.88,-366 189.88,-372 189.88,-372 189.88,-384 189.88,-384 189.88,-390 183.88,-396 177.88,-396"/>
<text text-anchor="middle" x="146.62" y="-375.62" font-family="sans" font-size="10.00">blast_on_toxins</text>
</g>
<!-- 4&#45;&gt;15 -->
<g id="edge25" class="edge">
<title>4&#45;&gt;15</title>
<path fill="none" stroke="grey" stroke-width="2" d="M224.86,-431.15C212.39,-422.84 197.36,-412.82 183.81,-403.79"/>
<polygon fill="grey" stroke="grey" stroke-width="2" points="185.61,-400.45 175.34,-397.81 181.72,-406.27 185.61,-400.45"/>
</g>
<!-- 5 -->
<g id="node6" class="node">
<title>5</title>
<path fill="none" stroke="#b6d856" stroke-width="2" d="M211.5,-540C211.5,-540 161.75,-540 161.75,-540 155.75,-540 149.75,-534 149.75,-528 149.75,-528 149.75,-516 149.75,-516 149.75,-510 155.75,-504 161.75,-504 161.75,-504 211.5,-504 211.5,-504 217.5,-504 223.5,-510 223.5,-516 223.5,-516 223.5,-528 223.5,-528 223.5,-534 217.5,-540 211.5,-540"/>
<text text-anchor="middle" x="186.62" y="-519.62" font-family="sans" font-size="10.00">run_phobius</text>
</g>
<!-- 5&#45;&gt;4 -->
<g id="edge12" class="edge">
<title>5&#45;&gt;4</title>
<path fill="none" stroke="grey" stroke-width="2" d="M203.03,-503.34C210.06,-495.77 218.43,-486.75 226.23,-478.35"/>
<polygon fill="grey" stroke="grey" stroke-width="2" points="228.76,-480.61 233,-470.9 223.63,-475.85 228.76,-480.61"/>
</g>
<!-- 6 -->
<g id="node7" class="node">
<title>6</title>
<path fill="none" stroke="#d8c356" stroke-width="2" stroke-dasharray="5,2" d="M243.38,-612C243.38,-612 129.88,-612 129.88,-612 123.88,-612 117.88,-606 117.88,-600 117.88,-600 117.88,-588 117.88,-588 117.88,-582 123.88,-576 129.88,-576 129.88,-576 243.38,-576 243.38,-576 249.38,-576 255.38,-582 255.38,-588 255.38,-588 255.38,-600 255.38,-600 255.38,-606 249.38,-612 243.38,-612"/>
<text text-anchor="middle" x="186.62" y="-591.62" font-family="sans" font-size="10.00">extract_secreted_peptides</text>
</g>
<!-- 6&#45;&gt;4 -->
<g id="edge13" class="edge">
<title>6&#45;&gt;4</title>
<path fill="none" stroke="grey" stroke-width="2" d="M206.25,-575.1C215.59,-565.55 226.1,-553.08 232.62,-540 241.68,-521.84 246.43,-499.49 248.92,-481.74"/>
<polygon fill="grey" stroke="grey" stroke-width="2" points="252.74,-482.26 250.44,-471.92 245.79,-481.44 252.74,-482.26"/>
</g>
<!-- 6&#45;&gt;5 -->
<g id="edge14" class="edge">
<title>6&#45;&gt;5</title>
<path fill="none" stroke="grey" stroke-width="2" d="M186.62,-575.34C186.62,-568.75 186.62,-561.08 186.62,-553.67"/>
<polygon fill="grey" stroke="grey" stroke-width="2" points="190.13,-553.9 186.62,-543.9 183.13,-553.9 190.13,-553.9"/>
</g>
<!-- 7 -->
<g id="node8" class="node">
<title>7</title>
<path fill="none" stroke="#d8b456" stroke-width="2" stroke-dasharray="5,2" d="M112.5,-684C112.5,-684 20.75,-684 20.75,-684 14.75,-684 8.75,-678 8.75,-672 8.75,-672 8.75,-660 8.75,-660 8.75,-654 14.75,-648 20.75,-648 20.75,-648 112.5,-648 112.5,-648 118.5,-648 124.5,-654 124.5,-660 124.5,-660 124.5,-672 124.5,-672 124.5,-678 118.5,-684 112.5,-684"/>
<text text-anchor="middle" x="66.62" y="-663.62" font-family="sans" font-size="10.00">filter_signalp_outputs</text>
</g>
<!-- 7&#45;&gt;2 -->
<g id="edge9" class="edge">
<title>7&#45;&gt;2</title>
<path fill="none" stroke="grey" stroke-width="2" d="M58.78,-647.01C47.92,-620.43 29.62,-568.86 29.62,-523 29.62,-523 29.62,-523 29.62,-377 29.62,-326.69 74.11,-285 108.91,-260.09"/>
<polygon fill="grey" stroke="grey" stroke-width="2" points="111.09,-262.46 117.34,-253.9 107.12,-256.69 111.09,-262.46"/>
</g>
<!-- 7&#45;&gt;6 -->
<g id="edge15" class="edge">
<title>7&#45;&gt;6</title>
<path fill="none" stroke="grey" stroke-width="2" d="M97.22,-647.15C111.74,-638.68 129.33,-628.42 145.05,-619.25"/>
<polygon fill="grey" stroke="grey" stroke-width="2" points="147.22,-621.87 154.09,-613.81 143.69,-615.83 147.22,-621.87"/>
</g>
<!-- 8 -->
<g id="node9" class="node">
<title>8</title>
<path fill="none" stroke="#56a2d8" stroke-width="2" stroke-dasharray="5,2" d="M137.5,-828.5C137.5,-828.5 99.75,-828.5 99.75,-828.5 93.75,-828.5 87.75,-822.5 87.75,-816.5 87.75,-816.5 87.75,-804.5 87.75,-804.5 87.75,-798.5 93.75,-792.5 99.75,-792.5 99.75,-792.5 137.5,-792.5 137.5,-792.5 143.5,-792.5 149.5,-798.5 149.5,-804.5 149.5,-804.5 149.5,-816.5 149.5,-816.5 149.5,-822.5 143.5,-828.5 137.5,-828.5"/>
<text text-anchor="middle" x="118.62" y="-808.12" font-family="sans" font-size="10.00">split_fasta</text>
</g>
<!-- 25 -->
<g id="node26" class="node">
<title>25</title>
<path fill="none" stroke="#d88d56" stroke-width="2" stroke-dasharray="5,2" d="M57.25,-756.5C57.25,-756.5 12,-756.5 12,-756.5 6,-756.5 0,-750.5 0,-744.5 0,-744.5 0,-732 0,-732 0,-726 6,-720 12,-720 12,-720 57.25,-720 57.25,-720 63.25,-720 69.25,-726 69.25,-732 69.25,-732 69.25,-744.5 69.25,-744.5 69.25,-750.5 63.25,-756.5 57.25,-756.5"/>
<text text-anchor="middle" x="34.62" y="-743" font-family="sans" font-size="10.00">run_signalp</text>
<text text-anchor="middle" x="34.62" y="-728.75" font-family="sans" font-size="10.00">file_id: 2</text>
</g>
<!-- 8&#45;&gt;25 -->
<g id="edge35" class="edge">
<title>8&#45;&gt;25</title>
<path fill="none" stroke="grey" stroke-width="2" d="M97.43,-791.77C87.93,-783.83 76.52,-774.29 66.06,-765.54"/>
<polygon fill="grey" stroke="grey" stroke-width="2" points="68.32,-762.19 58.4,-758.46 63.83,-767.56 68.32,-762.19"/>
</g>
<!-- 26 -->
<g id="node27" class="node">
<title>26</title>
<path fill="none" stroke="#d88d56" stroke-width="2" stroke-dasharray="5,2" d="M144.25,-756.5C144.25,-756.5 99,-756.5 99,-756.5 93,-756.5 87,-750.5 87,-744.5 87,-744.5 87,-732 87,-732 87,-726 93,-720 99,-720 99,-720 144.25,-720 144.25,-720 150.25,-720 156.25,-726 156.25,-732 156.25,-732 156.25,-744.5 156.25,-744.5 156.25,-750.5 150.25,-756.5 144.25,-756.5"/>
<text text-anchor="middle" x="121.62" y="-743" font-family="sans" font-size="10.00">run_signalp</text>
<text text-anchor="middle" x="121.62" y="-728.75" font-family="sans" font-size="10.00">file_id: 1</text>
</g>
<!-- 8&#45;&gt;26 -->
<g id="edge36" class="edge">
<title>8&#45;&gt;26</title>
<path fill="none" stroke="grey" stroke-width="2" d="M119.38,-791.77C119.66,-785.17 119.99,-777.46 120.31,-770.03"/>
<polygon fill="grey" stroke="grey" stroke-width="2" points="123.93,-770.36 120.86,-760.22 116.93,-770.06 123.93,-770.36"/>
</g>
<!-- 9 -->
<g id="node10" class="node">
<title>9</title>
<path fill="none" stroke="#566bd8" stroke-width="2" stroke-dasharray="5,2" d="M146.88,-900.5C146.88,-900.5 90.38,-900.5 90.38,-900.5 84.38,-900.5 78.38,-894.5 78.38,-888.5 78.38,-888.5 78.38,-876.5 78.38,-876.5 78.38,-870.5 84.38,-864.5 90.38,-864.5 90.38,-864.5 146.88,-864.5 146.88,-864.5 152.88,-864.5 158.88,-870.5 158.88,-876.5 158.88,-876.5 158.88,-888.5 158.88,-888.5 158.88,-894.5 152.88,-900.5 146.88,-900.5"/>
<text text-anchor="middle" x="118.62" y="-880.12" font-family="sans" font-size="10.00">trim_peptides</text>
</g>
<!-- 9&#45;&gt;8 -->
<g id="edge19" class="edge">
<title>9&#45;&gt;8</title>
<path fill="none" stroke="grey" stroke-width="2" d="M118.62,-863.84C118.62,-857.25 118.62,-849.58 118.62,-842.17"/>
<polygon fill="grey" stroke="grey" stroke-width="2" points="122.13,-842.4 118.62,-832.4 115.13,-842.4 122.13,-842.4"/>
</g>
<!-- 10 -->
<g id="node11" class="node">
<title>10</title>
<path fill="none" stroke="#d85656" stroke-width="2" stroke-dasharray="5,2" d="M186.88,-972.5C186.88,-972.5 118.38,-972.5 118.38,-972.5 112.38,-972.5 106.38,-966.5 106.38,-960.5 106.38,-960.5 106.38,-948.5 106.38,-948.5 106.38,-942.5 112.38,-936.5 118.38,-936.5 118.38,-936.5 186.88,-936.5 186.88,-936.5 192.88,-936.5 198.88,-942.5 198.88,-948.5 198.88,-948.5 198.88,-960.5 198.88,-960.5 198.88,-966.5 192.88,-972.5 186.88,-972.5"/>
<text text-anchor="middle" x="152.62" y="-952.12" font-family="sans" font-size="10.00">cluster_peptides</text>
</g>
<!-- 10&#45;&gt;6 -->
<g id="edge16" class="edge">
<title>10&#45;&gt;6</title>
<path fill="none" stroke="grey" stroke-width="2" d="M159.67,-935.89C169.63,-909.37 186.62,-857.38 186.62,-811.5 186.62,-811.5 186.62,-811.5 186.62,-737.25 186.62,-698.84 186.62,-654.59 186.62,-625.77"/>
<polygon fill="grey" stroke="grey" stroke-width="2" points="190.13,-625.96 186.62,-615.96 183.13,-625.96 190.13,-625.96"/>
</g>
<!-- 10&#45;&gt;9 -->
<g id="edge20" class="edge">
<title>10&#45;&gt;9</title>
<path fill="none" stroke="grey" stroke-width="2" d="M144.05,-935.84C140.69,-928.93 136.75,-920.81 132.98,-913.06"/>
<polygon fill="grey" stroke="grey" stroke-width="2" points="135.84,-910.87 128.32,-903.4 129.54,-913.93 135.84,-910.87"/>
</g>
<!-- 11 -->
<g id="node12" class="node">
<title>11</title>
<path fill="none" stroke="#56d8d8" stroke-width="2" stroke-dasharray="5,2" d="M175.25,-1044.5C175.25,-1044.5 130,-1044.5 130,-1044.5 124,-1044.5 118,-1038.5 118,-1032.5 118,-1032.5 118,-1020.5 118,-1020.5 118,-1014.5 124,-1008.5 130,-1008.5 130,-1008.5 175.25,-1008.5 175.25,-1008.5 181.25,-1008.5 187.25,-1014.5 187.25,-1020.5 187.25,-1020.5 187.25,-1032.5 187.25,-1032.5 187.25,-1038.5 181.25,-1044.5 175.25,-1044.5"/>
<text text-anchor="middle" x="152.62" y="-1024.12" font-family="sans" font-size="10.00">detect_orfs</text>
</g>
<!-- 11&#45;&gt;10 -->
<g id="edge21" class="edge">
<title>11&#45;&gt;10</title>
<path fill="none" stroke="grey" stroke-width="2" d="M152.62,-1007.84C152.62,-1001.25 152.62,-993.58 152.62,-986.17"/>
<polygon fill="grey" stroke="grey" stroke-width="2" points="156.13,-986.4 152.62,-976.4 149.13,-986.4 156.13,-986.4"/>
</g>
<!-- 12 -->
<g id="node13" class="node">
<title>12</title>
<path fill="none" stroke="#56d88a" stroke-width="2" stroke-dasharray="5,2" d="M193.25,-1116.5C193.25,-1116.5 112,-1116.5 112,-1116.5 106,-1116.5 100,-1110.5 100,-1104.5 100,-1104.5 100,-1092.5 100,-1092.5 100,-1086.5 106,-1080.5 112,-1080.5 112,-1080.5 193.25,-1080.5 193.25,-1080.5 199.25,-1080.5 205.25,-1086.5 205.25,-1092.5 205.25,-1092.5 205.25,-1104.5 205.25,-1104.5 205.25,-1110.5 199.25,-1116.5 193.25,-1116.5"/>
<text text-anchor="middle" x="152.62" y="-1096.12" font-family="sans" font-size="10.00">filter_contaminants</text>
</g>
<!-- 12&#45;&gt;11 -->
<g id="edge22" class="edge">
<title>12&#45;&gt;11</title>
<path fill="none" stroke="grey" stroke-width="2" d="M152.62,-1079.84C152.62,-1073.25 152.62,-1065.58 152.62,-1058.17"/>
<polygon fill="grey" stroke="grey" stroke-width="2" points="156.13,-1058.4 152.62,-1048.4 149.13,-1058.4 156.13,-1058.4"/>
</g>
<!-- 13 -->
<g id="node14" class="node">
<title>13</title>
<path fill="none" stroke="#c6d856" stroke-width="2" stroke-dasharray="5,2" d="M201.12,-1188.5C201.12,-1188.5 104.12,-1188.5 104.12,-1188.5 98.12,-1188.5 92.12,-1182.5 92.12,-1176.5 92.12,-1176.5 92.12,-1164.5 92.12,-1164.5 92.12,-1158.5 98.12,-1152.5 104.12,-1152.5 104.12,-1152.5 201.12,-1152.5 201.12,-1152.5 207.12,-1152.5 213.12,-1158.5 213.12,-1164.5 213.12,-1164.5 213.12,-1176.5 213.12,-1176.5 213.12,-1182.5 207.12,-1188.5 201.12,-1188.5"/>
<text text-anchor="middle" x="152.62" y="-1168.12" font-family="sans" font-size="10.00">blast_on_contaminants</text>
</g>
<!-- 13&#45;&gt;12 -->
<g id="edge23" class="edge">
<title>13&#45;&gt;12</title>
<path fill="none" stroke="grey" stroke-width="2" d="M152.62,-1151.84C152.62,-1145.25 152.62,-1137.58 152.62,-1130.17"/>
<polygon fill="grey" stroke="grey" stroke-width="2" points="156.13,-1130.4 152.62,-1120.4 149.13,-1130.4 156.13,-1130.4"/>
</g>
<!-- 14 -->
<g id="node15" class="node">
<title>14</title>
<path fill="none" stroke="#567bd8" stroke-width="2" stroke-dasharray="5,2" d="M216.5,-1260.5C216.5,-1260.5 88.75,-1260.5 88.75,-1260.5 82.75,-1260.5 76.75,-1254.5 76.75,-1248.5 76.75,-1248.5 76.75,-1236.5 76.75,-1236.5 76.75,-1230.5 82.75,-1224.5 88.75,-1224.5 88.75,-1224.5 216.5,-1224.5 216.5,-1224.5 222.5,-1224.5 228.5,-1230.5 228.5,-1236.5 228.5,-1236.5 228.5,-1248.5 228.5,-1248.5 228.5,-1254.5 222.5,-1260.5 216.5,-1260.5"/>
<text text-anchor="middle" x="152.62" y="-1240.12" font-family="sans" font-size="10.00">build_contaminants_database</text>
</g>
<!-- 14&#45;&gt;13 -->
<g id="edge24" class="edge">
<title>14&#45;&gt;13</title>
<path fill="none" stroke="grey" stroke-width="2" d="M152.62,-1223.84C152.62,-1217.25 152.62,-1209.58 152.62,-1202.17"/>
<polygon fill="grey" stroke="grey" stroke-width="2" points="156.13,-1202.4 152.62,-1192.4 149.13,-1202.4 156.13,-1202.4"/>
</g>
<!-- 15&#45;&gt;1 -->
<g id="edge5" class="edge">
<title>15&#45;&gt;1</title>
<path fill="none" stroke="grey" stroke-width="2" d="M131.05,-359.37C106.65,-329.48 64.39,-267.16 86.62,-216 105.43,-172.75 147.39,-137.67 179.38,-115.81"/>
<polygon fill="grey" stroke="grey" stroke-width="2" points="181.4,-118.35 187.8,-109.91 177.53,-112.51 181.4,-118.35"/>
</g>
<!-- 15&#45;&gt;3 -->
<g id="edge11" class="edge">
<title>15&#45;&gt;3</title>
<path fill="none" stroke="grey" stroke-width="2" d="M173.39,-359.15C185.86,-350.84 200.89,-340.82 214.44,-331.79"/>
<polygon fill="grey" stroke="grey" stroke-width="2" points="216.53,-334.27 222.91,-325.81 212.64,-328.45 216.53,-334.27"/>
</g>
<!-- 16 -->
<g id="node17" class="node">
<title>16</title>
<path fill="none" stroke="#59d856" stroke-width="2" d="M155.12,-468C155.12,-468 70.12,-468 70.12,-468 64.12,-468 58.12,-462 58.12,-456 58.12,-456 58.12,-444 58.12,-444 58.12,-438 64.12,-432 70.12,-432 70.12,-432 155.12,-432 155.12,-432 161.12,-432 167.12,-438 167.12,-444 167.12,-444 167.12,-456 167.12,-456 167.12,-462 161.12,-468 155.12,-468"/>
<text text-anchor="middle" x="112.62" y="-447.62" font-family="sans" font-size="10.00">build_toxin_blast_db</text>
</g>
<!-- 16&#45;&gt;15 -->
<g id="edge26" class="edge">
<title>16&#45;&gt;15</title>
<path fill="none" stroke="grey" stroke-width="2" d="M121.2,-431.34C124.56,-424.43 128.5,-416.31 132.27,-408.56"/>
<polygon fill="grey" stroke="grey" stroke-width="2" points="135.71,-409.43 136.93,-398.9 129.41,-406.37 135.71,-409.43"/>
</g>
<!-- 17&#45;&gt;1 -->
<g id="edge3" class="edge">
<title>17&#45;&gt;1</title>
<path fill="none" stroke="grey" stroke-width="2" d="M230.33,-215.09C218.05,-206.26 205.32,-194.38 198.62,-180 189.78,-161.01 195.85,-138.02 203.83,-120.16"/>
<polygon fill="grey" stroke="grey" stroke-width="2" points="207.19,-121.25 208.5,-110.73 200.92,-118.13 207.19,-121.25"/>
</g>
<!-- 24 -->
<g id="node25" class="node">
<title>24</title>
<path fill="none" stroke="#d8a456" stroke-width="2" d="M303.75,-180C303.75,-180 219.5,-180 219.5,-180 213.5,-180 207.5,-174 207.5,-168 207.5,-168 207.5,-156 207.5,-156 207.5,-150 213.5,-144 219.5,-144 219.5,-144 303.75,-144 303.75,-144 309.75,-144 315.75,-150 315.75,-156 315.75,-156 315.75,-168 315.75,-168 315.75,-174 309.75,-180 303.75,-180"/>
<text text-anchor="middle" x="261.62" y="-159.62" font-family="sans" font-size="10.00">detect_repeated_aa</text>
</g>
<!-- 17&#45;&gt;24 -->
<g id="edge34" class="edge">
<title>17&#45;&gt;24</title>
<path fill="none" stroke="grey" stroke-width="2" d="M261.62,-215.34C261.62,-208.75 261.62,-201.08 261.62,-193.67"/>
<polygon fill="grey" stroke="grey" stroke-width="2" points="265.13,-193.9 261.62,-183.9 258.13,-193.9 265.13,-193.9"/>
</g>
<!-- 18 -->
<g id="node19" class="node">
<title>18</title>
<path fill="none" stroke="#56b1d8" stroke-width="2" d="M459,-180C459,-180 346.25,-180 346.25,-180 340.25,-180 334.25,-174 334.25,-168 334.25,-168 334.25,-156 334.25,-156 334.25,-150 340.25,-144 346.25,-144 346.25,-144 459,-144 459,-144 465,-144 471,-150 471,-156 471,-156 471,-168 471,-168 471,-174 465,-180 459,-180"/>
<text text-anchor="middle" x="402.62" y="-159.62" font-family="sans" font-size="10.00">parse_hmmsearch_output</text>
</g>
<!-- 18&#45;&gt;1 -->
<g id="edge4" class="edge">
<title>18&#45;&gt;1</title>
<path fill="none" stroke="grey" stroke-width="2" d="M356.23,-143.15C332.79,-134.14 304.1,-123.11 279.16,-113.51"/>
<polygon fill="grey" stroke="grey" stroke-width="2" points="279.84,-110.26 269.25,-109.93 277.33,-116.79 279.84,-110.26"/>
</g>
<!-- 19&#45;&gt;18 -->
<g id="edge28" class="edge">
<title>19&#45;&gt;18</title>
<path fill="none" stroke="grey" stroke-width="2" d="M386.92,-215.34C388.95,-208.59 391.32,-200.69 393.59,-193.11"/>
<polygon fill="grey" stroke="grey" stroke-width="2" points="397.73,-193.49 397.25,-182.9 391.03,-191.47 397.73,-193.49"/>
</g>
<!-- 20 -->
<g id="node21" class="node">
<title>20</title>
<path fill="none" stroke="#8fd856" stroke-width="2" stroke-dasharray="5,2" d="M414.38,-324C414.38,-324 348.88,-324 348.88,-324 342.88,-324 336.88,-318 336.88,-312 336.88,-312 336.88,-300 336.88,-300 336.88,-294 342.88,-288 348.88,-288 348.88,-288 414.38,-288 414.38,-288 420.38,-288 426.38,-294 426.38,-300 426.38,-300 426.38,-312 426.38,-312 426.38,-318 420.38,-324 414.38,-324"/>
<text text-anchor="middle" x="381.62" y="-303.62" font-family="sans" font-size="10.00">download_pfam</text>
</g>
<!-- 20&#45;&gt;19 -->
<g id="edge30" class="edge">
<title>20&#45;&gt;19</title>
<path fill="none" stroke="grey" stroke-width="2" d="M381.62,-287.34C381.62,-280.75 381.62,-273.08 381.62,-265.67"/>
<polygon fill="grey" stroke="grey" stroke-width="2" points="385.13,-265.9 381.62,-255.9 378.13,-265.9 385.13,-265.9"/>
</g>
<!-- 21&#45;&gt;1 -->
<g id="edge6" class="edge">
<title>21&#45;&gt;1</title>
<path fill="none" stroke="grey" stroke-width="2" d="M500.11,-215.31C500.77,-195.18 498.47,-162.69 479.62,-144 452.72,-117.32 352.78,-103.01 285.21,-96.21"/>
<polygon fill="grey" stroke="grey" stroke-width="2" points="285.87,-92.47 275.58,-94.99 285.2,-99.43 285.87,-92.47"/>
</g>
<!-- 22 -->
<g id="node23" class="node">
<title>22</title>
<path fill="none" stroke="#56d86b" stroke-width="2" d="M584.88,-324C584.88,-324 456.38,-324 456.38,-324 450.38,-324 444.38,-318 444.38,-312 444.38,-312 444.38,-300 444.38,-300 444.38,-294 450.38,-288 456.38,-288 456.38,-288 584.88,-288 584.88,-288 590.88,-288 596.88,-294 596.88,-300 596.88,-300 596.88,-312 596.88,-312 596.88,-318 590.88,-324 584.88,-324"/>
<text text-anchor="middle" x="520.62" y="-303.62" font-family="sans" font-size="10.00">make_uniprot_blast_database</text>
</g>
<!-- 22&#45;&gt;21 -->
<g id="edge32" class="edge">
<title>22&#45;&gt;21</title>
<path fill="none" stroke="grey" stroke-width="2" d="M515.07,-287.34C512.95,-280.59 510.47,-272.69 508.09,-265.11"/>
<polygon fill="grey" stroke="grey" stroke-width="2" points="510.59,-263.39 504.25,-254.9 503.91,-265.49 510.59,-263.39"/>
</g>
<!-- 23 -->
<g id="node24" class="node">
<title>23</title>
<path fill="none" stroke="#9fd856" stroke-width="2" d="M558.25,-396C558.25,-396 483,-396 483,-396 477,-396 471,-390 471,-384 471,-384 471,-372 471,-372 471,-366 477,-360 483,-360 483,-360 558.25,-360 558.25,-360 564.25,-360 570.25,-366 570.25,-372 570.25,-372 570.25,-384 570.25,-384 570.25,-390 564.25,-396 558.25,-396"/>
<text text-anchor="middle" x="520.62" y="-375.62" font-family="sans" font-size="10.00">download_uniprot</text>
</g>
<!-- 23&#45;&gt;22 -->
<g id="edge33" class="edge">
<title>23&#45;&gt;22</title>
<path fill="none" stroke="grey" stroke-width="2" d="M520.62,-359.34C520.62,-352.75 520.62,-345.08 520.62,-337.67"/>
<polygon fill="grey" stroke="grey" stroke-width="2" points="524.13,-337.9 520.62,-327.9 517.13,-337.9 524.13,-337.9"/>
</g>
<!-- 24&#45;&gt;1 -->
<g id="edge7" class="edge">
<title>24&#45;&gt;1</title>
<path fill="none" stroke="grey" stroke-width="2" d="M251.28,-143.34C247.13,-136.26 242.25,-127.92 237.61,-120"/>
<polygon fill="grey" stroke="grey" stroke-width="2" points="240.18,-117.76 232.11,-110.9 234.14,-121.3 240.18,-117.76"/>
</g>
<!-- 25&#45;&gt;7 -->
<g id="edge17" class="edge">
<title>25&#45;&gt;7</title>
<path fill="none" stroke="grey" stroke-width="2" d="M42.87,-719.16C46.03,-712.22 49.72,-704.12 53.24,-696.39"/>
<polygon fill="grey" stroke="grey" stroke-width="2" points="56.56,-697.34 57.52,-686.79 50.19,-694.44 56.56,-697.34"/>
</g>
<!-- 26&#45;&gt;7 -->
<g id="edge18" class="edge">
<title>26&#45;&gt;7</title>
<path fill="none" stroke="grey" stroke-width="2" d="M107.46,-719.16C101.71,-711.81 94.93,-703.15 88.56,-695.02"/>
<polygon fill="grey" stroke="grey" stroke-width="2" points="90.47,-692.5 81.55,-686.79 84.96,-696.82 90.47,-692.5"/>
</g>
</g>
</svg>
