<?xml version="1.0" encoding="UTF-8" standalone="no"?>
<!DOCTYPE svg PUBLIC "-//W3C//DTD SVG 1.1//EN"
 "http://www.w3.org/Graphics/SVG/1.1/DTD/svg11.dtd">
<!-- Generated by graphviz version 8.1.0 (0)
 -->
<!-- Title: snakemake_dag Pages: 1 -->
<svg width="266pt" height="260pt"
 viewBox="0.00 0.00 266.25 260.00" xmlns="http://www.w3.org/2000/svg" xmlns:xlink="http://www.w3.org/1999/xlink">
<g id="graph0" class="graph" transform="scale(1 1) rotate(0) translate(4 256)">
<title>snakemake_dag</title>
<polygon fill="white" stroke="none" points="-4,4 -4,-256 262.25,-256 262.25,4 -4,4"/>
<!-- 0 -->
<g id="node1" class="node">
<title>0</title>
<path fill="none" stroke="#56d87b" stroke-width="2" d="M183.88,-36C183.88,-36 153.88,-36 153.88,-36 147.88,-36 141.88,-30 141.88,-24 141.88,-24 141.88,-12 141.88,-12 141.88,-6 147.88,0 153.88,0 153.88,0 183.88,0 183.88,0 189.88,0 195.88,-6 195.88,-12 195.88,-12 195.88,-24 195.88,-24 195.88,-30 189.88,-36 183.88,-36"/>
<text text-anchor="middle" x="168.88" y="-15.62" font-family="sans" font-size="10.00">all</text>
</g>
<!-- 1 -->
<g id="node2" class="node">
<title>1</title>
<path fill="none" stroke="#78d856" stroke-width="2" d="M209.5,-108C209.5,-108 128.25,-108 128.25,-108 122.25,-108 116.25,-102 116.25,-96 116.25,-96 116.25,-84 116.25,-84 116.25,-78 122.25,-72 128.25,-72 128.25,-72 209.5,-72 209.5,-72 215.5,-72 221.5,-78 221.5,-84 221.5,-84 221.5,-96 221.5,-96 221.5,-102 215.5,-108 209.5,-108"/>
<text text-anchor="middle" x="168.88" y="-87.62" font-family="sans" font-size="10.00">filter_contaminants</text>
</g>
<!-- 1&#45;&gt;0 -->
<g id="edge1" class="edge">
<title>1&#45;&gt;0</title>
<path fill="none" stroke="grey" stroke-width="2" d="M168.88,-71.34C168.88,-64.75 168.88,-57.08 168.88,-49.67"/>
<polygon fill="grey" stroke="grey" stroke-width="2" points="172.38,-49.9 168.88,-39.9 165.38,-49.9 172.38,-49.9"/>
</g>
<!-- 2 -->
<g id="node3" class="node">
<title>2</title>
<path fill="none" stroke="#56d8c9" stroke-width="2" d="M173.38,-180C173.38,-180 76.38,-180 76.38,-180 70.38,-180 64.38,-174 64.38,-168 64.38,-168 64.38,-156 64.38,-156 64.38,-150 70.38,-144 76.38,-144 76.38,-144 173.38,-144 173.38,-144 179.38,-144 185.38,-150 185.38,-156 185.38,-156 185.38,-168 185.38,-168 185.38,-174 179.38,-180 173.38,-180"/>
<text text-anchor="middle" x="124.88" y="-159.62" font-family="sans" font-size="10.00">blast_on_contaminants</text>
</g>
<!-- 2&#45;&gt;1 -->
<g id="edge2" class="edge">
<title>2&#45;&gt;1</title>
<path fill="none" stroke="grey" stroke-width="2" d="M135.98,-143.34C140.48,-136.18 145.79,-127.73 150.82,-119.73"/>
<polygon fill="grey" stroke="grey" stroke-width="2" points="154.26,-121.23 156.62,-110.9 148.34,-117.51 154.26,-121.23"/>
</g>
<!-- 3 -->
<g id="node4" class="node">
<title>3</title>
<path fill="none" stroke="#d85656" stroke-width="2" d="M139.75,-252C139.75,-252 12,-252 12,-252 6,-252 0,-246 0,-240 0,-240 0,-228 0,-228 0,-222 6,-216 12,-216 12,-216 139.75,-216 139.75,-216 145.75,-216 151.75,-222 151.75,-228 151.75,-228 151.75,-240 151.75,-240 151.75,-246 145.75,-252 139.75,-252"/>
<text text-anchor="middle" x="75.88" y="-231.62" font-family="sans" font-size="10.00">build_contaminants_database</text>
</g>
<!-- 3&#45;&gt;2 -->
<g id="edge4" class="edge">
<title>3&#45;&gt;2</title>
<path fill="none" stroke="grey" stroke-width="2" d="M88.24,-215.34C93.31,-208.1 99.3,-199.53 104.96,-191.45"/>
<polygon fill="grey" stroke="grey" stroke-width="2" points="108.48,-193.1 111.34,-182.9 102.74,-189.09 108.48,-193.1"/>
</g>
<!-- 4 -->
<g id="node5" class="node">
<title>4</title>
<path fill="none" stroke="#c6d856" stroke-width="2" d="M246.25,-252C246.25,-252 181.5,-252 181.5,-252 175.5,-252 169.5,-246 169.5,-240 169.5,-240 169.5,-228 169.5,-228 169.5,-222 175.5,-216 181.5,-216 181.5,-216 246.25,-216 246.25,-216 252.25,-216 258.25,-222 258.25,-228 258.25,-228 258.25,-240 258.25,-240 258.25,-246 252.25,-252 246.25,-252"/>
<text text-anchor="middle" x="213.88" y="-231.62" font-family="sans" font-size="10.00">cdhit_clustering</text>
</g>
<!-- 4&#45;&gt;1 -->
<g id="edge3" class="edge">
<title>4&#45;&gt;1</title>
<path fill="none" stroke="grey" stroke-width="2" d="M211.08,-215.29C207.93,-197.1 202.16,-168.11 193.88,-144 191.17,-136.14 187.65,-127.9 184.11,-120.32"/>
<polygon fill="grey" stroke="grey" stroke-width="2" points="186.98,-118.19 179.45,-110.74 180.69,-121.26 186.98,-118.19"/>
</g>
<!-- 4&#45;&gt;2 -->
<g id="edge5" class="edge">
<title>4&#45;&gt;2</title>
<path fill="none" stroke="grey" stroke-width="2" d="M191.42,-215.34C181.17,-207.27 168.83,-197.57 157.57,-188.72"/>
<polygon fill="grey" stroke="grey" stroke-width="2" points="159.66,-185.33 149.64,-181.9 155.33,-190.83 159.66,-185.33"/>
</g>
</g>
</svg>
