<?xml version="1.0" encoding="UTF-8" standalone="no"?>
<!DOCTYPE svg PUBLIC "-//W3C//DTD SVG 1.1//EN"
 "http://www.w3.org/Graphics/SVG/1.1/DTD/svg11.dtd">
<!-- Generated by graphviz version 9.0.0 (0)
 -->
<!-- Title: snakemake_dag Pages: 1 -->
<svg width="1337pt" height="981pt"
 viewBox="0.00 0.00 1336.50 980.50" xmlns="http://www.w3.org/2000/svg" xmlns:xlink="http://www.w3.org/1999/xlink">
<g id="graph0" class="graph" transform="scale(1 1) rotate(0) translate(4 976.5)">
<title>snakemake_dag</title>
<polygon fill="white" stroke="none" points="-4,4 -4,-976.5 1332.5,-976.5 1332.5,4 -4,4"/>
<!-- 0 -->
<g id="node1" class="node">
<title>0</title>
<path fill="none" stroke="#d85656" stroke-width="2" stroke-dasharray="5,2" d="M507.88,-36C507.88,-36 477.88,-36 477.88,-36 471.88,-36 465.88,-30 465.88,-24 465.88,-24 465.88,-12 465.88,-12 465.88,-6 471.88,0 477.88,0 477.88,0 507.88,0 507.88,0 513.88,0 519.88,-6 519.88,-12 519.88,-12 519.88,-24 519.88,-24 519.88,-30 513.88,-36 507.88,-36"/>
<text text-anchor="middle" x="492.88" y="-15.62" font-family="sans" font-size="10.00">all</text>
</g>
<!-- 1 -->
<g id="node2" class="node">
<title>1</title>
<path fill="none" stroke="#566bd8" stroke-width="2" stroke-dasharray="5,2" d="M532,-108C532,-108 453.75,-108 453.75,-108 447.75,-108 441.75,-102 441.75,-96 441.75,-96 441.75,-84 441.75,-84 441.75,-78 447.75,-72 453.75,-72 453.75,-72 532,-72 532,-72 538,-72 544,-78 544,-84 544,-84 544,-96 544,-96 544,-102 538,-108 532,-108"/>
<text text-anchor="middle" x="492.88" y="-87.62" font-family="sans" font-size="10.00">build_output_table</text>
</g>
<!-- 1&#45;&gt;0 -->
<g id="edge1" class="edge">
<title>1&#45;&gt;0</title>
<path fill="none" stroke="grey" stroke-width="2" d="M492.88,-71.34C492.88,-64.75 492.88,-57.08 492.88,-49.67"/>
<polygon fill="grey" stroke="grey" stroke-width="2" points="496.38,-49.93 492.88,-39.93 489.38,-49.93 496.38,-49.93"/>
</g>
<!-- 2 -->
<g id="node3" class="node">
<title>2</title>
<path fill="none" stroke="#56d8a2" stroke-width="2" stroke-dasharray="5,2" d="M726.62,-252C726.62,-252 643.12,-252 643.12,-252 637.12,-252 631.12,-246 631.12,-240 631.12,-240 631.12,-228 631.12,-228 631.12,-222 637.12,-216 643.12,-216 643.12,-216 726.62,-216 726.62,-216 732.62,-216 738.62,-222 738.62,-228 738.62,-228 738.62,-240 738.62,-240 738.62,-246 732.62,-252 726.62,-252"/>
<text text-anchor="middle" x="684.88" y="-231.62" font-family="sans" font-size="10.00">extract_Cys_pattern</text>
</g>
<!-- 2&#45;&gt;1 -->
<g id="edge2" class="edge">
<title>2&#45;&gt;1</title>
<path fill="none" stroke="grey" stroke-width="2" d="M694.15,-215.33C702.96,-195.82 712.71,-164.47 696.88,-144 679.81,-121.94 610.74,-107.36 557.65,-99.17"/>
<polygon fill="grey" stroke="grey" stroke-width="2" points="558.28,-95.73 547.87,-97.72 557.25,-102.65 558.28,-95.73"/>
</g>
<!-- 3 -->
<g id="node4" class="node">
<title>3</title>
<path fill="none" stroke="#56d88a" stroke-width="2" stroke-dasharray="5,2" d="M602.12,-324C602.12,-324 491.62,-324 491.62,-324 485.62,-324 479.62,-318 479.62,-312 479.62,-312 479.62,-300 479.62,-300 479.62,-294 485.62,-288 491.62,-288 491.62,-288 602.12,-288 602.12,-288 608.12,-288 614.12,-294 614.12,-300 614.12,-300 614.12,-312 614.12,-312 614.12,-318 608.12,-324 602.12,-324"/>
<text text-anchor="middle" x="546.88" y="-303.62" font-family="sans" font-size="10.00">retrieve_candidate_toxins</text>
</g>
<!-- 3&#45;&gt;2 -->
<g id="edge8" class="edge">
<title>3&#45;&gt;2</title>
<path fill="none" stroke="grey" stroke-width="2" d="M582.06,-287.15C599.17,-278.47 619.97,-267.92 638.37,-258.59"/>
<polygon fill="grey" stroke="grey" stroke-width="2" points="639.72,-261.83 647.06,-254.18 636.56,-255.58 639.72,-261.83"/>
</g>
<!-- 14 -->
<g id="node15" class="node">
<title>14</title>
<path fill="none" stroke="#59d856" stroke-width="2" stroke-dasharray="5,2" d="M675.5,-180C675.5,-180 618.25,-180 618.25,-180 612.25,-180 606.25,-174 606.25,-168 606.25,-168 606.25,-156 606.25,-156 606.25,-150 612.25,-144 618.25,-144 618.25,-144 675.5,-144 675.5,-144 681.5,-144 687.5,-150 687.5,-156 687.5,-156 687.5,-168 687.5,-168 687.5,-174 681.5,-180 675.5,-180"/>
<text text-anchor="middle" x="646.88" y="-159.62" font-family="sans" font-size="10.00">run_wolfpsort</text>
</g>
<!-- 3&#45;&gt;14 -->
<g id="edge23" class="edge">
<title>3&#45;&gt;14</title>
<path fill="none" stroke="grey" stroke-width="2" d="M559.54,-287.02C576.52,-262.9 606.85,-219.83 626.92,-191.34"/>
<polygon fill="grey" stroke="grey" stroke-width="2" points="629.67,-193.5 632.57,-183.31 623.95,-189.47 629.67,-193.5"/>
</g>
<!-- 16 -->
<g id="node17" class="node">
<title>16</title>
<path fill="none" stroke="#d6d856" stroke-width="2" stroke-dasharray="5,2" d="M301.62,-252C301.62,-252 254.12,-252 254.12,-252 248.12,-252 242.12,-246 242.12,-240 242.12,-240 242.12,-228 242.12,-228 242.12,-222 248.12,-216 254.12,-216 254.12,-216 301.62,-216 301.62,-216 307.62,-216 313.62,-222 313.62,-228 313.62,-228 313.62,-240 313.62,-240 313.62,-246 307.62,-252 301.62,-252"/>
<text text-anchor="middle" x="277.88" y="-231.62" font-family="sans" font-size="10.00">run_hmmer</text>
</g>
<!-- 3&#45;&gt;16 -->
<g id="edge25" class="edge">
<title>3&#45;&gt;16</title>
<path fill="none" stroke="grey" stroke-width="2" d="M478.63,-291.25C436.99,-282.31 382.53,-269.65 326.85,-253.03"/>
<polygon fill="grey" stroke="grey" stroke-width="2" points="328.06,-249.74 317.48,-250.19 326.03,-256.44 328.06,-249.74"/>
</g>
<!-- 18 -->
<g id="node19" class="node">
<title>18</title>
<path fill="none" stroke="#d8c356" stroke-width="2" stroke-dasharray="5,2" d="M412.12,-252C412.12,-252 343.62,-252 343.62,-252 337.62,-252 331.62,-246 331.62,-240 331.62,-240 331.62,-228 331.62,-228 331.62,-222 337.62,-216 343.62,-216 343.62,-216 412.12,-216 412.12,-216 418.12,-216 424.12,-222 424.12,-228 424.12,-228 424.12,-240 424.12,-240 424.12,-246 418.12,-252 412.12,-252"/>
<text text-anchor="middle" x="377.88" y="-231.62" font-family="sans" font-size="10.00">blast_on_uniprot</text>
</g>
<!-- 3&#45;&gt;18 -->
<g id="edge27" class="edge">
<title>3&#45;&gt;18</title>
<path fill="none" stroke="grey" stroke-width="2" d="M503.79,-287.15C482.32,-278.26 456.11,-267.41 433.18,-257.91"/>
<polygon fill="grey" stroke="grey" stroke-width="2" points="434.55,-254.69 423.97,-254.09 431.87,-261.15 434.55,-254.69"/>
</g>
<!-- 21 -->
<g id="node22" class="node">
<title>21</title>
<path fill="none" stroke="#56d8d8" stroke-width="2" stroke-dasharray="5,2" d="M576,-180C576,-180 491.75,-180 491.75,-180 485.75,-180 479.75,-174 479.75,-168 479.75,-168 479.75,-156 479.75,-156 479.75,-150 485.75,-144 491.75,-144 491.75,-144 576,-144 576,-144 582,-144 588,-150 588,-156 588,-156 588,-168 588,-168 588,-174 582,-180 576,-180"/>
<text text-anchor="middle" x="533.88" y="-159.62" font-family="sans" font-size="10.00">detect_repeated_aa</text>
</g>
<!-- 3&#45;&gt;21 -->
<g id="edge30" class="edge">
<title>3&#45;&gt;21</title>
<path fill="none" stroke="grey" stroke-width="2" d="M545.23,-287.02C543.08,-263.54 539.29,-222.11 536.68,-193.64"/>
<polygon fill="grey" stroke="grey" stroke-width="2" points="540.18,-193.49 535.78,-183.85 533.21,-194.13 540.18,-193.49"/>
</g>
<!-- 4 -->
<g id="node5" class="node">
<title>4</title>
<path fill="none" stroke="#56b1d8" stroke-width="2" stroke-dasharray="5,2" d="M601.75,-468C601.75,-468 492,-468 492,-468 486,-468 480,-462 480,-456 480,-456 480,-444 480,-444 480,-438 486,-432 492,-432 492,-432 601.75,-432 601.75,-432 607.75,-432 613.75,-438 613.75,-444 613.75,-444 613.75,-456 613.75,-456 613.75,-462 607.75,-468 601.75,-468"/>
<text text-anchor="middle" x="546.88" y="-447.62" font-family="sans" font-size="10.00">extract_non_TM_peptides</text>
</g>
<!-- 4&#45;&gt;3 -->
<g id="edge10" class="edge">
<title>4&#45;&gt;3</title>
<path fill="none" stroke="grey" stroke-width="2" d="M546.88,-431.02C546.88,-407.54 546.88,-366.11 546.88,-337.64"/>
<polygon fill="grey" stroke="grey" stroke-width="2" points="550.38,-337.87 546.88,-327.87 543.38,-337.87 550.38,-337.87"/>
</g>
<!-- 12 -->
<g id="node13" class="node">
<title>12</title>
<path fill="none" stroke="#56d8b1" stroke-width="2" stroke-dasharray="5,2" d="M498.12,-396C498.12,-396 435.62,-396 435.62,-396 429.62,-396 423.62,-390 423.62,-384 423.62,-384 423.62,-372 423.62,-372 423.62,-366 429.62,-360 435.62,-360 435.62,-360 498.12,-360 498.12,-360 504.12,-360 510.12,-366 510.12,-372 510.12,-372 510.12,-384 510.12,-384 510.12,-390 504.12,-396 498.12,-396"/>
<text text-anchor="middle" x="466.88" y="-375.62" font-family="sans" font-size="10.00">blast_on_toxins</text>
</g>
<!-- 4&#45;&gt;12 -->
<g id="edge21" class="edge">
<title>4&#45;&gt;12</title>
<path fill="none" stroke="grey" stroke-width="2" d="M526.69,-431.34C517.66,-423.44 506.83,-413.96 496.89,-405.26"/>
<polygon fill="grey" stroke="grey" stroke-width="2" points="499.44,-402.85 489.61,-398.9 494.83,-408.11 499.44,-402.85"/>
</g>
<!-- 5 -->
<g id="node6" class="node">
<title>5</title>
<path fill="none" stroke="#d87d56" stroke-width="2" stroke-dasharray="5,2" d="M601.75,-540C601.75,-540 552,-540 552,-540 546,-540 540,-534 540,-528 540,-528 540,-516 540,-516 540,-510 546,-504 552,-504 552,-504 601.75,-504 601.75,-504 607.75,-504 613.75,-510 613.75,-516 613.75,-516 613.75,-528 613.75,-528 613.75,-534 607.75,-540 601.75,-540"/>
<text text-anchor="middle" x="576.88" y="-519.62" font-family="sans" font-size="10.00">run_phobius</text>
</g>
<!-- 5&#45;&gt;4 -->
<g id="edge12" class="edge">
<title>5&#45;&gt;4</title>
<path fill="none" stroke="grey" stroke-width="2" d="M569.3,-503.34C566.38,-496.51 562.95,-488.5 559.66,-480.83"/>
<polygon fill="grey" stroke="grey" stroke-width="2" points="562.9,-479.5 555.74,-471.68 556.46,-482.25 562.9,-479.5"/>
</g>
<!-- 6 -->
<g id="node7" class="node">
<title>6</title>
<path fill="none" stroke="#b6d856" stroke-width="2" stroke-dasharray="5,2" d="M598.62,-612C598.62,-612 485.12,-612 485.12,-612 479.12,-612 473.12,-606 473.12,-600 473.12,-600 473.12,-588 473.12,-588 473.12,-582 479.12,-576 485.12,-576 485.12,-576 598.62,-576 598.62,-576 604.62,-576 610.62,-582 610.62,-588 610.62,-588 610.62,-600 610.62,-600 610.62,-606 604.62,-612 598.62,-612"/>
<text text-anchor="middle" x="541.88" y="-591.62" font-family="sans" font-size="10.00">extract_secreted_peptides</text>
</g>
<!-- 6&#45;&gt;4 -->
<g id="edge13" class="edge">
<title>6&#45;&gt;4</title>
<path fill="none" stroke="grey" stroke-width="2" d="M536.86,-575.24C532.44,-557.25 527.24,-528.64 530.88,-504 531.99,-496.42 533.97,-488.42 536.16,-481"/>
<polygon fill="grey" stroke="grey" stroke-width="2" points="539.41,-482.33 539.13,-471.73 532.74,-480.19 539.41,-482.33"/>
</g>
<!-- 6&#45;&gt;5 -->
<g id="edge14" class="edge">
<title>6&#45;&gt;5</title>
<path fill="none" stroke="grey" stroke-width="2" d="M550.71,-575.34C554.2,-568.34 558.32,-560.12 562.23,-552.28"/>
<polygon fill="grey" stroke="grey" stroke-width="2" points="565.23,-554.12 566.57,-543.61 558.97,-550.99 565.23,-554.12"/>
</g>
<!-- 7 -->
<g id="node8" class="node">
<title>7</title>
<path fill="none" stroke="#d8a456" stroke-width="2" stroke-dasharray="5,2" d="M569.12,-684C569.12,-684 500.62,-684 500.62,-684 494.62,-684 488.62,-678 488.62,-672 488.62,-672 488.62,-660 488.62,-660 488.62,-654 494.62,-648 500.62,-648 500.62,-648 569.12,-648 569.12,-648 575.12,-648 581.12,-654 581.12,-660 581.12,-660 581.12,-672 581.12,-672 581.12,-678 575.12,-684 569.12,-684"/>
<text text-anchor="middle" x="534.88" y="-663.62" font-family="sans" font-size="10.00">cluster_peptides</text>
</g>
<!-- 7&#45;&gt;6 -->
<g id="edge15" class="edge">
<title>7&#45;&gt;6</title>
<path fill="none" stroke="grey" stroke-width="2" d="M536.64,-647.34C537.3,-640.75 538.07,-633.08 538.81,-625.67"/>
<polygon fill="grey" stroke="grey" stroke-width="2" points="542.27,-626.21 539.78,-615.91 535.31,-625.52 542.27,-626.21"/>
</g>
<!-- 8 -->
<g id="node9" class="node">
<title>8</title>
<path fill="none" stroke="#567bd8" stroke-width="2" stroke-dasharray="5,2" d="M98.5,-756.25C98.5,-756.25 53.25,-756.25 53.25,-756.25 47.25,-756.25 41.25,-750.25 41.25,-744.25 41.25,-744.25 41.25,-732.25 41.25,-732.25 41.25,-726.25 47.25,-720.25 53.25,-720.25 53.25,-720.25 98.5,-720.25 98.5,-720.25 104.5,-720.25 110.5,-726.25 110.5,-732.25 110.5,-732.25 110.5,-744.25 110.5,-744.25 110.5,-750.25 104.5,-756.25 98.5,-756.25"/>
<text text-anchor="middle" x="75.88" y="-735.88" font-family="sans" font-size="10.00">detect_orfs</text>
</g>
<!-- 8&#45;&gt;7 -->
<g id="edge17" class="edge">
<title>8&#45;&gt;7</title>
<path fill="none" stroke="grey" stroke-width="2" d="M111.31,-722.23C113.84,-721.4 116.38,-720.65 118.88,-720 242.87,-687.8 392.94,-674.82 474.66,-669.86"/>
<polygon fill="grey" stroke="grey" stroke-width="2" points="474.86,-673.35 484.64,-669.28 474.45,-666.37 474.86,-673.35"/>
</g>
<!-- 9 -->
<g id="node10" class="node">
<title>9</title>
<path fill="none" stroke="#56d86b" stroke-width="2" stroke-dasharray="5,2" d="M116.5,-828.5C116.5,-828.5 35.25,-828.5 35.25,-828.5 29.25,-828.5 23.25,-822.5 23.25,-816.5 23.25,-816.5 23.25,-804.5 23.25,-804.5 23.25,-798.5 29.25,-792.5 35.25,-792.5 35.25,-792.5 116.5,-792.5 116.5,-792.5 122.5,-792.5 128.5,-798.5 128.5,-804.5 128.5,-804.5 128.5,-816.5 128.5,-816.5 128.5,-822.5 122.5,-828.5 116.5,-828.5"/>
<text text-anchor="middle" x="75.88" y="-808.12" font-family="sans" font-size="10.00">filter_contaminants</text>
</g>
<!-- 9&#45;&gt;8 -->
<g id="edge18" class="edge">
<title>9&#45;&gt;8</title>
<path fill="none" stroke="grey" stroke-width="2" d="M75.88,-791.77C75.88,-785.17 75.88,-777.46 75.88,-770.03"/>
<polygon fill="grey" stroke="grey" stroke-width="2" points="79.38,-770.24 75.88,-760.24 72.38,-770.24 79.38,-770.24"/>
</g>
<!-- 10 -->
<g id="node11" class="node">
<title>10</title>
<path fill="none" stroke="#56d87b" stroke-width="2" stroke-dasharray="5,2" d="M124.38,-900.5C124.38,-900.5 27.38,-900.5 27.38,-900.5 21.38,-900.5 15.38,-894.5 15.38,-888.5 15.38,-888.5 15.38,-876.5 15.38,-876.5 15.38,-870.5 21.38,-864.5 27.38,-864.5 27.38,-864.5 124.38,-864.5 124.38,-864.5 130.38,-864.5 136.38,-870.5 136.38,-876.5 136.38,-876.5 136.38,-888.5 136.38,-888.5 136.38,-894.5 130.38,-900.5 124.38,-900.5"/>
<text text-anchor="middle" x="75.88" y="-880.12" font-family="sans" font-size="10.00">blast_on_contaminants</text>
</g>
<!-- 10&#45;&gt;9 -->
<g id="edge19" class="edge">
<title>10&#45;&gt;9</title>
<path fill="none" stroke="grey" stroke-width="2" d="M75.88,-863.84C75.88,-857.25 75.88,-849.58 75.88,-842.17"/>
<polygon fill="grey" stroke="grey" stroke-width="2" points="79.38,-842.43 75.88,-832.43 72.38,-842.43 79.38,-842.43"/>
</g>
<!-- 11 -->
<g id="node12" class="node">
<title>11</title>
<path fill="none" stroke="#c6d856" stroke-width="2" stroke-dasharray="5,2" d="M139.75,-972.5C139.75,-972.5 12,-972.5 12,-972.5 6,-972.5 0,-966.5 0,-960.5 0,-960.5 0,-948.5 0,-948.5 0,-942.5 6,-936.5 12,-936.5 12,-936.5 139.75,-936.5 139.75,-936.5 145.75,-936.5 151.75,-942.5 151.75,-948.5 151.75,-948.5 151.75,-960.5 151.75,-960.5 151.75,-966.5 145.75,-972.5 139.75,-972.5"/>
<text text-anchor="middle" x="75.88" y="-952.12" font-family="sans" font-size="10.00">build_contaminants_database</text>
</g>
<!-- 11&#45;&gt;10 -->
<g id="edge20" class="edge">
<title>11&#45;&gt;10</title>
<path fill="none" stroke="grey" stroke-width="2" d="M75.88,-935.84C75.88,-929.25 75.88,-921.58 75.88,-914.17"/>
<polygon fill="grey" stroke="grey" stroke-width="2" points="79.38,-914.43 75.88,-904.43 72.38,-914.43 79.38,-914.43"/>
</g>
<!-- 12&#45;&gt;1 -->
<g id="edge5" class="edge">
<title>12&#45;&gt;1</title>
<path fill="none" stroke="grey" stroke-width="2" d="M464.94,-359.21C461.15,-319.89 454.46,-222.82 470.88,-144 472.51,-136.13 475.31,-127.95 478.36,-120.44"/>
<polygon fill="grey" stroke="grey" stroke-width="2" points="481.53,-121.94 482.37,-111.38 475.13,-119.11 481.53,-121.94"/>
</g>
<!-- 12&#45;&gt;3 -->
<g id="edge11" class="edge">
<title>12&#45;&gt;3</title>
<path fill="none" stroke="grey" stroke-width="2" d="M487.06,-359.34C496.09,-351.44 506.92,-341.96 516.86,-333.26"/>
<polygon fill="grey" stroke="grey" stroke-width="2" points="518.92,-336.11 524.14,-326.9 514.31,-330.85 518.92,-336.11"/>
</g>
<!-- 13 -->
<g id="node14" class="node">
<title>13</title>
<path fill="none" stroke="#56d8c9" stroke-width="2" stroke-dasharray="5,2" d="M450.38,-468C450.38,-468 365.38,-468 365.38,-468 359.38,-468 353.38,-462 353.38,-456 353.38,-456 353.38,-444 353.38,-444 353.38,-438 359.38,-432 365.38,-432 365.38,-432 450.38,-432 450.38,-432 456.38,-432 462.38,-438 462.38,-444 462.38,-444 462.38,-456 462.38,-456 462.38,-462 456.38,-468 450.38,-468"/>
<text text-anchor="middle" x="407.88" y="-447.62" font-family="sans" font-size="10.00">build_toxin_blast_db</text>
</g>
<!-- 13&#45;&gt;12 -->
<g id="edge22" class="edge">
<title>13&#45;&gt;12</title>
<path fill="none" stroke="grey" stroke-width="2" d="M422.76,-431.34C429.07,-423.85 436.58,-414.95 443.59,-406.63"/>
<polygon fill="grey" stroke="grey" stroke-width="2" points="446.07,-409.12 449.84,-399.22 440.71,-404.61 446.07,-409.12"/>
</g>
<!-- 14&#45;&gt;1 -->
<g id="edge3" class="edge">
<title>14&#45;&gt;1</title>
<path fill="none" stroke="grey" stroke-width="2" d="M607.62,-143.15C588.32,-134.38 564.83,-123.71 544.14,-114.3"/>
<polygon fill="grey" stroke="grey" stroke-width="2" points="545.64,-111.14 535.09,-110.19 542.74,-117.51 545.64,-111.14"/>
</g>
<!-- 15 -->
<g id="node16" class="node">
<title>15</title>
<path fill="none" stroke="#56c9d8" stroke-width="2" stroke-dasharray="5,2" d="M344.25,-180C344.25,-180 231.5,-180 231.5,-180 225.5,-180 219.5,-174 219.5,-168 219.5,-168 219.5,-156 219.5,-156 219.5,-150 225.5,-144 231.5,-144 231.5,-144 344.25,-144 344.25,-144 350.25,-144 356.25,-150 356.25,-156 356.25,-156 356.25,-168 356.25,-168 356.25,-174 350.25,-180 344.25,-180"/>
<text text-anchor="middle" x="287.88" y="-159.62" font-family="sans" font-size="10.00">parse_hmmsearch_output</text>
</g>
<!-- 15&#45;&gt;1 -->
<g id="edge4" class="edge">
<title>15&#45;&gt;1</title>
<path fill="none" stroke="grey" stroke-width="2" d="M340.4,-143.06C367.27,-133.89 400.2,-122.64 428.58,-112.96"/>
<polygon fill="grey" stroke="grey" stroke-width="2" points="429.64,-116.29 437.98,-109.75 427.38,-109.67 429.64,-116.29"/>
</g>
<!-- 16&#45;&gt;15 -->
<g id="edge24" class="edge">
<title>16&#45;&gt;15</title>
<path fill="none" stroke="grey" stroke-width="2" d="M280.4,-215.34C281.34,-208.75 282.44,-201.08 283.49,-193.67"/>
<polygon fill="grey" stroke="grey" stroke-width="2" points="286.94,-194.29 284.89,-183.9 280.01,-193.3 286.94,-194.29"/>
</g>
<!-- 17 -->
<g id="node18" class="node">
<title>17</title>
<path fill="none" stroke="#d88d56" stroke-width="2" stroke-dasharray="5,2" d="M241.62,-324C241.62,-324 176.12,-324 176.12,-324 170.12,-324 164.12,-318 164.12,-312 164.12,-312 164.12,-300 164.12,-300 164.12,-294 170.12,-288 176.12,-288 176.12,-288 241.62,-288 241.62,-288 247.62,-288 253.62,-294 253.62,-300 253.62,-300 253.62,-312 253.62,-312 253.62,-318 247.62,-324 241.62,-324"/>
<text text-anchor="middle" x="208.88" y="-303.62" font-family="sans" font-size="10.00">download_pfam</text>
</g>
<!-- 17&#45;&gt;16 -->
<g id="edge26" class="edge">
<title>17&#45;&gt;16</title>
<path fill="none" stroke="grey" stroke-width="2" d="M226.29,-287.34C233.83,-279.69 242.83,-270.56 251.18,-262.08"/>
<polygon fill="grey" stroke="grey" stroke-width="2" points="253.58,-264.64 258.1,-255.06 248.59,-259.72 253.58,-264.64"/>
</g>
<!-- 18&#45;&gt;1 -->
<g id="edge6" class="edge">
<title>18&#45;&gt;1</title>
<path fill="none" stroke="grey" stroke-width="2" d="M388.35,-215.16C399.59,-196.62 418.46,-167.12 437.88,-144 445.5,-134.93 454.5,-125.73 462.99,-117.6"/>
<polygon fill="grey" stroke="grey" stroke-width="2" points="465.13,-120.39 470.05,-111 460.35,-115.27 465.13,-120.39"/>
</g>
<!-- 19 -->
<g id="node20" class="node">
<title>19</title>
<path fill="none" stroke="#8fd856" stroke-width="2" stroke-dasharray="5,2" d="M412.12,-324C412.12,-324 283.62,-324 283.62,-324 277.62,-324 271.62,-318 271.62,-312 271.62,-312 271.62,-300 271.62,-300 271.62,-294 277.62,-288 283.62,-288 283.62,-288 412.12,-288 412.12,-288 418.12,-288 424.12,-294 424.12,-300 424.12,-300 424.12,-312 424.12,-312 424.12,-318 418.12,-324 412.12,-324"/>
<text text-anchor="middle" x="347.88" y="-303.62" font-family="sans" font-size="10.00">make_uniprot_blast_database</text>
</g>
<!-- 19&#45;&gt;18 -->
<g id="edge28" class="edge">
<title>19&#45;&gt;18</title>
<path fill="none" stroke="grey" stroke-width="2" d="M355.45,-287.34C358.37,-280.51 361.8,-272.5 365.09,-264.83"/>
<polygon fill="grey" stroke="grey" stroke-width="2" points="368.29,-266.25 369.01,-255.68 361.85,-263.5 368.29,-266.25"/>
</g>
<!-- 20 -->
<g id="node21" class="node">
<title>20</title>
<path fill="none" stroke="#78d856" stroke-width="2" stroke-dasharray="5,2" d="M385.5,-396C385.5,-396 310.25,-396 310.25,-396 304.25,-396 298.25,-390 298.25,-384 298.25,-384 298.25,-372 298.25,-372 298.25,-366 304.25,-360 310.25,-360 310.25,-360 385.5,-360 385.5,-360 391.5,-360 397.5,-366 397.5,-372 397.5,-372 397.5,-384 397.5,-384 397.5,-390 391.5,-396 385.5,-396"/>
<text text-anchor="middle" x="347.88" y="-375.62" font-family="sans" font-size="10.00">download_uniprot</text>
</g>
<!-- 20&#45;&gt;19 -->
<g id="edge29" class="edge">
<title>20&#45;&gt;19</title>
<path fill="none" stroke="grey" stroke-width="2" d="M347.88,-359.34C347.88,-352.75 347.88,-345.08 347.88,-337.67"/>
<polygon fill="grey" stroke="grey" stroke-width="2" points="351.38,-337.93 347.88,-327.93 344.38,-337.93 351.38,-337.93"/>
</g>
<!-- 21&#45;&gt;1 -->
<g id="edge7" class="edge">
<title>21&#45;&gt;1</title>
<path fill="none" stroke="grey" stroke-width="2" d="M523.53,-143.34C519.38,-136.26 514.5,-127.92 509.86,-120"/>
<polygon fill="grey" stroke="grey" stroke-width="2" points="512.96,-118.37 504.89,-111.51 506.92,-121.91 512.96,-118.37"/>
</g>
<!-- 22 -->
<g id="node23" class="node">
<title>22</title>
<path fill="none" stroke="#68d856" stroke-width="2" stroke-dasharray="5,2" d="M730.75,-684C730.75,-684 639,-684 639,-684 633,-684 627,-678 627,-672 627,-672 627,-660 627,-660 627,-654 633,-648 639,-648 639,-648 730.75,-648 730.75,-648 736.75,-648 742.75,-654 742.75,-660 742.75,-660 742.75,-672 742.75,-672 742.75,-678 736.75,-684 730.75,-684"/>
<text text-anchor="middle" x="684.88" y="-663.62" font-family="sans" font-size="10.00">filter_signalp_outputs</text>
</g>
<!-- 22&#45;&gt;2 -->
<g id="edge9" class="edge">
<title>22&#45;&gt;2</title>
<path fill="none" stroke="grey" stroke-width="2" d="M684.88,-647.07C684.88,-620.13 684.88,-567.62 684.88,-523 684.88,-523 684.88,-523 684.88,-377 684.88,-338.65 684.88,-294.48 684.88,-265.72"/>
<polygon fill="grey" stroke="grey" stroke-width="2" points="688.38,-265.96 684.88,-255.96 681.38,-265.96 688.38,-265.96"/>
</g>
<!-- 22&#45;&gt;6 -->
<g id="edge16" class="edge">
<title>22&#45;&gt;6</title>
<path fill="none" stroke="grey" stroke-width="2" d="M648.42,-647.15C630.6,-638.43 608.93,-627.82 589.79,-618.46"/>
<polygon fill="grey" stroke="grey" stroke-width="2" points="591.5,-615.4 580.98,-614.14 588.43,-621.68 591.5,-615.4"/>
</g>
<!-- 23 -->
<g id="node24" class="node">
<title>23</title>
<path fill="none" stroke="#d86656" stroke-width="2" stroke-dasharray="5,2" d="M1142.5,-756.5C1142.5,-756.5 1097.25,-756.5 1097.25,-756.5 1091.25,-756.5 1085.25,-750.5 1085.25,-744.5 1085.25,-744.5 1085.25,-732 1085.25,-732 1085.25,-726 1091.25,-720 1097.25,-720 1097.25,-720 1142.5,-720 1142.5,-720 1148.5,-720 1154.5,-726 1154.5,-732 1154.5,-732 1154.5,-744.5 1154.5,-744.5 1154.5,-750.5 1148.5,-756.5 1142.5,-756.5"/>
<text text-anchor="middle" x="1119.88" y="-743" font-family="sans" font-size="10.00">run_signalp</text>
<text text-anchor="middle" x="1119.88" y="-728.75" font-family="sans" font-size="10.00">i: 002</text>
</g>
<!-- 23&#45;&gt;22 -->
<g id="edge31" class="edge">
<title>23&#45;&gt;22</title>
<path fill="none" stroke="grey" stroke-width="2" d="M1084.44,-722.25C1081.9,-721.42 1079.36,-720.66 1076.88,-720 967.11,-691.04 835.66,-677.38 756.3,-671.34"/>
<polygon fill="grey" stroke="grey" stroke-width="2" points="756.79,-667.87 746.56,-670.62 756.27,-674.85 756.79,-667.87"/>
</g>
<!-- 24 -->
<g id="node25" class="node">
<title>24</title>
<path fill="none" stroke="#d86656" stroke-width="2" stroke-dasharray="5,2" d="M1229.5,-756.5C1229.5,-756.5 1184.25,-756.5 1184.25,-756.5 1178.25,-756.5 1172.25,-750.5 1172.25,-744.5 1172.25,-744.5 1172.25,-732 1172.25,-732 1172.25,-726 1178.25,-720 1184.25,-720 1184.25,-720 1229.5,-720 1229.5,-720 1235.5,-720 1241.5,-726 1241.5,-732 1241.5,-732 1241.5,-744.5 1241.5,-744.5 1241.5,-750.5 1235.5,-756.5 1229.5,-756.5"/>
<text text-anchor="middle" x="1206.88" y="-743" font-family="sans" font-size="10.00">run_signalp</text>
<text text-anchor="middle" x="1206.88" y="-728.75" font-family="sans" font-size="10.00">i: 013</text>
</g>
<!-- 24&#45;&gt;22 -->
<g id="edge32" class="edge">
<title>24&#45;&gt;22</title>
<path fill="none" stroke="grey" stroke-width="2" d="M1171.46,-722.18C1168.92,-721.37 1166.37,-720.63 1163.88,-720 1022.23,-684.46 851.07,-672.74 756.48,-668.89"/>
<polygon fill="grey" stroke="grey" stroke-width="2" points="756.81,-665.4 746.68,-668.51 756.54,-672.39 756.81,-665.4"/>
</g>
<!-- 25 -->
<g id="node26" class="node">
<title>25</title>
<path fill="none" stroke="#d86656" stroke-width="2" stroke-dasharray="5,2" d="M1316.5,-756.5C1316.5,-756.5 1271.25,-756.5 1271.25,-756.5 1265.25,-756.5 1259.25,-750.5 1259.25,-744.5 1259.25,-744.5 1259.25,-732 1259.25,-732 1259.25,-726 1265.25,-720 1271.25,-720 1271.25,-720 1316.5,-720 1316.5,-720 1322.5,-720 1328.5,-726 1328.5,-732 1328.5,-732 1328.5,-744.5 1328.5,-744.5 1328.5,-750.5 1322.5,-756.5 1316.5,-756.5"/>
<text text-anchor="middle" x="1293.88" y="-743" font-family="sans" font-size="10.00">run_signalp</text>
<text text-anchor="middle" x="1293.88" y="-728.75" font-family="sans" font-size="10.00">i: 012</text>
</g>
<!-- 25&#45;&gt;22 -->
<g id="edge33" class="edge">
<title>25&#45;&gt;22</title>
<path fill="none" stroke="grey" stroke-width="2" d="M1258.47,-722.13C1255.92,-721.33 1253.38,-720.61 1250.88,-720 1076.66,-677.84 864.76,-668.82 756.33,-667.15"/>
<polygon fill="grey" stroke="grey" stroke-width="2" points="756.71,-663.65 746.66,-667.02 756.61,-670.65 756.71,-663.65"/>
</g>
<!-- 26 -->
<g id="node27" class="node">
<title>26</title>
<path fill="none" stroke="#d86656" stroke-width="2" stroke-dasharray="5,2" d="M185.5,-756.5C185.5,-756.5 140.25,-756.5 140.25,-756.5 134.25,-756.5 128.25,-750.5 128.25,-744.5 128.25,-744.5 128.25,-732 128.25,-732 128.25,-726 134.25,-720 140.25,-720 140.25,-720 185.5,-720 185.5,-720 191.5,-720 197.5,-726 197.5,-732 197.5,-732 197.5,-744.5 197.5,-744.5 197.5,-750.5 191.5,-756.5 185.5,-756.5"/>
<text text-anchor="middle" x="162.88" y="-743" font-family="sans" font-size="10.00">run_signalp</text>
<text text-anchor="middle" x="162.88" y="-728.75" font-family="sans" font-size="10.00">i: 014</text>
</g>
<!-- 26&#45;&gt;22 -->
<g id="edge34" class="edge">
<title>26&#45;&gt;22</title>
<path fill="none" stroke="grey" stroke-width="2" d="M198.28,-722.13C200.83,-721.33 203.37,-720.61 205.88,-720 372.48,-679.67 420.03,-707.12 589.88,-684 597.52,-682.96 605.49,-681.74 613.41,-680.45"/>
<polygon fill="grey" stroke="grey" stroke-width="2" points="613.95,-683.91 623.23,-678.79 612.78,-677.01 613.95,-683.91"/>
</g>
<!-- 27 -->
<g id="node28" class="node">
<title>27</title>
<path fill="none" stroke="#d86656" stroke-width="2" stroke-dasharray="5,2" d="M272.5,-756.5C272.5,-756.5 227.25,-756.5 227.25,-756.5 221.25,-756.5 215.25,-750.5 215.25,-744.5 215.25,-744.5 215.25,-732 215.25,-732 215.25,-726 221.25,-720 227.25,-720 227.25,-720 272.5,-720 272.5,-720 278.5,-720 284.5,-726 284.5,-732 284.5,-732 284.5,-744.5 284.5,-744.5 284.5,-750.5 278.5,-756.5 272.5,-756.5"/>
<text text-anchor="middle" x="249.88" y="-743" font-family="sans" font-size="10.00">run_signalp</text>
<text text-anchor="middle" x="249.88" y="-728.75" font-family="sans" font-size="10.00">i: 004</text>
</g>
<!-- 27&#45;&gt;22 -->
<g id="edge35" class="edge">
<title>27&#45;&gt;22</title>
<path fill="none" stroke="grey" stroke-width="2" d="M285.3,-722.21C287.84,-721.39 290.38,-720.64 292.88,-720 421.67,-686.97 458.38,-703.72 589.88,-684 597.5,-682.86 605.46,-681.57 613.38,-680.24"/>
<polygon fill="grey" stroke="grey" stroke-width="2" points="613.93,-683.7 623.19,-678.55 612.74,-676.8 613.93,-683.7"/>
</g>
<!-- 28 -->
<g id="node29" class="node">
<title>28</title>
<path fill="none" stroke="#d86656" stroke-width="2" stroke-dasharray="5,2" d="M359.5,-756.5C359.5,-756.5 314.25,-756.5 314.25,-756.5 308.25,-756.5 302.25,-750.5 302.25,-744.5 302.25,-744.5 302.25,-732 302.25,-732 302.25,-726 308.25,-720 314.25,-720 314.25,-720 359.5,-720 359.5,-720 365.5,-720 371.5,-726 371.5,-732 371.5,-732 371.5,-744.5 371.5,-744.5 371.5,-750.5 365.5,-756.5 359.5,-756.5"/>
<text text-anchor="middle" x="336.88" y="-743" font-family="sans" font-size="10.00">run_signalp</text>
<text text-anchor="middle" x="336.88" y="-728.75" font-family="sans" font-size="10.00">i: 005</text>
</g>
<!-- 28&#45;&gt;22 -->
<g id="edge36" class="edge">
<title>28&#45;&gt;22</title>
<path fill="none" stroke="grey" stroke-width="2" d="M372.34,-722.35C374.87,-721.5 377.4,-720.7 379.88,-720 471,-694.23 496.6,-700.34 589.88,-684 597.47,-682.67 605.41,-681.27 613.32,-679.86"/>
<polygon fill="grey" stroke="grey" stroke-width="2" points="613.89,-683.32 623.12,-678.12 612.66,-676.42 613.89,-683.32"/>
</g>
<!-- 29 -->
<g id="node30" class="node">
<title>29</title>
<path fill="none" stroke="#d86656" stroke-width="2" stroke-dasharray="5,2" d="M446.5,-756.5C446.5,-756.5 401.25,-756.5 401.25,-756.5 395.25,-756.5 389.25,-750.5 389.25,-744.5 389.25,-744.5 389.25,-732 389.25,-732 389.25,-726 395.25,-720 401.25,-720 401.25,-720 446.5,-720 446.5,-720 452.5,-720 458.5,-726 458.5,-732 458.5,-732 458.5,-744.5 458.5,-744.5 458.5,-750.5 452.5,-756.5 446.5,-756.5"/>
<text text-anchor="middle" x="423.88" y="-743" font-family="sans" font-size="10.00">run_signalp</text>
<text text-anchor="middle" x="423.88" y="-728.75" font-family="sans" font-size="10.00">i: 011</text>
</g>
<!-- 29&#45;&gt;22 -->
<g id="edge37" class="edge">
<title>29&#45;&gt;22</title>
<path fill="none" stroke="grey" stroke-width="2" d="M459.4,-722.54C461.91,-721.64 464.42,-720.79 466.88,-720 515.22,-704.51 570.84,-691.06 613.8,-681.58"/>
<polygon fill="grey" stroke="grey" stroke-width="2" points="614.43,-685.03 623.46,-679.48 612.94,-678.19 614.43,-685.03"/>
</g>
<!-- 30 -->
<g id="node31" class="node">
<title>30</title>
<path fill="none" stroke="#d86656" stroke-width="2" stroke-dasharray="5,2" d="M533.5,-756.5C533.5,-756.5 488.25,-756.5 488.25,-756.5 482.25,-756.5 476.25,-750.5 476.25,-744.5 476.25,-744.5 476.25,-732 476.25,-732 476.25,-726 482.25,-720 488.25,-720 488.25,-720 533.5,-720 533.5,-720 539.5,-720 545.5,-726 545.5,-732 545.5,-732 545.5,-744.5 545.5,-744.5 545.5,-750.5 539.5,-756.5 533.5,-756.5"/>
<text text-anchor="middle" x="510.88" y="-743" font-family="sans" font-size="10.00">run_signalp</text>
<text text-anchor="middle" x="510.88" y="-728.75" font-family="sans" font-size="10.00">i: 009</text>
</g>
<!-- 30&#45;&gt;22 -->
<g id="edge38" class="edge">
<title>30&#45;&gt;22</title>
<path fill="none" stroke="grey" stroke-width="2" d="M546.09,-723.03C569.68,-713.51 601.27,-700.76 628.35,-689.82"/>
<polygon fill="grey" stroke="grey" stroke-width="2" points="629.66,-693.07 637.62,-686.08 627.04,-686.58 629.66,-693.07"/>
</g>
<!-- 31 -->
<g id="node32" class="node">
<title>31</title>
<path fill="none" stroke="#d86656" stroke-width="2" stroke-dasharray="5,2" d="M620.5,-756.5C620.5,-756.5 575.25,-756.5 575.25,-756.5 569.25,-756.5 563.25,-750.5 563.25,-744.5 563.25,-744.5 563.25,-732 563.25,-732 563.25,-726 569.25,-720 575.25,-720 575.25,-720 620.5,-720 620.5,-720 626.5,-720 632.5,-726 632.5,-732 632.5,-732 632.5,-744.5 632.5,-744.5 632.5,-750.5 626.5,-756.5 620.5,-756.5"/>
<text text-anchor="middle" x="597.88" y="-743" font-family="sans" font-size="10.00">run_signalp</text>
<text text-anchor="middle" x="597.88" y="-728.75" font-family="sans" font-size="10.00">i: 008</text>
</g>
<!-- 31&#45;&gt;22 -->
<g id="edge39" class="edge">
<title>31&#45;&gt;22</title>
<path fill="none" stroke="grey" stroke-width="2" d="M620.28,-719.16C630.2,-711.15 642.05,-701.58 652.88,-692.84"/>
<polygon fill="grey" stroke="grey" stroke-width="2" points="654.91,-695.69 660.49,-686.69 650.51,-690.25 654.91,-695.69"/>
</g>
<!-- 32 -->
<g id="node33" class="node">
<title>32</title>
<path fill="none" stroke="#d86656" stroke-width="2" stroke-dasharray="5,2" d="M707.5,-756.5C707.5,-756.5 662.25,-756.5 662.25,-756.5 656.25,-756.5 650.25,-750.5 650.25,-744.5 650.25,-744.5 650.25,-732 650.25,-732 650.25,-726 656.25,-720 662.25,-720 662.25,-720 707.5,-720 707.5,-720 713.5,-720 719.5,-726 719.5,-732 719.5,-732 719.5,-744.5 719.5,-744.5 719.5,-750.5 713.5,-756.5 707.5,-756.5"/>
<text text-anchor="middle" x="684.88" y="-743" font-family="sans" font-size="10.00">run_signalp</text>
<text text-anchor="middle" x="684.88" y="-728.75" font-family="sans" font-size="10.00">i: 010</text>
</g>
<!-- 32&#45;&gt;22 -->
<g id="edge40" class="edge">
<title>32&#45;&gt;22</title>
<path fill="none" stroke="grey" stroke-width="2" d="M684.88,-719.16C684.88,-712.64 684.88,-705.08 684.88,-697.77"/>
<polygon fill="grey" stroke="grey" stroke-width="2" points="688.38,-697.81 684.88,-687.81 681.38,-697.81 688.38,-697.81"/>
</g>
<!-- 33 -->
<g id="node34" class="node">
<title>33</title>
<path fill="none" stroke="#d86656" stroke-width="2" stroke-dasharray="5,2" d="M794.5,-756.5C794.5,-756.5 749.25,-756.5 749.25,-756.5 743.25,-756.5 737.25,-750.5 737.25,-744.5 737.25,-744.5 737.25,-732 737.25,-732 737.25,-726 743.25,-720 749.25,-720 749.25,-720 794.5,-720 794.5,-720 800.5,-720 806.5,-726 806.5,-732 806.5,-732 806.5,-744.5 806.5,-744.5 806.5,-750.5 800.5,-756.5 794.5,-756.5"/>
<text text-anchor="middle" x="771.88" y="-743" font-family="sans" font-size="10.00">run_signalp</text>
<text text-anchor="middle" x="771.88" y="-728.75" font-family="sans" font-size="10.00">i: 007</text>
</g>
<!-- 33&#45;&gt;22 -->
<g id="edge41" class="edge">
<title>33&#45;&gt;22</title>
<path fill="none" stroke="grey" stroke-width="2" d="M749.47,-719.16C739.55,-711.15 727.7,-701.58 716.87,-692.84"/>
<polygon fill="grey" stroke="grey" stroke-width="2" points="719.24,-690.25 709.26,-686.69 714.84,-695.69 719.24,-690.25"/>
</g>
<!-- 34 -->
<g id="node35" class="node">
<title>34</title>
<path fill="none" stroke="#d86656" stroke-width="2" stroke-dasharray="5,2" d="M881.5,-756.5C881.5,-756.5 836.25,-756.5 836.25,-756.5 830.25,-756.5 824.25,-750.5 824.25,-744.5 824.25,-744.5 824.25,-732 824.25,-732 824.25,-726 830.25,-720 836.25,-720 836.25,-720 881.5,-720 881.5,-720 887.5,-720 893.5,-726 893.5,-732 893.5,-732 893.5,-744.5 893.5,-744.5 893.5,-750.5 887.5,-756.5 881.5,-756.5"/>
<text text-anchor="middle" x="858.88" y="-743" font-family="sans" font-size="10.00">run_signalp</text>
<text text-anchor="middle" x="858.88" y="-728.75" font-family="sans" font-size="10.00">i: 003</text>
</g>
<!-- 34&#45;&gt;22 -->
<g id="edge42" class="edge">
<title>34&#45;&gt;22</title>
<path fill="none" stroke="grey" stroke-width="2" d="M823.66,-723.03C800.07,-713.51 768.48,-700.76 741.4,-689.82"/>
<polygon fill="grey" stroke="grey" stroke-width="2" points="742.71,-686.58 732.13,-686.08 740.09,-693.07 742.71,-686.58"/>
</g>
<!-- 35 -->
<g id="node36" class="node">
<title>35</title>
<path fill="none" stroke="#d86656" stroke-width="2" stroke-dasharray="5,2" d="M968.5,-756.5C968.5,-756.5 923.25,-756.5 923.25,-756.5 917.25,-756.5 911.25,-750.5 911.25,-744.5 911.25,-744.5 911.25,-732 911.25,-732 911.25,-726 917.25,-720 923.25,-720 923.25,-720 968.5,-720 968.5,-720 974.5,-720 980.5,-726 980.5,-732 980.5,-732 980.5,-744.5 980.5,-744.5 980.5,-750.5 974.5,-756.5 968.5,-756.5"/>
<text text-anchor="middle" x="945.88" y="-743" font-family="sans" font-size="10.00">run_signalp</text>
<text text-anchor="middle" x="945.88" y="-728.75" font-family="sans" font-size="10.00">i: 001</text>
</g>
<!-- 35&#45;&gt;22 -->
<g id="edge43" class="edge">
<title>35&#45;&gt;22</title>
<path fill="none" stroke="grey" stroke-width="2" d="M910.35,-722.54C907.84,-721.64 905.33,-720.79 902.88,-720 854.53,-704.51 798.91,-691.06 755.95,-681.58"/>
<polygon fill="grey" stroke="grey" stroke-width="2" points="756.81,-678.19 746.29,-679.48 755.32,-685.03 756.81,-678.19"/>
</g>
<!-- 36 -->
<g id="node37" class="node">
<title>36</title>
<path fill="none" stroke="#d86656" stroke-width="2" stroke-dasharray="5,2" d="M1055.5,-756.5C1055.5,-756.5 1010.25,-756.5 1010.25,-756.5 1004.25,-756.5 998.25,-750.5 998.25,-744.5 998.25,-744.5 998.25,-732 998.25,-732 998.25,-726 1004.25,-720 1010.25,-720 1010.25,-720 1055.5,-720 1055.5,-720 1061.5,-720 1067.5,-726 1067.5,-732 1067.5,-732 1067.5,-744.5 1067.5,-744.5 1067.5,-750.5 1061.5,-756.5 1055.5,-756.5"/>
<text text-anchor="middle" x="1032.88" y="-743" font-family="sans" font-size="10.00">run_signalp</text>
<text text-anchor="middle" x="1032.88" y="-728.75" font-family="sans" font-size="10.00">i: 006</text>
</g>
<!-- 36&#45;&gt;22 -->
<g id="edge44" class="edge">
<title>36&#45;&gt;22</title>
<path fill="none" stroke="grey" stroke-width="2" d="M997.41,-722.36C994.88,-721.5 992.35,-720.7 989.88,-720 911.44,-697.72 818.86,-683.23 756.44,-675.13"/>
<polygon fill="grey" stroke="grey" stroke-width="2" points="756.96,-671.67 746.6,-673.88 756.07,-678.61 756.96,-671.67"/>
</g>
</g>
</svg>
