<?xml version="1.0" encoding="UTF-8" standalone="no"?>
<!DOCTYPE svg PUBLIC "-//W3C//DTD SVG 1.1//EN"
 "http://www.w3.org/Graphics/SVG/1.1/DTD/svg11.dtd">
<!-- Generated by graphviz version 8.1.0 (0)
 -->
<!-- Title: snakemake_dag Pages: 1 -->
<svg width="440pt" height="1197pt"
 viewBox="0.00 0.00 439.62 1196.50" xmlns="http://www.w3.org/2000/svg" xmlns:xlink="http://www.w3.org/1999/xlink">
<g id="graph0" class="graph" transform="scale(1 1) rotate(0) translate(4 1192.5)">
<title>snakemake_dag</title>
<polygon fill="white" stroke="none" points="-4,4 -4,-1192.5 435.62,-1192.5 435.62,4 -4,4"/>
<!-- 0 -->
<g id="node1" class="node">
<title>0</title>
<path fill="none" stroke="#78d856" stroke-width="2" d="M210.38,-36C210.38,-36 180.38,-36 180.38,-36 174.38,-36 168.38,-30 168.38,-24 168.38,-24 168.38,-12 168.38,-12 168.38,-6 174.38,0 180.38,0 180.38,0 210.38,0 210.38,0 216.38,0 222.38,-6 222.38,-12 222.38,-12 222.38,-24 222.38,-24 222.38,-30 216.38,-36 210.38,-36"/>
<text text-anchor="middle" x="195.38" y="-15.62" font-family="sans" font-size="10.00">all</text>
</g>
<!-- 1 -->
<g id="node2" class="node">
<title>1</title>
<path fill="none" stroke="#61d856" stroke-width="2" d="M224,-108C224,-108 166.75,-108 166.75,-108 160.75,-108 154.75,-102 154.75,-96 154.75,-96 154.75,-84 154.75,-84 154.75,-78 160.75,-72 166.75,-72 166.75,-72 224,-72 224,-72 230,-72 236,-78 236,-84 236,-84 236,-96 236,-96 236,-102 230,-108 224,-108"/>
<text text-anchor="middle" x="195.38" y="-87.62" font-family="sans" font-size="10.00">run_wolfpsort</text>
</g>
<!-- 1&#45;&gt;0 -->
<g id="edge1" class="edge">
<title>1&#45;&gt;0</title>
<path fill="none" stroke="grey" stroke-width="2" d="M195.38,-71.34C195.38,-64.75 195.38,-57.08 195.38,-49.67"/>
<polygon fill="grey" stroke="grey" stroke-width="2" points="198.88,-49.9 195.38,-39.9 191.88,-49.9 198.88,-49.9"/>
</g>
<!-- 2 -->
<g id="node3" class="node">
<title>2</title>
<path fill="none" stroke="#d89556" stroke-width="2" d="M248.62,-252C248.62,-252 138.12,-252 138.12,-252 132.12,-252 126.12,-246 126.12,-240 126.12,-240 126.12,-228 126.12,-228 126.12,-222 132.12,-216 138.12,-216 138.12,-216 248.62,-216 248.62,-216 254.62,-216 260.62,-222 260.62,-228 260.62,-228 260.62,-240 260.62,-240 260.62,-246 254.62,-252 248.62,-252"/>
<text text-anchor="middle" x="193.38" y="-231.62" font-family="sans" font-size="10.00">retrieve_candidate_toxins</text>
</g>
<!-- 2&#45;&gt;1 -->
<g id="edge4" class="edge">
<title>2&#45;&gt;1</title>
<path fill="none" stroke="grey" stroke-width="2" d="M193.63,-215.02C193.96,-191.54 194.54,-150.11 194.94,-121.64"/>
<polygon fill="grey" stroke="grey" stroke-width="2" points="198.48,-121.89 195.12,-111.84 191.48,-121.79 198.48,-121.89"/>
</g>
<!-- 17 -->
<g id="node18" class="node">
<title>17</title>
<path fill="none" stroke="#9fd856" stroke-width="2" d="M92.12,-180C92.12,-180 44.62,-180 44.62,-180 38.62,-180 32.62,-174 32.62,-168 32.62,-168 32.62,-156 32.62,-156 32.62,-150 38.62,-144 44.62,-144 44.62,-144 92.12,-144 92.12,-144 98.12,-144 104.12,-150 104.12,-156 104.12,-156 104.12,-168 104.12,-168 104.12,-174 98.12,-180 92.12,-180"/>
<text text-anchor="middle" x="68.38" y="-159.62" font-family="sans" font-size="10.00">run_hmmer</text>
</g>
<!-- 2&#45;&gt;17 -->
<g id="edge23" class="edge">
<title>2&#45;&gt;17</title>
<path fill="none" stroke="grey" stroke-width="2" d="M161.51,-215.15C146.23,-206.6 127.7,-196.22 111.21,-186.99"/>
<polygon fill="grey" stroke="grey" stroke-width="2" points="112.62,-183.64 102.18,-181.81 109.2,-189.75 112.62,-183.64"/>
</g>
<!-- 19 -->
<g id="node20" class="node">
<title>19</title>
<path fill="none" stroke="#56a9d8" stroke-width="2" d="M301.62,-180C301.62,-180 233.12,-180 233.12,-180 227.12,-180 221.12,-174 221.12,-168 221.12,-168 221.12,-156 221.12,-156 221.12,-150 227.12,-144 233.12,-144 233.12,-144 301.62,-144 301.62,-144 307.62,-144 313.62,-150 313.62,-156 313.62,-156 313.62,-168 313.62,-168 313.62,-174 307.62,-180 301.62,-180"/>
<text text-anchor="middle" x="267.38" y="-159.62" font-family="sans" font-size="10.00">blast_on_uniprot</text>
</g>
<!-- 2&#45;&gt;19 -->
<g id="edge25" class="edge">
<title>2&#45;&gt;19</title>
<path fill="none" stroke="grey" stroke-width="2" d="M212.05,-215.34C220.22,-207.6 230,-198.36 239.04,-189.81"/>
<polygon fill="grey" stroke="grey" stroke-width="2" points="241.59,-192.32 246.45,-182.9 236.78,-187.23 241.59,-192.32"/>
</g>
<!-- 3 -->
<g id="node4" class="node">
<title>3</title>
<path fill="none" stroke="#56d8a2" stroke-width="2" d="M284.25,-396C284.25,-396 174.5,-396 174.5,-396 168.5,-396 162.5,-390 162.5,-384 162.5,-384 162.5,-372 162.5,-372 162.5,-366 168.5,-360 174.5,-360 174.5,-360 284.25,-360 284.25,-360 290.25,-360 296.25,-366 296.25,-372 296.25,-372 296.25,-384 296.25,-384 296.25,-390 290.25,-396 284.25,-396"/>
<text text-anchor="middle" x="229.38" y="-375.62" font-family="sans" font-size="10.00">extract_non_TM_peptides</text>
</g>
<!-- 3&#45;&gt;2 -->
<g id="edge5" class="edge">
<title>3&#45;&gt;2</title>
<path fill="none" stroke="grey" stroke-width="2" d="M226.11,-359.15C222.68,-341.09 216.88,-312.43 210.38,-288 208.36,-280.44 205.92,-272.35 203.52,-264.84"/>
<polygon fill="grey" stroke="grey" stroke-width="2" points="205.93,-262.95 199.49,-254.54 199.28,-265.13 205.93,-262.95"/>
</g>
<!-- 14 -->
<g id="node15" class="node">
<title>14</title>
<path fill="none" stroke="#56d8b1" stroke-width="2" d="M189.62,-324C189.62,-324 127.12,-324 127.12,-324 121.12,-324 115.12,-318 115.12,-312 115.12,-312 115.12,-300 115.12,-300 115.12,-294 121.12,-288 127.12,-288 127.12,-288 189.62,-288 189.62,-288 195.62,-288 201.62,-294 201.62,-300 201.62,-300 201.62,-312 201.62,-312 201.62,-318 195.62,-324 189.62,-324"/>
<text text-anchor="middle" x="158.38" y="-303.62" font-family="sans" font-size="10.00">blast_on_toxins</text>
</g>
<!-- 3&#45;&gt;14 -->
<g id="edge20" class="edge">
<title>3&#45;&gt;14</title>
<path fill="none" stroke="grey" stroke-width="2" d="M211.46,-359.34C203.61,-351.6 194.24,-342.36 185.56,-333.81"/>
<polygon fill="grey" stroke="grey" stroke-width="2" points="188.11,-331.43 178.53,-326.9 183.2,-336.41 188.11,-331.43"/>
</g>
<!-- 4 -->
<g id="node5" class="node">
<title>4</title>
<path fill="none" stroke="#d86e56" stroke-width="2" d="M286.25,-468C286.25,-468 236.5,-468 236.5,-468 230.5,-468 224.5,-462 224.5,-456 224.5,-456 224.5,-444 224.5,-444 224.5,-438 230.5,-432 236.5,-432 236.5,-432 286.25,-432 286.25,-432 292.25,-432 298.25,-438 298.25,-444 298.25,-444 298.25,-456 298.25,-456 298.25,-462 292.25,-468 286.25,-468"/>
<text text-anchor="middle" x="261.38" y="-447.62" font-family="sans" font-size="10.00">run_phobius</text>
</g>
<!-- 4&#45;&gt;3 -->
<g id="edge7" class="edge">
<title>4&#45;&gt;3</title>
<path fill="none" stroke="grey" stroke-width="2" d="M253.3,-431.34C250.14,-424.43 246.43,-416.31 242.89,-408.56"/>
<polygon fill="grey" stroke="grey" stroke-width="2" points="245.9,-406.54 238.56,-398.9 239.53,-409.45 245.9,-406.54"/>
</g>
<!-- 5 -->
<g id="node6" class="node">
<title>5</title>
<path fill="none" stroke="#d8ac56" stroke-width="2" stroke-dasharray="5,2" d="M285.12,-540C285.12,-540 171.62,-540 171.62,-540 165.62,-540 159.62,-534 159.62,-528 159.62,-528 159.62,-516 159.62,-516 159.62,-510 165.62,-504 171.62,-504 171.62,-504 285.12,-504 285.12,-504 291.12,-504 297.12,-510 297.12,-516 297.12,-516 297.12,-528 297.12,-528 297.12,-534 291.12,-540 285.12,-540"/>
<text text-anchor="middle" x="228.38" y="-519.62" font-family="sans" font-size="10.00">extract_secreted_peptides</text>
</g>
<!-- 5&#45;&gt;3 -->
<g id="edge8" class="edge">
<title>5&#45;&gt;3</title>
<path fill="none" stroke="grey" stroke-width="2" d="M222.83,-503.05C219.98,-492.88 216.81,-479.85 215.38,-468 213.46,-452.12 213.31,-447.87 215.38,-432 216.34,-424.57 218.04,-416.69 219.92,-409.35"/>
<polygon fill="grey" stroke="grey" stroke-width="2" points="224.08,-409.49 223.41,-398.92 217.34,-407.61 224.08,-409.49"/>
</g>
<!-- 5&#45;&gt;4 -->
<g id="edge9" class="edge">
<title>5&#45;&gt;4</title>
<path fill="none" stroke="grey" stroke-width="2" d="M236.7,-503.34C239.96,-496.43 243.79,-488.31 247.44,-480.56"/>
<polygon fill="grey" stroke="grey" stroke-width="2" points="250.84,-481.44 251.94,-470.9 244.51,-478.45 250.84,-481.44"/>
</g>
<!-- 6 -->
<g id="node7" class="node">
<title>6</title>
<path fill="none" stroke="#d87d56" stroke-width="2" stroke-dasharray="5,2" d="M317.25,-612C317.25,-612 225.5,-612 225.5,-612 219.5,-612 213.5,-606 213.5,-600 213.5,-600 213.5,-588 213.5,-588 213.5,-582 219.5,-576 225.5,-576 225.5,-576 317.25,-576 317.25,-576 323.25,-576 329.25,-582 329.25,-588 329.25,-588 329.25,-600 329.25,-600 329.25,-606 323.25,-612 317.25,-612"/>
<text text-anchor="middle" x="271.38" y="-591.62" font-family="sans" font-size="10.00">filter_signalp_outputs</text>
</g>
<!-- 6&#45;&gt;5 -->
<g id="edge10" class="edge">
<title>6&#45;&gt;5</title>
<path fill="none" stroke="grey" stroke-width="2" d="M260.52,-575.34C256.13,-568.18 250.94,-559.73 246.02,-551.73"/>
<polygon fill="grey" stroke="grey" stroke-width="2" points="248.59,-549.59 240.37,-542.9 242.62,-553.25 248.59,-549.59"/>
</g>
<!-- 7 -->
<g id="node8" class="node">
<title>7</title>
<path fill="none" stroke="#5692d8" stroke-width="2" stroke-dasharray="5,2" d="M272.25,-756.5C272.25,-756.5 234.5,-756.5 234.5,-756.5 228.5,-756.5 222.5,-750.5 222.5,-744.5 222.5,-744.5 222.5,-732.5 222.5,-732.5 222.5,-726.5 228.5,-720.5 234.5,-720.5 234.5,-720.5 272.25,-720.5 272.25,-720.5 278.25,-720.5 284.25,-726.5 284.25,-732.5 284.25,-732.5 284.25,-744.5 284.25,-744.5 284.25,-750.5 278.25,-756.5 272.25,-756.5"/>
<text text-anchor="middle" x="253.38" y="-736.12" font-family="sans" font-size="10.00">split_fasta</text>
</g>
<!-- 22 -->
<g id="node23" class="node">
<title>22</title>
<path fill="none" stroke="#56d8c9" stroke-width="2" stroke-dasharray="5,2" d="M274,-684.5C274,-684.5 228.75,-684.5 228.75,-684.5 222.75,-684.5 216.75,-678.5 216.75,-672.5 216.75,-672.5 216.75,-660 216.75,-660 216.75,-654 222.75,-648 228.75,-648 228.75,-648 274,-648 274,-648 280,-648 286,-654 286,-660 286,-660 286,-672.5 286,-672.5 286,-678.5 280,-684.5 274,-684.5"/>
<text text-anchor="middle" x="251.38" y="-671" font-family="sans" font-size="10.00">run_signalp</text>
<text text-anchor="middle" x="251.38" y="-656.75" font-family="sans" font-size="10.00">file_id: 2</text>
</g>
<!-- 7&#45;&gt;22 -->
<g id="edge28" class="edge">
<title>7&#45;&gt;22</title>
<path fill="none" stroke="grey" stroke-width="2" d="M252.87,-719.77C252.68,-713.17 252.46,-705.46 252.25,-698.03"/>
<polygon fill="grey" stroke="grey" stroke-width="2" points="255.67,-698.11 251.89,-688.22 248.67,-698.31 255.67,-698.11"/>
</g>
<!-- 23 -->
<g id="node24" class="node">
<title>23</title>
<path fill="none" stroke="#56d8c9" stroke-width="2" stroke-dasharray="5,2" d="M361,-684.5C361,-684.5 315.75,-684.5 315.75,-684.5 309.75,-684.5 303.75,-678.5 303.75,-672.5 303.75,-672.5 303.75,-660 303.75,-660 303.75,-654 309.75,-648 315.75,-648 315.75,-648 361,-648 361,-648 367,-648 373,-654 373,-660 373,-660 373,-672.5 373,-672.5 373,-678.5 367,-684.5 361,-684.5"/>
<text text-anchor="middle" x="338.38" y="-671" font-family="sans" font-size="10.00">run_signalp</text>
<text text-anchor="middle" x="338.38" y="-656.75" font-family="sans" font-size="10.00">file_id: 1</text>
</g>
<!-- 7&#45;&gt;23 -->
<g id="edge29" class="edge">
<title>7&#45;&gt;23</title>
<path fill="none" stroke="grey" stroke-width="2" d="M274.82,-719.77C284.44,-711.83 295.98,-702.29 306.57,-693.54"/>
<polygon fill="grey" stroke="grey" stroke-width="2" points="308.86,-695.53 314.34,-686.46 304.4,-690.13 308.86,-695.53"/>
</g>
<!-- 8 -->
<g id="node9" class="node">
<title>8</title>
<path fill="none" stroke="#c6d856" stroke-width="2" stroke-dasharray="5,2" d="M281.62,-828.5C281.62,-828.5 225.12,-828.5 225.12,-828.5 219.12,-828.5 213.12,-822.5 213.12,-816.5 213.12,-816.5 213.12,-804.5 213.12,-804.5 213.12,-798.5 219.12,-792.5 225.12,-792.5 225.12,-792.5 281.62,-792.5 281.62,-792.5 287.62,-792.5 293.62,-798.5 293.62,-804.5 293.62,-804.5 293.62,-816.5 293.62,-816.5 293.62,-822.5 287.62,-828.5 281.62,-828.5"/>
<text text-anchor="middle" x="253.38" y="-808.12" font-family="sans" font-size="10.00">trim_peptides</text>
</g>
<!-- 8&#45;&gt;7 -->
<g id="edge14" class="edge">
<title>8&#45;&gt;7</title>
<path fill="none" stroke="grey" stroke-width="2" d="M253.38,-791.84C253.38,-785.25 253.38,-777.58 253.38,-770.17"/>
<polygon fill="grey" stroke="grey" stroke-width="2" points="256.88,-770.4 253.38,-760.4 249.88,-770.4 256.88,-770.4"/>
</g>
<!-- 9 -->
<g id="node10" class="node">
<title>9</title>
<path fill="none" stroke="#d85656" stroke-width="2" stroke-dasharray="5,2" d="M253.62,-900.5C253.62,-900.5 185.12,-900.5 185.12,-900.5 179.12,-900.5 173.12,-894.5 173.12,-888.5 173.12,-888.5 173.12,-876.5 173.12,-876.5 173.12,-870.5 179.12,-864.5 185.12,-864.5 185.12,-864.5 253.62,-864.5 253.62,-864.5 259.62,-864.5 265.62,-870.5 265.62,-876.5 265.62,-876.5 265.62,-888.5 265.62,-888.5 265.62,-894.5 259.62,-900.5 253.62,-900.5"/>
<text text-anchor="middle" x="219.38" y="-880.12" font-family="sans" font-size="10.00">cluster_peptides</text>
</g>
<!-- 9&#45;&gt;5 -->
<g id="edge11" class="edge">
<title>9&#45;&gt;5</title>
<path fill="none" stroke="grey" stroke-width="2" d="M212.33,-863.89C202.37,-837.37 185.38,-785.38 185.38,-739.5 185.38,-739.5 185.38,-739.5 185.38,-665.25 185.38,-624.98 201.36,-580.93 213.84,-552.68"/>
<polygon fill="grey" stroke="grey" stroke-width="2" points="217.26,-553.44 218.26,-542.89 210.9,-550.52 217.26,-553.44"/>
</g>
<!-- 9&#45;&gt;8 -->
<g id="edge15" class="edge">
<title>9&#45;&gt;8</title>
<path fill="none" stroke="grey" stroke-width="2" d="M227.95,-863.84C231.31,-856.93 235.25,-848.81 239.02,-841.06"/>
<polygon fill="grey" stroke="grey" stroke-width="2" points="242.46,-841.93 243.68,-831.4 236.16,-838.87 242.46,-841.93"/>
</g>
<!-- 10 -->
<g id="node11" class="node">
<title>10</title>
<path fill="none" stroke="#56d873" stroke-width="2" stroke-dasharray="5,2" d="M242,-972.5C242,-972.5 196.75,-972.5 196.75,-972.5 190.75,-972.5 184.75,-966.5 184.75,-960.5 184.75,-960.5 184.75,-948.5 184.75,-948.5 184.75,-942.5 190.75,-936.5 196.75,-936.5 196.75,-936.5 242,-936.5 242,-936.5 248,-936.5 254,-942.5 254,-948.5 254,-948.5 254,-960.5 254,-960.5 254,-966.5 248,-972.5 242,-972.5"/>
<text text-anchor="middle" x="219.38" y="-952.12" font-family="sans" font-size="10.00">detect_orfs</text>
</g>
<!-- 10&#45;&gt;9 -->
<g id="edge16" class="edge">
<title>10&#45;&gt;9</title>
<path fill="none" stroke="grey" stroke-width="2" d="M219.38,-935.84C219.38,-929.25 219.38,-921.58 219.38,-914.17"/>
<polygon fill="grey" stroke="grey" stroke-width="2" points="222.88,-914.4 219.38,-904.4 215.88,-914.4 222.88,-914.4"/>
</g>
<!-- 11 -->
<g id="node12" class="node">
<title>11</title>
<path fill="none" stroke="#56c1d8" stroke-width="2" stroke-dasharray="5,2" d="M260,-1044.5C260,-1044.5 178.75,-1044.5 178.75,-1044.5 172.75,-1044.5 166.75,-1038.5 166.75,-1032.5 166.75,-1032.5 166.75,-1020.5 166.75,-1020.5 166.75,-1014.5 172.75,-1008.5 178.75,-1008.5 178.75,-1008.5 260,-1008.5 260,-1008.5 266,-1008.5 272,-1014.5 272,-1020.5 272,-1020.5 272,-1032.5 272,-1032.5 272,-1038.5 266,-1044.5 260,-1044.5"/>
<text text-anchor="middle" x="219.38" y="-1024.12" font-family="sans" font-size="10.00">filter_contaminants</text>
</g>
<!-- 11&#45;&gt;10 -->
<g id="edge17" class="edge">
<title>11&#45;&gt;10</title>
<path fill="none" stroke="grey" stroke-width="2" d="M219.38,-1007.84C219.38,-1001.25 219.38,-993.58 219.38,-986.17"/>
<polygon fill="grey" stroke="grey" stroke-width="2" points="222.88,-986.4 219.38,-976.4 215.88,-986.4 222.88,-986.4"/>
</g>
<!-- 12 -->
<g id="node13" class="node">
<title>12</title>
<path fill="none" stroke="#b6d856" stroke-width="2" stroke-dasharray="5,2" d="M267.88,-1116.5C267.88,-1116.5 170.88,-1116.5 170.88,-1116.5 164.88,-1116.5 158.88,-1110.5 158.88,-1104.5 158.88,-1104.5 158.88,-1092.5 158.88,-1092.5 158.88,-1086.5 164.88,-1080.5 170.88,-1080.5 170.88,-1080.5 267.88,-1080.5 267.88,-1080.5 273.88,-1080.5 279.88,-1086.5 279.88,-1092.5 279.88,-1092.5 279.88,-1104.5 279.88,-1104.5 279.88,-1110.5 273.88,-1116.5 267.88,-1116.5"/>
<text text-anchor="middle" x="219.38" y="-1096.12" font-family="sans" font-size="10.00">blast_on_contaminants</text>
</g>
<!-- 12&#45;&gt;11 -->
<g id="edge18" class="edge">
<title>12&#45;&gt;11</title>
<path fill="none" stroke="grey" stroke-width="2" d="M219.38,-1079.84C219.38,-1073.25 219.38,-1065.58 219.38,-1058.17"/>
<polygon fill="grey" stroke="grey" stroke-width="2" points="222.88,-1058.4 219.38,-1048.4 215.88,-1058.4 222.88,-1058.4"/>
</g>
<!-- 13 -->
<g id="node14" class="node">
<title>13</title>
<path fill="none" stroke="#56d88a" stroke-width="2" stroke-dasharray="5,2" d="M283.25,-1188.5C283.25,-1188.5 155.5,-1188.5 155.5,-1188.5 149.5,-1188.5 143.5,-1182.5 143.5,-1176.5 143.5,-1176.5 143.5,-1164.5 143.5,-1164.5 143.5,-1158.5 149.5,-1152.5 155.5,-1152.5 155.5,-1152.5 283.25,-1152.5 283.25,-1152.5 289.25,-1152.5 295.25,-1158.5 295.25,-1164.5 295.25,-1164.5 295.25,-1176.5 295.25,-1176.5 295.25,-1182.5 289.25,-1188.5 283.25,-1188.5"/>
<text text-anchor="middle" x="219.38" y="-1168.12" font-family="sans" font-size="10.00">build_contaminants_database</text>
</g>
<!-- 13&#45;&gt;12 -->
<g id="edge19" class="edge">
<title>13&#45;&gt;12</title>
<path fill="none" stroke="grey" stroke-width="2" d="M219.38,-1151.84C219.38,-1145.25 219.38,-1137.58 219.38,-1130.17"/>
<polygon fill="grey" stroke="grey" stroke-width="2" points="222.88,-1130.4 219.38,-1120.4 215.88,-1130.4 222.88,-1130.4"/>
</g>
<!-- 14&#45;&gt;2 -->
<g id="edge6" class="edge">
<title>14&#45;&gt;2</title>
<path fill="none" stroke="grey" stroke-width="2" d="M167.21,-287.34C170.7,-280.34 174.82,-272.12 178.73,-264.28"/>
<polygon fill="grey" stroke="grey" stroke-width="2" points="182.08,-265.41 183.42,-254.9 175.82,-262.28 182.08,-265.41"/>
</g>
<!-- 15 -->
<g id="node16" class="node">
<title>15</title>
<path fill="none" stroke="#5682d8" stroke-width="2" d="M132.88,-396C132.88,-396 47.88,-396 47.88,-396 41.88,-396 35.88,-390 35.88,-384 35.88,-384 35.88,-372 35.88,-372 35.88,-366 41.88,-360 47.88,-360 47.88,-360 132.88,-360 132.88,-360 138.88,-360 144.88,-366 144.88,-372 144.88,-372 144.88,-384 144.88,-384 144.88,-390 138.88,-396 132.88,-396"/>
<text text-anchor="middle" x="90.38" y="-375.62" font-family="sans" font-size="10.00">build_toxin_blast_db</text>
</g>
<!-- 15&#45;&gt;14 -->
<g id="edge21" class="edge">
<title>15&#45;&gt;14</title>
<path fill="none" stroke="grey" stroke-width="2" d="M107.53,-359.34C114.97,-351.69 123.84,-342.56 132.07,-334.08"/>
<polygon fill="grey" stroke="grey" stroke-width="2" points="134.53,-336.51 138.98,-326.9 129.51,-331.64 134.53,-336.51"/>
</g>
<!-- 16 -->
<g id="node17" class="node">
<title>16</title>
<path fill="none" stroke="#88d856" stroke-width="2" d="M124.75,-108C124.75,-108 12,-108 12,-108 6,-108 0,-102 0,-96 0,-96 0,-84 0,-84 0,-78 6,-72 12,-72 12,-72 124.75,-72 124.75,-72 130.75,-72 136.75,-78 136.75,-84 136.75,-84 136.75,-96 136.75,-96 136.75,-102 130.75,-108 124.75,-108"/>
<text text-anchor="middle" x="68.38" y="-87.62" font-family="sans" font-size="10.00">parse_hmmsearch_output</text>
</g>
<!-- 16&#45;&gt;0 -->
<g id="edge2" class="edge">
<title>16&#45;&gt;0</title>
<path fill="none" stroke="grey" stroke-width="2" d="M100.75,-71.15C117.75,-61.78 138.71,-50.23 156.57,-40.39"/>
<polygon fill="grey" stroke="grey" stroke-width="2" points="158.72,-43.1 165.79,-35.2 155.34,-36.97 158.72,-43.1"/>
</g>
<!-- 17&#45;&gt;16 -->
<g id="edge22" class="edge">
<title>17&#45;&gt;16</title>
<path fill="none" stroke="grey" stroke-width="2" d="M68.38,-143.34C68.38,-136.75 68.38,-129.08 68.38,-121.67"/>
<polygon fill="grey" stroke="grey" stroke-width="2" points="71.88,-121.9 68.38,-111.9 64.88,-121.9 71.88,-121.9"/>
</g>
<!-- 18 -->
<g id="node19" class="node">
<title>18</title>
<path fill="none" stroke="#56d0d8" stroke-width="2" stroke-dasharray="5,2" d="M96.12,-252C96.12,-252 30.62,-252 30.62,-252 24.62,-252 18.62,-246 18.62,-240 18.62,-240 18.62,-228 18.62,-228 18.62,-222 24.62,-216 30.62,-216 30.62,-216 96.12,-216 96.12,-216 102.12,-216 108.12,-222 108.12,-228 108.12,-228 108.12,-240 108.12,-240 108.12,-246 102.12,-252 96.12,-252"/>
<text text-anchor="middle" x="63.38" y="-231.62" font-family="sans" font-size="10.00">download_pfam</text>
</g>
<!-- 18&#45;&gt;17 -->
<g id="edge24" class="edge">
<title>18&#45;&gt;17</title>
<path fill="none" stroke="grey" stroke-width="2" d="M64.64,-215.34C65.11,-208.75 65.66,-201.08 66.18,-193.67"/>
<polygon fill="grey" stroke="grey" stroke-width="2" points="69.87,-194.13 67.1,-183.9 62.89,-193.63 69.87,-194.13"/>
</g>
<!-- 19&#45;&gt;0 -->
<g id="edge3" class="edge">
<title>19&#45;&gt;0</title>
<path fill="none" stroke="grey" stroke-width="2" d="M265.69,-143.31C263.32,-124.63 257.8,-94.78 245.38,-72 240.31,-62.71 233.21,-53.83 225.95,-46.08"/>
<polygon fill="grey" stroke="grey" stroke-width="2" points="228.36,-43.54 218.81,-38.94 223.41,-48.48 228.36,-43.54"/>
</g>
<!-- 20 -->
<g id="node21" class="node">
<title>20</title>
<path fill="none" stroke="#56d863" stroke-width="2" d="M419.62,-252C419.62,-252 291.12,-252 291.12,-252 285.12,-252 279.12,-246 279.12,-240 279.12,-240 279.12,-228 279.12,-228 279.12,-222 285.12,-216 291.12,-216 291.12,-216 419.62,-216 419.62,-216 425.62,-216 431.62,-222 431.62,-228 431.62,-228 431.62,-240 431.62,-240 431.62,-246 425.62,-252 419.62,-252"/>
<text text-anchor="middle" x="355.38" y="-231.62" font-family="sans" font-size="10.00">make_uniprot_blast_database</text>
</g>
<!-- 20&#45;&gt;19 -->
<g id="edge26" class="edge">
<title>20&#45;&gt;19</title>
<path fill="none" stroke="grey" stroke-width="2" d="M333.17,-215.34C323.14,-207.36 311.08,-197.77 300.05,-188.99"/>
<polygon fill="grey" stroke="grey" stroke-width="2" points="301.88,-185.39 291.88,-181.9 297.53,-190.87 301.88,-185.39"/>
</g>
<!-- 21 -->
<g id="node22" class="node">
<title>21</title>
<path fill="none" stroke="#d8bc56" stroke-width="2" d="M393,-324C393,-324 317.75,-324 317.75,-324 311.75,-324 305.75,-318 305.75,-312 305.75,-312 305.75,-300 305.75,-300 305.75,-294 311.75,-288 317.75,-288 317.75,-288 393,-288 393,-288 399,-288 405,-294 405,-300 405,-300 405,-312 405,-312 405,-318 399,-324 393,-324"/>
<text text-anchor="middle" x="355.38" y="-303.62" font-family="sans" font-size="10.00">download_uniprot</text>
</g>
<!-- 21&#45;&gt;20 -->
<g id="edge27" class="edge">
<title>21&#45;&gt;20</title>
<path fill="none" stroke="grey" stroke-width="2" d="M355.38,-287.34C355.38,-280.75 355.38,-273.08 355.38,-265.67"/>
<polygon fill="grey" stroke="grey" stroke-width="2" points="358.88,-265.9 355.38,-255.9 351.88,-265.9 358.88,-265.9"/>
</g>
<!-- 22&#45;&gt;6 -->
<g id="edge12" class="edge">
<title>22&#45;&gt;6</title>
<path fill="none" stroke="grey" stroke-width="2" d="M256.53,-647.16C258.43,-640.47 260.64,-632.69 262.77,-625.22"/>
<polygon fill="grey" stroke="grey" stroke-width="2" points="266.94,-625.36 266.31,-614.79 260.21,-623.45 266.94,-625.36"/>
</g>
<!-- 23&#45;&gt;6 -->
<g id="edge13" class="edge">
<title>23&#45;&gt;6</title>
<path fill="none" stroke="grey" stroke-width="2" d="M321.12,-647.16C313.8,-639.48 305.1,-630.37 297.05,-621.92"/>
<polygon fill="grey" stroke="grey" stroke-width="2" points="299.77,-619.61 290.34,-614.79 294.71,-624.44 299.77,-619.61"/>
</g>
</g>
</svg>
