<?xml version="1.0" encoding="UTF-8" standalone="no"?>
<!DOCTYPE svg PUBLIC "-//W3C//DTD SVG 1.1//EN"
 "http://www.w3.org/Graphics/SVG/1.1/DTD/svg11.dtd">
<!-- Generated by graphviz version 9.0.0 (0)
 -->
<!-- Title: snakemake_dag Pages: 1 -->
<svg width="586pt" height="1196pt"
 viewBox="0.00 0.00 585.50 1196.00" xmlns="http://www.w3.org/2000/svg" xmlns:xlink="http://www.w3.org/1999/xlink">
<g id="graph0" class="graph" transform="scale(1 1) rotate(0) translate(4 1192)">
<title>snakemake_dag</title>
<polygon fill="white" stroke="none" points="-4,4 -4,-1192 581.5,-1192 581.5,4 -4,4"/>
<!-- 0 -->
<g id="node1" class="node">
<title>0</title>
<path fill="none" stroke="#c6d856" stroke-width="2" d="M343.75,-36C343.75,-36 313.75,-36 313.75,-36 307.75,-36 301.75,-30 301.75,-24 301.75,-24 301.75,-12 301.75,-12 301.75,-6 307.75,0 313.75,0 313.75,0 343.75,0 343.75,0 349.75,0 355.75,-6 355.75,-12 355.75,-12 355.75,-24 355.75,-24 355.75,-30 349.75,-36 343.75,-36"/>
<text text-anchor="middle" x="328.75" y="-15.62" font-family="sans" font-size="10.00">all</text>
</g>
<!-- 1 -->
<g id="node2" class="node">
<title>1</title>
<path fill="none" stroke="#d87d56" stroke-width="2" d="M367.88,-108C367.88,-108 289.62,-108 289.62,-108 283.62,-108 277.62,-102 277.62,-96 277.62,-96 277.62,-84 277.62,-84 277.62,-78 283.62,-72 289.62,-72 289.62,-72 367.88,-72 367.88,-72 373.88,-72 379.88,-78 379.88,-84 379.88,-84 379.88,-96 379.88,-96 379.88,-102 373.88,-108 367.88,-108"/>
<text text-anchor="middle" x="328.75" y="-87.62" font-family="sans" font-size="10.00">build_output_table</text>
</g>
<!-- 1&#45;&gt;0 -->
<g id="edge1" class="edge">
<title>1&#45;&gt;0</title>
<path fill="none" stroke="grey" stroke-width="2" d="M328.75,-71.34C328.75,-64.75 328.75,-57.08 328.75,-49.67"/>
<polygon fill="grey" stroke="grey" stroke-width="2" points="332.25,-49.93 328.75,-39.93 325.25,-49.93 332.25,-49.93"/>
</g>
<!-- 2 -->
<g id="node3" class="node">
<title>2</title>
<path fill="none" stroke="#b6d856" stroke-width="2" d="M565.5,-252C565.5,-252 482,-252 482,-252 476,-252 470,-246 470,-240 470,-240 470,-228 470,-228 470,-222 476,-216 482,-216 482,-216 565.5,-216 565.5,-216 571.5,-216 577.5,-222 577.5,-228 577.5,-228 577.5,-240 577.5,-240 577.5,-246 571.5,-252 565.5,-252"/>
<text text-anchor="middle" x="523.75" y="-231.62" font-family="sans" font-size="10.00">extract_Cys_pattern</text>
</g>
<!-- 2&#45;&gt;1 -->
<g id="edge2" class="edge">
<title>2&#45;&gt;1</title>
<path fill="none" stroke="grey" stroke-width="2" d="M532.15,-215.3C540.06,-195.76 548.52,-164.39 532.75,-144 515.69,-121.94 446.62,-107.36 393.52,-99.17"/>
<polygon fill="grey" stroke="grey" stroke-width="2" points="394.15,-95.73 383.75,-97.72 393.13,-102.65 394.15,-95.73"/>
</g>
<!-- 3 -->
<g id="node4" class="node">
<title>3</title>
<path fill="none" stroke="#56d86b" stroke-width="2" d="M438,-324C438,-324 327.5,-324 327.5,-324 321.5,-324 315.5,-318 315.5,-312 315.5,-312 315.5,-300 315.5,-300 315.5,-294 321.5,-288 327.5,-288 327.5,-288 438,-288 438,-288 444,-288 450,-294 450,-300 450,-300 450,-312 450,-312 450,-318 444,-324 438,-324"/>
<text text-anchor="middle" x="382.75" y="-303.62" font-family="sans" font-size="10.00">retrieve_candidate_toxins</text>
</g>
<!-- 3&#45;&gt;2 -->
<g id="edge8" class="edge">
<title>3&#45;&gt;2</title>
<path fill="none" stroke="grey" stroke-width="2" d="M418.7,-287.15C436.18,-278.47 457.43,-267.92 476.23,-258.59"/>
<polygon fill="grey" stroke="grey" stroke-width="2" points="477.76,-261.74 485.16,-254.16 474.65,-255.47 477.76,-261.74"/>
</g>
<!-- 16 -->
<g id="node17" class="node">
<title>16</title>
<path fill="none" stroke="#56a2d8" stroke-width="2" d="M511.38,-180C511.38,-180 454.12,-180 454.12,-180 448.12,-180 442.12,-174 442.12,-168 442.12,-168 442.12,-156 442.12,-156 442.12,-150 448.12,-144 454.12,-144 454.12,-144 511.38,-144 511.38,-144 517.38,-144 523.38,-150 523.38,-156 523.38,-156 523.38,-168 523.38,-168 523.38,-174 517.38,-180 511.38,-180"/>
<text text-anchor="middle" x="482.75" y="-159.62" font-family="sans" font-size="10.00">run_wolfpsort</text>
</g>
<!-- 3&#45;&gt;16 -->
<g id="edge25" class="edge">
<title>3&#45;&gt;16</title>
<path fill="none" stroke="grey" stroke-width="2" d="M395.42,-287.02C412.4,-262.9 442.73,-219.83 462.79,-191.34"/>
<polygon fill="grey" stroke="grey" stroke-width="2" points="465.55,-193.5 468.44,-183.31 459.83,-189.47 465.55,-193.5"/>
</g>
<!-- 18 -->
<g id="node19" class="node">
<title>18</title>
<path fill="none" stroke="#68d856" stroke-width="2" d="M137.5,-252C137.5,-252 90,-252 90,-252 84,-252 78,-246 78,-240 78,-240 78,-228 78,-228 78,-222 84,-216 90,-216 90,-216 137.5,-216 137.5,-216 143.5,-216 149.5,-222 149.5,-228 149.5,-228 149.5,-240 149.5,-240 149.5,-246 143.5,-252 137.5,-252"/>
<text text-anchor="middle" x="113.75" y="-231.62" font-family="sans" font-size="10.00">run_hmmer</text>
</g>
<!-- 3&#45;&gt;18 -->
<g id="edge27" class="edge">
<title>3&#45;&gt;18</title>
<path fill="none" stroke="grey" stroke-width="2" d="M314.51,-291.25C272.87,-282.31 218.4,-269.65 162.72,-253.03"/>
<polygon fill="grey" stroke="grey" stroke-width="2" points="163.94,-249.74 153.35,-250.19 161.9,-256.44 163.94,-249.74"/>
</g>
<!-- 20 -->
<g id="node21" class="node">
<title>20</title>
<path fill="none" stroke="#567bd8" stroke-width="2" d="M248,-252C248,-252 179.5,-252 179.5,-252 173.5,-252 167.5,-246 167.5,-240 167.5,-240 167.5,-228 167.5,-228 167.5,-222 173.5,-216 179.5,-216 179.5,-216 248,-216 248,-216 254,-216 260,-222 260,-228 260,-228 260,-240 260,-240 260,-246 254,-252 248,-252"/>
<text text-anchor="middle" x="213.75" y="-231.62" font-family="sans" font-size="10.00">blast_on_uniprot</text>
</g>
<!-- 3&#45;&gt;20 -->
<g id="edge29" class="edge">
<title>3&#45;&gt;20</title>
<path fill="none" stroke="grey" stroke-width="2" d="M339.67,-287.15C318.2,-278.26 291.99,-267.41 269.05,-257.91"/>
<polygon fill="grey" stroke="grey" stroke-width="2" points="270.42,-254.69 259.84,-254.09 267.74,-261.15 270.42,-254.69"/>
</g>
<!-- 23 -->
<g id="node24" class="node">
<title>23</title>
<path fill="none" stroke="#d8b456" stroke-width="2" d="M411.88,-180C411.88,-180 327.62,-180 327.62,-180 321.62,-180 315.62,-174 315.62,-168 315.62,-168 315.62,-156 315.62,-156 315.62,-150 321.62,-144 327.62,-144 327.62,-144 411.88,-144 411.88,-144 417.88,-144 423.88,-150 423.88,-156 423.88,-156 423.88,-168 423.88,-168 423.88,-174 417.88,-180 411.88,-180"/>
<text text-anchor="middle" x="369.75" y="-159.62" font-family="sans" font-size="10.00">detect_repeated_aa</text>
</g>
<!-- 3&#45;&gt;23 -->
<g id="edge32" class="edge">
<title>3&#45;&gt;23</title>
<path fill="none" stroke="grey" stroke-width="2" d="M381.1,-287.02C378.95,-263.54 375.16,-222.11 372.55,-193.64"/>
<polygon fill="grey" stroke="grey" stroke-width="2" points="376.06,-193.49 371.66,-183.85 369.09,-194.13 376.06,-193.49"/>
</g>
<!-- 4 -->
<g id="node5" class="node">
<title>4</title>
<path fill="none" stroke="#d85656" stroke-width="2" d="M437.62,-468C437.62,-468 327.88,-468 327.88,-468 321.88,-468 315.88,-462 315.88,-456 315.88,-456 315.88,-444 315.88,-444 315.88,-438 321.88,-432 327.88,-432 327.88,-432 437.62,-432 437.62,-432 443.62,-432 449.62,-438 449.62,-444 449.62,-444 449.62,-456 449.62,-456 449.62,-462 443.62,-468 437.62,-468"/>
<text text-anchor="middle" x="382.75" y="-447.62" font-family="sans" font-size="10.00">extract_non_TM_peptides</text>
</g>
<!-- 4&#45;&gt;3 -->
<g id="edge10" class="edge">
<title>4&#45;&gt;3</title>
<path fill="none" stroke="grey" stroke-width="2" d="M382.75,-431.02C382.75,-407.54 382.75,-366.11 382.75,-337.64"/>
<polygon fill="grey" stroke="grey" stroke-width="2" points="386.25,-337.87 382.75,-327.87 379.25,-337.87 386.25,-337.87"/>
</g>
<!-- 14 -->
<g id="node15" class="node">
<title>14</title>
<path fill="none" stroke="#56d87b" stroke-width="2" d="M334,-396C334,-396 271.5,-396 271.5,-396 265.5,-396 259.5,-390 259.5,-384 259.5,-384 259.5,-372 259.5,-372 259.5,-366 265.5,-360 271.5,-360 271.5,-360 334,-360 334,-360 340,-360 346,-366 346,-372 346,-372 346,-384 346,-384 346,-390 340,-396 334,-396"/>
<text text-anchor="middle" x="302.75" y="-375.62" font-family="sans" font-size="10.00">blast_on_toxins</text>
</g>
<!-- 4&#45;&gt;14 -->
<g id="edge23" class="edge">
<title>4&#45;&gt;14</title>
<path fill="none" stroke="grey" stroke-width="2" d="M362.56,-431.34C353.54,-423.44 342.71,-413.96 332.76,-405.26"/>
<polygon fill="grey" stroke="grey" stroke-width="2" points="335.32,-402.85 325.49,-398.9 330.71,-408.11 335.32,-402.85"/>
</g>
<!-- 5 -->
<g id="node6" class="node">
<title>5</title>
<path fill="none" stroke="#568ad8" stroke-width="2" d="M467.62,-540C467.62,-540 417.88,-540 417.88,-540 411.88,-540 405.88,-534 405.88,-528 405.88,-528 405.88,-516 405.88,-516 405.88,-510 411.88,-504 417.88,-504 417.88,-504 467.62,-504 467.62,-504 473.62,-504 479.62,-510 479.62,-516 479.62,-516 479.62,-528 479.62,-528 479.62,-534 473.62,-540 467.62,-540"/>
<text text-anchor="middle" x="442.75" y="-519.62" font-family="sans" font-size="10.00">run_phobius</text>
</g>
<!-- 5&#45;&gt;4 -->
<g id="edge12" class="edge">
<title>5&#45;&gt;4</title>
<path fill="none" stroke="grey" stroke-width="2" d="M427.61,-503.34C421.19,-495.85 413.56,-486.95 406.43,-478.63"/>
<polygon fill="grey" stroke="grey" stroke-width="2" points="409.23,-476.51 400.06,-471.2 403.91,-481.07 409.23,-476.51"/>
</g>
<!-- 6 -->
<g id="node7" class="node">
<title>6</title>
<path fill="none" stroke="#56c9d8" stroke-width="2" d="M483.5,-612C483.5,-612 370,-612 370,-612 364,-612 358,-606 358,-600 358,-600 358,-588 358,-588 358,-582 364,-576 370,-576 370,-576 483.5,-576 483.5,-576 489.5,-576 495.5,-582 495.5,-588 495.5,-588 495.5,-600 495.5,-600 495.5,-606 489.5,-612 483.5,-612"/>
<text text-anchor="middle" x="426.75" y="-591.62" font-family="sans" font-size="10.00">extract_secreted_peptides</text>
</g>
<!-- 6&#45;&gt;4 -->
<g id="edge13" class="edge">
<title>6&#45;&gt;4</title>
<path fill="none" stroke="grey" stroke-width="2" d="M414.49,-575.13C408.24,-565.2 401.07,-552.38 396.75,-540 390.21,-521.24 386.71,-499.18 384.85,-481.72"/>
<polygon fill="grey" stroke="grey" stroke-width="2" points="388.34,-481.51 383.95,-471.86 381.37,-482.14 388.34,-481.51"/>
</g>
<!-- 6&#45;&gt;5 -->
<g id="edge14" class="edge">
<title>6&#45;&gt;5</title>
<path fill="none" stroke="grey" stroke-width="2" d="M430.79,-575.34C432.31,-568.67 434.09,-560.89 435.8,-553.39"/>
<polygon fill="grey" stroke="grey" stroke-width="2" points="439.17,-554.38 437.98,-543.85 432.34,-552.82 439.17,-554.38"/>
</g>
<!-- 7 -->
<g id="node8" class="node">
<title>7</title>
<path fill="none" stroke="#56d8b1" stroke-width="2" d="M526.62,-756C526.62,-756 488.88,-756 488.88,-756 482.88,-756 476.88,-750 476.88,-744 476.88,-744 476.88,-732 476.88,-732 476.88,-726 482.88,-720 488.88,-720 488.88,-720 526.62,-720 526.62,-720 532.62,-720 538.62,-726 538.62,-732 538.62,-732 538.62,-744 538.62,-744 538.62,-750 532.62,-756 526.62,-756"/>
<text text-anchor="middle" x="507.75" y="-735.62" font-family="sans" font-size="10.00">split_fasta</text>
</g>
<!-- 24 -->
<g id="node25" class="node">
<title>24</title>
<path fill="none" stroke="#56d8c9" stroke-width="2" d="M558.62,-684C558.62,-684 466.88,-684 466.88,-684 460.88,-684 454.88,-678 454.88,-672 454.88,-672 454.88,-660 454.88,-660 454.88,-654 460.88,-648 466.88,-648 466.88,-648 558.62,-648 558.62,-648 564.62,-648 570.62,-654 570.62,-660 570.62,-660 570.62,-672 570.62,-672 570.62,-678 564.62,-684 558.62,-684"/>
<text text-anchor="middle" x="512.75" y="-663.62" font-family="sans" font-size="10.00">filter_signalp_outputs</text>
</g>
<!-- 7&#45;&gt;24 -->
<g id="edge33" class="edge">
<title>7&#45;&gt;24</title>
<path fill="none" stroke="grey" stroke-width="2" d="M509.01,-719.34C509.48,-712.75 510.03,-705.08 510.56,-697.67"/>
<polygon fill="grey" stroke="grey" stroke-width="2" points="514.03,-698.15 511.26,-687.92 507.05,-697.65 514.03,-698.15"/>
</g>
<!-- 8 -->
<g id="node9" class="node">
<title>8</title>
<path fill="none" stroke="#d8a456" stroke-width="2" d="M532,-828C532,-828 475.5,-828 475.5,-828 469.5,-828 463.5,-822 463.5,-816 463.5,-816 463.5,-804 463.5,-804 463.5,-798 469.5,-792 475.5,-792 475.5,-792 532,-792 532,-792 538,-792 544,-798 544,-804 544,-804 544,-816 544,-816 544,-822 538,-828 532,-828"/>
<text text-anchor="middle" x="503.75" y="-807.62" font-family="sans" font-size="10.00">trim_peptides</text>
</g>
<!-- 8&#45;&gt;7 -->
<g id="edge17" class="edge">
<title>8&#45;&gt;7</title>
<path fill="none" stroke="grey" stroke-width="2" d="M504.76,-791.34C505.14,-784.75 505.57,-777.08 506,-769.67"/>
<polygon fill="grey" stroke="grey" stroke-width="2" points="509.48,-770.11 506.55,-759.92 502.49,-769.71 509.48,-770.11"/>
</g>
<!-- 9 -->
<g id="node10" class="node">
<title>9</title>
<path fill="none" stroke="#d6d856" stroke-width="2" d="M495,-900C495,-900 426.5,-900 426.5,-900 420.5,-900 414.5,-894 414.5,-888 414.5,-888 414.5,-876 414.5,-876 414.5,-870 420.5,-864 426.5,-864 426.5,-864 495,-864 495,-864 501,-864 507,-870 507,-876 507,-876 507,-888 507,-888 507,-894 501,-900 495,-900"/>
<text text-anchor="middle" x="460.75" y="-879.62" font-family="sans" font-size="10.00">cluster_peptides</text>
</g>
<!-- 9&#45;&gt;6 -->
<g id="edge15" class="edge">
<title>9&#45;&gt;6</title>
<path fill="none" stroke="grey" stroke-width="2" d="M458.62,-863.11C452.96,-815.46 437.46,-685.05 430.37,-625.45"/>
<polygon fill="grey" stroke="grey" stroke-width="2" points="433.89,-625.41 429.23,-615.89 426.94,-626.23 433.89,-625.41"/>
</g>
<!-- 9&#45;&gt;8 -->
<g id="edge18" class="edge">
<title>9&#45;&gt;8</title>
<path fill="none" stroke="grey" stroke-width="2" d="M471.6,-863.34C476,-856.18 481.19,-847.73 486.1,-839.73"/>
<polygon fill="grey" stroke="grey" stroke-width="2" points="488.92,-841.83 491.17,-831.48 482.95,-838.17 488.92,-841.83"/>
</g>
<!-- 10 -->
<g id="node11" class="node">
<title>10</title>
<path fill="none" stroke="#d8c356" stroke-width="2" d="M483.38,-972C483.38,-972 438.12,-972 438.12,-972 432.12,-972 426.12,-966 426.12,-960 426.12,-960 426.12,-948 426.12,-948 426.12,-942 432.12,-936 438.12,-936 438.12,-936 483.38,-936 483.38,-936 489.38,-936 495.38,-942 495.38,-948 495.38,-948 495.38,-960 495.38,-960 495.38,-966 489.38,-972 483.38,-972"/>
<text text-anchor="middle" x="460.75" y="-951.62" font-family="sans" font-size="10.00">detect_orfs</text>
</g>
<!-- 10&#45;&gt;9 -->
<g id="edge19" class="edge">
<title>10&#45;&gt;9</title>
<path fill="none" stroke="grey" stroke-width="2" d="M460.75,-935.34C460.75,-928.75 460.75,-921.08 460.75,-913.67"/>
<polygon fill="grey" stroke="grey" stroke-width="2" points="464.25,-913.93 460.75,-903.93 457.25,-913.93 464.25,-913.93"/>
</g>
<!-- 11 -->
<g id="node12" class="node">
<title>11</title>
<path fill="none" stroke="#d88d56" stroke-width="2" d="M501.38,-1044C501.38,-1044 420.12,-1044 420.12,-1044 414.12,-1044 408.12,-1038 408.12,-1032 408.12,-1032 408.12,-1020 408.12,-1020 408.12,-1014 414.12,-1008 420.12,-1008 420.12,-1008 501.38,-1008 501.38,-1008 507.38,-1008 513.38,-1014 513.38,-1020 513.38,-1020 513.38,-1032 513.38,-1032 513.38,-1038 507.38,-1044 501.38,-1044"/>
<text text-anchor="middle" x="460.75" y="-1023.62" font-family="sans" font-size="10.00">filter_contaminants</text>
</g>
<!-- 11&#45;&gt;10 -->
<g id="edge20" class="edge">
<title>11&#45;&gt;10</title>
<path fill="none" stroke="grey" stroke-width="2" d="M460.75,-1007.34C460.75,-1000.75 460.75,-993.08 460.75,-985.67"/>
<polygon fill="grey" stroke="grey" stroke-width="2" points="464.25,-985.93 460.75,-975.93 457.25,-985.93 464.25,-985.93"/>
</g>
<!-- 12 -->
<g id="node13" class="node">
<title>12</title>
<path fill="none" stroke="#d86656" stroke-width="2" d="M509.25,-1116C509.25,-1116 412.25,-1116 412.25,-1116 406.25,-1116 400.25,-1110 400.25,-1104 400.25,-1104 400.25,-1092 400.25,-1092 400.25,-1086 406.25,-1080 412.25,-1080 412.25,-1080 509.25,-1080 509.25,-1080 515.25,-1080 521.25,-1086 521.25,-1092 521.25,-1092 521.25,-1104 521.25,-1104 521.25,-1110 515.25,-1116 509.25,-1116"/>
<text text-anchor="middle" x="460.75" y="-1095.62" font-family="sans" font-size="10.00">blast_on_contaminants</text>
</g>
<!-- 12&#45;&gt;11 -->
<g id="edge21" class="edge">
<title>12&#45;&gt;11</title>
<path fill="none" stroke="grey" stroke-width="2" d="M460.75,-1079.34C460.75,-1072.75 460.75,-1065.08 460.75,-1057.67"/>
<polygon fill="grey" stroke="grey" stroke-width="2" points="464.25,-1057.93 460.75,-1047.93 457.25,-1057.93 464.25,-1057.93"/>
</g>
<!-- 13 -->
<g id="node14" class="node">
<title>13</title>
<path fill="none" stroke="#56d8d8" stroke-width="2" stroke-dasharray="5,2" d="M524.62,-1188C524.62,-1188 396.88,-1188 396.88,-1188 390.88,-1188 384.88,-1182 384.88,-1176 384.88,-1176 384.88,-1164 384.88,-1164 384.88,-1158 390.88,-1152 396.88,-1152 396.88,-1152 524.62,-1152 524.62,-1152 530.62,-1152 536.62,-1158 536.62,-1164 536.62,-1164 536.62,-1176 536.62,-1176 536.62,-1182 530.62,-1188 524.62,-1188"/>
<text text-anchor="middle" x="460.75" y="-1167.62" font-family="sans" font-size="10.00">build_contaminants_database</text>
</g>
<!-- 13&#45;&gt;12 -->
<g id="edge22" class="edge">
<title>13&#45;&gt;12</title>
<path fill="none" stroke="grey" stroke-width="2" d="M460.75,-1151.34C460.75,-1144.75 460.75,-1137.08 460.75,-1129.67"/>
<polygon fill="grey" stroke="grey" stroke-width="2" points="464.25,-1129.93 460.75,-1119.93 457.25,-1129.93 464.25,-1129.93"/>
</g>
<!-- 14&#45;&gt;1 -->
<g id="edge5" class="edge">
<title>14&#45;&gt;1</title>
<path fill="none" stroke="grey" stroke-width="2" d="M300.82,-359.21C297.02,-319.89 290.34,-222.82 306.75,-144 308.39,-136.13 311.18,-127.95 314.24,-120.44"/>
<polygon fill="grey" stroke="grey" stroke-width="2" points="317.4,-121.94 318.25,-111.38 311,-119.11 317.4,-121.94"/>
</g>
<!-- 14&#45;&gt;3 -->
<g id="edge11" class="edge">
<title>14&#45;&gt;3</title>
<path fill="none" stroke="grey" stroke-width="2" d="M322.94,-359.34C331.96,-351.44 342.79,-341.96 352.74,-333.26"/>
<polygon fill="grey" stroke="grey" stroke-width="2" points="354.79,-336.11 360.01,-326.9 350.18,-330.85 354.79,-336.11"/>
</g>
<!-- 15 -->
<g id="node16" class="node">
<title>15</title>
<path fill="none" stroke="#566bd8" stroke-width="2" stroke-dasharray="5,2" d="M286.25,-468C286.25,-468 201.25,-468 201.25,-468 195.25,-468 189.25,-462 189.25,-456 189.25,-456 189.25,-444 189.25,-444 189.25,-438 195.25,-432 201.25,-432 201.25,-432 286.25,-432 286.25,-432 292.25,-432 298.25,-438 298.25,-444 298.25,-444 298.25,-456 298.25,-456 298.25,-462 292.25,-468 286.25,-468"/>
<text text-anchor="middle" x="243.75" y="-447.62" font-family="sans" font-size="10.00">build_toxin_blast_db</text>
</g>
<!-- 15&#45;&gt;14 -->
<g id="edge24" class="edge">
<title>15&#45;&gt;14</title>
<path fill="none" stroke="grey" stroke-width="2" d="M258.64,-431.34C264.95,-423.85 272.45,-414.95 279.46,-406.63"/>
<polygon fill="grey" stroke="grey" stroke-width="2" points="281.94,-409.12 285.71,-399.22 276.59,-404.61 281.94,-409.12"/>
</g>
<!-- 16&#45;&gt;1 -->
<g id="edge3" class="edge">
<title>16&#45;&gt;1</title>
<path fill="none" stroke="grey" stroke-width="2" d="M443.49,-143.15C424.2,-134.38 400.7,-123.71 380.01,-114.3"/>
<polygon fill="grey" stroke="grey" stroke-width="2" points="381.51,-111.14 370.96,-110.19 378.62,-117.51 381.51,-111.14"/>
</g>
<!-- 17 -->
<g id="node18" class="node">
<title>17</title>
<path fill="none" stroke="#56d88a" stroke-width="2" d="M180.12,-180C180.12,-180 67.37,-180 67.37,-180 61.38,-180 55.38,-174 55.38,-168 55.38,-168 55.38,-156 55.38,-156 55.38,-150 61.38,-144 67.38,-144 67.38,-144 180.12,-144 180.12,-144 186.12,-144 192.12,-150 192.12,-156 192.12,-156 192.12,-168 192.12,-168 192.12,-174 186.12,-180 180.12,-180"/>
<text text-anchor="middle" x="123.75" y="-159.62" font-family="sans" font-size="10.00">parse_hmmsearch_output</text>
</g>
<!-- 17&#45;&gt;1 -->
<g id="edge4" class="edge">
<title>17&#45;&gt;1</title>
<path fill="none" stroke="grey" stroke-width="2" d="M176.28,-143.06C203.14,-133.89 236.08,-122.64 264.45,-112.96"/>
<polygon fill="grey" stroke="grey" stroke-width="2" points="265.52,-116.29 273.85,-109.75 263.26,-109.67 265.52,-116.29"/>
</g>
<!-- 18&#45;&gt;17 -->
<g id="edge26" class="edge">
<title>18&#45;&gt;17</title>
<path fill="none" stroke="grey" stroke-width="2" d="M116.27,-215.34C117.21,-208.75 118.31,-201.08 119.37,-193.67"/>
<polygon fill="grey" stroke="grey" stroke-width="2" points="122.82,-194.29 120.76,-183.9 115.89,-193.3 122.82,-194.29"/>
</g>
<!-- 19 -->
<g id="node20" class="node">
<title>19</title>
<path fill="none" stroke="#56d8a2" stroke-width="2" stroke-dasharray="5,2" d="M77.5,-324C77.5,-324 12,-324 12,-324 6,-324 0,-318 0,-312 0,-312 0,-300 0,-300 0,-294 6,-288 12,-288 12,-288 77.5,-288 77.5,-288 83.5,-288 89.5,-294 89.5,-300 89.5,-300 89.5,-312 89.5,-312 89.5,-318 83.5,-324 77.5,-324"/>
<text text-anchor="middle" x="44.75" y="-303.62" font-family="sans" font-size="10.00">download_pfam</text>
</g>
<!-- 19&#45;&gt;18 -->
<g id="edge28" class="edge">
<title>19&#45;&gt;18</title>
<path fill="none" stroke="grey" stroke-width="2" d="M62.16,-287.34C69.7,-279.69 78.7,-270.56 87.06,-262.08"/>
<polygon fill="grey" stroke="grey" stroke-width="2" points="89.45,-264.64 93.98,-255.06 84.47,-259.72 89.45,-264.64"/>
</g>
<!-- 20&#45;&gt;1 -->
<g id="edge6" class="edge">
<title>20&#45;&gt;1</title>
<path fill="none" stroke="grey" stroke-width="2" d="M224.23,-215.16C235.47,-196.62 254.34,-167.12 273.75,-144 281.37,-134.93 290.37,-125.73 298.86,-117.6"/>
<polygon fill="grey" stroke="grey" stroke-width="2" points="301,-120.39 305.92,-111 296.22,-115.27 301,-120.39"/>
</g>
<!-- 21 -->
<g id="node22" class="node">
<title>21</title>
<path fill="none" stroke="#56b1d8" stroke-width="2" stroke-dasharray="5,2" d="M248,-324C248,-324 119.5,-324 119.5,-324 113.5,-324 107.5,-318 107.5,-312 107.5,-312 107.5,-300 107.5,-300 107.5,-294 113.5,-288 119.5,-288 119.5,-288 248,-288 248,-288 254,-288 260,-294 260,-300 260,-300 260,-312 260,-312 260,-318 254,-324 248,-324"/>
<text text-anchor="middle" x="183.75" y="-303.62" font-family="sans" font-size="10.00">make_uniprot_blast_database</text>
</g>
<!-- 21&#45;&gt;20 -->
<g id="edge30" class="edge">
<title>21&#45;&gt;20</title>
<path fill="none" stroke="grey" stroke-width="2" d="M191.32,-287.34C194.25,-280.51 197.68,-272.5 200.96,-264.83"/>
<polygon fill="grey" stroke="grey" stroke-width="2" points="204.16,-266.25 204.89,-255.68 197.73,-263.5 204.16,-266.25"/>
</g>
<!-- 22 -->
<g id="node23" class="node">
<title>22</title>
<path fill="none" stroke="#59d856" stroke-width="2" stroke-dasharray="5,2" d="M221.38,-396C221.38,-396 146.12,-396 146.12,-396 140.12,-396 134.12,-390 134.12,-384 134.12,-384 134.12,-372 134.12,-372 134.12,-366 140.12,-360 146.12,-360 146.12,-360 221.38,-360 221.38,-360 227.38,-360 233.38,-366 233.38,-372 233.38,-372 233.38,-384 233.38,-384 233.38,-390 227.38,-396 221.38,-396"/>
<text text-anchor="middle" x="183.75" y="-375.62" font-family="sans" font-size="10.00">download_uniprot</text>
</g>
<!-- 22&#45;&gt;21 -->
<g id="edge31" class="edge">
<title>22&#45;&gt;21</title>
<path fill="none" stroke="grey" stroke-width="2" d="M183.75,-359.34C183.75,-352.75 183.75,-345.08 183.75,-337.67"/>
<polygon fill="grey" stroke="grey" stroke-width="2" points="187.25,-337.93 183.75,-327.93 180.25,-337.93 187.25,-337.93"/>
</g>
<!-- 23&#45;&gt;1 -->
<g id="edge7" class="edge">
<title>23&#45;&gt;1</title>
<path fill="none" stroke="grey" stroke-width="2" d="M359.4,-143.34C355.26,-136.26 350.38,-127.92 345.74,-120"/>
<polygon fill="grey" stroke="grey" stroke-width="2" points="348.84,-118.37 340.77,-111.51 342.8,-121.91 348.84,-118.37"/>
</g>
<!-- 24&#45;&gt;2 -->
<g id="edge9" class="edge">
<title>24&#45;&gt;2</title>
<path fill="none" stroke="grey" stroke-width="2" d="M515.03,-647.1C518.25,-620.21 523.75,-567.76 523.75,-523 523.75,-523 523.75,-523 523.75,-377 523.75,-338.65 523.75,-294.48 523.75,-265.72"/>
<polygon fill="grey" stroke="grey" stroke-width="2" points="527.25,-265.96 523.75,-255.96 520.25,-265.96 527.25,-265.96"/>
</g>
<!-- 24&#45;&gt;6 -->
<g id="edge16" class="edge">
<title>24&#45;&gt;6</title>
<path fill="none" stroke="grey" stroke-width="2" d="M491.05,-647.34C481.24,-639.36 469.46,-629.77 458.68,-620.99"/>
<polygon fill="grey" stroke="grey" stroke-width="2" points="461.06,-618.41 451.09,-614.81 456.64,-623.84 461.06,-618.41"/>
</g>
</g>
</svg>
