<?xml version="1.0" encoding="UTF-8" standalone="no"?>
<!DOCTYPE svg PUBLIC "-//W3C//DTD SVG 1.1//EN"
 "http://www.w3.org/Graphics/SVG/1.1/DTD/svg11.dtd">
<!-- Generated by graphviz version 8.1.0 (0)
 -->
<!-- Title: snakemake_dag Pages: 1 -->
<svg width="354pt" height="765pt"
 viewBox="0.00 0.00 354.16 764.50" xmlns="http://www.w3.org/2000/svg" xmlns:xlink="http://www.w3.org/1999/xlink">
<g id="graph0" class="graph" transform="scale(1 1) rotate(0) translate(4 760.5)">
<title>snakemake_dag</title>
<polygon fill="white" stroke="none" points="-4,4 -4,-760.5 350.16,-760.5 350.16,4 -4,4"/>
<!-- 0 -->
<g id="node1" class="node">
<title>0</title>
<path fill="none" stroke="#d87d56" stroke-width="2" stroke-dasharray="5,2" d="M125.5,-108C125.5,-108 12,-108 12,-108 6,-108 0,-102 0,-96 0,-96 0,-84 0,-84 0,-78 6,-72 12,-72 12,-72 125.5,-72 125.5,-72 131.5,-72 137.5,-78 137.5,-84 137.5,-84 137.5,-96 137.5,-96 137.5,-102 131.5,-108 125.5,-108"/>
<text text-anchor="middle" x="68.75" y="-87.62" font-family="sans" font-size="10.00">extract_secreted_peptides</text>
</g>
<!-- 11 -->
<g id="node12" class="node">
<title>11</title>
<path fill="none" stroke="#567bd8" stroke-width="2" stroke-dasharray="5,2" d="M251.75,-36C251.75,-36 221.75,-36 221.75,-36 215.75,-36 209.75,-30 209.75,-24 209.75,-24 209.75,-12 209.75,-12 209.75,-6 215.75,0 221.75,0 221.75,0 251.75,0 251.75,0 257.75,0 263.75,-6 263.75,-12 263.75,-12 263.75,-24 263.75,-24 263.75,-30 257.75,-36 251.75,-36"/>
<text text-anchor="middle" x="236.75" y="-15.62" font-family="sans" font-size="10.00">all</text>
</g>
<!-- 0&#45;&gt;11 -->
<g id="edge13" class="edge">
<title>0&#45;&gt;11</title>
<path fill="none" stroke="grey" stroke-width="2" d="M111.58,-71.15C137.81,-60.22 171.16,-46.33 196.84,-35.63"/>
<polygon fill="grey" stroke="grey" stroke-width="2" points="198.88,-38.74 206.77,-31.66 196.19,-32.28 198.88,-38.74"/>
</g>
<!-- 1 -->
<g id="node2" class="node">
<title>1</title>
<path fill="none" stroke="#78d856" stroke-width="2" stroke-dasharray="5,2" d="M282.62,-180C282.62,-180 190.88,-180 190.88,-180 184.88,-180 178.88,-174 178.88,-168 178.88,-168 178.88,-156 178.88,-156 178.88,-150 184.88,-144 190.88,-144 190.88,-144 282.62,-144 282.62,-144 288.62,-144 294.62,-150 294.62,-156 294.62,-156 294.62,-168 294.62,-168 294.62,-174 288.62,-180 282.62,-180"/>
<text text-anchor="middle" x="236.75" y="-159.62" font-family="sans" font-size="10.00">filter_signalp_outputs</text>
</g>
<!-- 1&#45;&gt;0 -->
<g id="edge1" class="edge">
<title>1&#45;&gt;0</title>
<path fill="none" stroke="grey" stroke-width="2" d="M193.92,-143.15C172.58,-134.26 146.52,-123.41 123.72,-113.91"/>
<polygon fill="grey" stroke="grey" stroke-width="2" points="124.37,-110.55 113.79,-109.93 121.68,-117.01 124.37,-110.55"/>
</g>
<!-- 2 -->
<g id="node3" class="node">
<title>2</title>
<path fill="none" stroke="#d85656" stroke-width="2" stroke-dasharray="5,2" d="M224.62,-324.5C224.62,-324.5 186.88,-324.5 186.88,-324.5 180.88,-324.5 174.88,-318.5 174.88,-312.5 174.88,-312.5 174.88,-300.5 174.88,-300.5 174.88,-294.5 180.88,-288.5 186.88,-288.5 186.88,-288.5 224.62,-288.5 224.62,-288.5 230.62,-288.5 236.62,-294.5 236.62,-300.5 236.62,-300.5 236.62,-312.5 236.62,-312.5 236.62,-318.5 230.62,-324.5 224.62,-324.5"/>
<text text-anchor="middle" x="205.75" y="-304.12" font-family="sans" font-size="10.00">split_fasta</text>
</g>
<!-- 9 -->
<g id="node10" class="node">
<title>9</title>
<path fill="none" stroke="#56a2d8" stroke-width="2" stroke-dasharray="5,2" d="M302.38,-252.5C302.38,-252.5 257.12,-252.5 257.12,-252.5 251.12,-252.5 245.12,-246.5 245.12,-240.5 245.12,-240.5 245.12,-228 245.12,-228 245.12,-222 251.12,-216 257.12,-216 257.12,-216 302.38,-216 302.38,-216 308.38,-216 314.38,-222 314.38,-228 314.38,-228 314.38,-240.5 314.38,-240.5 314.38,-246.5 308.38,-252.5 302.38,-252.5"/>
<text text-anchor="middle" x="279.75" y="-239" font-family="sans" font-size="10.00">run_signalp</text>
<text text-anchor="middle" x="279.75" y="-224.75" font-family="sans" font-size="10.00">file_id: 2</text>
</g>
<!-- 2&#45;&gt;9 -->
<g id="edge11" class="edge">
<title>2&#45;&gt;9</title>
<path fill="none" stroke="grey" stroke-width="2" d="M224.42,-287.77C232.54,-280.07 242.22,-270.88 251.2,-262.35"/>
<polygon fill="grey" stroke="grey" stroke-width="2" points="253.72,-264.88 258.57,-255.46 248.9,-259.81 253.72,-264.88"/>
</g>
<!-- 10 -->
<g id="node11" class="node">
<title>10</title>
<path fill="none" stroke="#56a2d8" stroke-width="2" stroke-dasharray="5,2" d="M215.38,-252.5C215.38,-252.5 170.12,-252.5 170.12,-252.5 164.12,-252.5 158.12,-246.5 158.12,-240.5 158.12,-240.5 158.12,-228 158.12,-228 158.12,-222 164.12,-216 170.12,-216 170.12,-216 215.38,-216 215.38,-216 221.38,-216 227.38,-222 227.38,-228 227.38,-228 227.38,-240.5 227.38,-240.5 227.38,-246.5 221.38,-252.5 215.38,-252.5"/>
<text text-anchor="middle" x="192.75" y="-239" font-family="sans" font-size="10.00">run_signalp</text>
<text text-anchor="middle" x="192.75" y="-224.75" font-family="sans" font-size="10.00">file_id: 1</text>
</g>
<!-- 2&#45;&gt;10 -->
<g id="edge12" class="edge">
<title>2&#45;&gt;10</title>
<path fill="none" stroke="grey" stroke-width="2" d="M202.47,-287.77C201.23,-281.09 199.79,-273.27 198.39,-265.75"/>
<polygon fill="grey" stroke="grey" stroke-width="2" points="201.34,-264.41 196.07,-255.22 194.45,-265.69 201.34,-264.41"/>
</g>
<!-- 2&#45;&gt;11 -->
<g id="edge14" class="edge">
<title>2&#45;&gt;11</title>
<path fill="none" stroke="grey" stroke-width="2" d="M237.53,-300.91C265.57,-294.99 304.84,-281.72 323.75,-252.5 367.85,-184.34 339.84,-140.17 295.75,-72 289.39,-62.17 280.75,-53.03 272.05,-45.19"/>
<polygon fill="grey" stroke="grey" stroke-width="2" points="274.2,-41.74 264.31,-37.94 269.67,-47.08 274.2,-41.74"/>
</g>
<!-- 3 -->
<g id="node4" class="node">
<title>3</title>
<path fill="none" stroke="#59d856" stroke-width="2" stroke-dasharray="5,2" d="M216,-396.5C216,-396.5 159.5,-396.5 159.5,-396.5 153.5,-396.5 147.5,-390.5 147.5,-384.5 147.5,-384.5 147.5,-372.5 147.5,-372.5 147.5,-366.5 153.5,-360.5 159.5,-360.5 159.5,-360.5 216,-360.5 216,-360.5 222,-360.5 228,-366.5 228,-372.5 228,-372.5 228,-384.5 228,-384.5 228,-390.5 222,-396.5 216,-396.5"/>
<text text-anchor="middle" x="187.75" y="-376.12" font-family="sans" font-size="10.00">trim_peptides</text>
</g>
<!-- 3&#45;&gt;2 -->
<g id="edge5" class="edge">
<title>3&#45;&gt;2</title>
<path fill="none" stroke="grey" stroke-width="2" d="M192.29,-359.84C194.01,-353.17 196.01,-345.39 197.94,-337.89"/>
<polygon fill="grey" stroke="grey" stroke-width="2" points="202.05,-337.96 201.15,-327.4 195.27,-336.22 202.05,-337.96"/>
</g>
<!-- 4 -->
<g id="node5" class="node">
<title>4</title>
<path fill="none" stroke="#56c9d8" stroke-width="2" stroke-dasharray="5,2" d="M166,-468.5C166,-468.5 97.5,-468.5 97.5,-468.5 91.5,-468.5 85.5,-462.5 85.5,-456.5 85.5,-456.5 85.5,-444.5 85.5,-444.5 85.5,-438.5 91.5,-432.5 97.5,-432.5 97.5,-432.5 166,-432.5 166,-432.5 172,-432.5 178,-438.5 178,-444.5 178,-444.5 178,-456.5 178,-456.5 178,-462.5 172,-468.5 166,-468.5"/>
<text text-anchor="middle" x="131.75" y="-448.12" font-family="sans" font-size="10.00">cluster_peptides</text>
</g>
<!-- 4&#45;&gt;0 -->
<g id="edge2" class="edge">
<title>4&#45;&gt;0</title>
<path fill="none" stroke="grey" stroke-width="2" d="M124.71,-431.89C114.75,-405.37 97.75,-353.38 97.75,-307.5 97.75,-307.5 97.75,-307.5 97.75,-233.25 97.75,-193.87 86.95,-149.57 78.53,-121.02"/>
<polygon fill="grey" stroke="grey" stroke-width="2" points="81.04,-119.26 74.76,-110.73 74.34,-121.31 81.04,-119.26"/>
</g>
<!-- 4&#45;&gt;3 -->
<g id="edge6" class="edge">
<title>4&#45;&gt;3</title>
<path fill="none" stroke="grey" stroke-width="2" d="M145.88,-431.84C151.8,-424.43 158.84,-415.64 165.43,-407.4"/>
<polygon fill="grey" stroke="grey" stroke-width="2" points="168.91,-409.4 172.43,-399.4 163.45,-405.02 168.91,-409.4"/>
</g>
<!-- 5 -->
<g id="node6" class="node">
<title>5</title>
<path fill="none" stroke="#d8a456" stroke-width="2" stroke-dasharray="5,2" d="M154.38,-540.5C154.38,-540.5 109.12,-540.5 109.12,-540.5 103.12,-540.5 97.12,-534.5 97.12,-528.5 97.12,-528.5 97.12,-516.5 97.12,-516.5 97.12,-510.5 103.12,-504.5 109.12,-504.5 109.12,-504.5 154.38,-504.5 154.38,-504.5 160.38,-504.5 166.38,-510.5 166.38,-516.5 166.38,-516.5 166.38,-528.5 166.38,-528.5 166.38,-534.5 160.38,-540.5 154.38,-540.5"/>
<text text-anchor="middle" x="131.75" y="-520.12" font-family="sans" font-size="10.00">detect_orfs</text>
</g>
<!-- 5&#45;&gt;4 -->
<g id="edge7" class="edge">
<title>5&#45;&gt;4</title>
<path fill="none" stroke="grey" stroke-width="2" d="M131.75,-503.84C131.75,-497.25 131.75,-489.58 131.75,-482.17"/>
<polygon fill="grey" stroke="grey" stroke-width="2" points="135.25,-482.4 131.75,-472.4 128.25,-482.4 135.25,-482.4"/>
</g>
<!-- 6 -->
<g id="node7" class="node">
<title>6</title>
<path fill="none" stroke="#d8c356" stroke-width="2" stroke-dasharray="5,2" d="M172.38,-612.5C172.38,-612.5 91.12,-612.5 91.12,-612.5 85.12,-612.5 79.12,-606.5 79.12,-600.5 79.12,-600.5 79.12,-588.5 79.12,-588.5 79.12,-582.5 85.12,-576.5 91.12,-576.5 91.12,-576.5 172.38,-576.5 172.38,-576.5 178.38,-576.5 184.38,-582.5 184.38,-588.5 184.38,-588.5 184.38,-600.5 184.38,-600.5 184.38,-606.5 178.38,-612.5 172.38,-612.5"/>
<text text-anchor="middle" x="131.75" y="-592.12" font-family="sans" font-size="10.00">filter_contaminants</text>
</g>
<!-- 6&#45;&gt;5 -->
<g id="edge8" class="edge">
<title>6&#45;&gt;5</title>
<path fill="none" stroke="grey" stroke-width="2" d="M131.75,-575.84C131.75,-569.25 131.75,-561.58 131.75,-554.17"/>
<polygon fill="grey" stroke="grey" stroke-width="2" points="135.25,-554.4 131.75,-544.4 128.25,-554.4 135.25,-554.4"/>
</g>
<!-- 7 -->
<g id="node8" class="node">
<title>7</title>
<path fill="none" stroke="#56d8c9" stroke-width="2" stroke-dasharray="5,2" d="M180.25,-684.5C180.25,-684.5 83.25,-684.5 83.25,-684.5 77.25,-684.5 71.25,-678.5 71.25,-672.5 71.25,-672.5 71.25,-660.5 71.25,-660.5 71.25,-654.5 77.25,-648.5 83.25,-648.5 83.25,-648.5 180.25,-648.5 180.25,-648.5 186.25,-648.5 192.25,-654.5 192.25,-660.5 192.25,-660.5 192.25,-672.5 192.25,-672.5 192.25,-678.5 186.25,-684.5 180.25,-684.5"/>
<text text-anchor="middle" x="131.75" y="-664.12" font-family="sans" font-size="10.00">blast_on_contaminants</text>
</g>
<!-- 7&#45;&gt;6 -->
<g id="edge9" class="edge">
<title>7&#45;&gt;6</title>
<path fill="none" stroke="grey" stroke-width="2" d="M131.75,-647.84C131.75,-641.25 131.75,-633.58 131.75,-626.17"/>
<polygon fill="grey" stroke="grey" stroke-width="2" points="135.25,-626.4 131.75,-616.4 128.25,-626.4 135.25,-626.4"/>
</g>
<!-- 8 -->
<g id="node9" class="node">
<title>8</title>
<path fill="none" stroke="#56d8a2" stroke-width="2" stroke-dasharray="5,2" d="M195.62,-756.5C195.62,-756.5 67.88,-756.5 67.88,-756.5 61.88,-756.5 55.88,-750.5 55.88,-744.5 55.88,-744.5 55.88,-732.5 55.88,-732.5 55.88,-726.5 61.88,-720.5 67.88,-720.5 67.88,-720.5 195.62,-720.5 195.62,-720.5 201.62,-720.5 207.62,-726.5 207.62,-732.5 207.62,-732.5 207.62,-744.5 207.62,-744.5 207.62,-750.5 201.62,-756.5 195.62,-756.5"/>
<text text-anchor="middle" x="131.75" y="-736.12" font-family="sans" font-size="10.00">build_contaminants_database</text>
</g>
<!-- 8&#45;&gt;7 -->
<g id="edge10" class="edge">
<title>8&#45;&gt;7</title>
<path fill="none" stroke="grey" stroke-width="2" d="M131.75,-719.84C131.75,-713.25 131.75,-705.58 131.75,-698.17"/>
<polygon fill="grey" stroke="grey" stroke-width="2" points="135.25,-698.4 131.75,-688.4 128.25,-698.4 135.25,-698.4"/>
</g>
<!-- 9&#45;&gt;1 -->
<g id="edge3" class="edge">
<title>9&#45;&gt;1</title>
<path fill="none" stroke="grey" stroke-width="2" d="M268.68,-215.16C264.33,-208.06 259.23,-199.73 254.4,-191.84"/>
<polygon fill="grey" stroke="grey" stroke-width="2" points="256.84,-189.49 248.64,-182.79 250.87,-193.14 256.84,-189.49"/>
</g>
<!-- 9&#45;&gt;11 -->
<g id="edge15" class="edge">
<title>9&#45;&gt;11</title>
<path fill="none" stroke="grey" stroke-width="2" d="M290.2,-215.18C295.39,-205.17 301.11,-192.29 303.75,-180 307.11,-164.36 307.65,-159.52 303.75,-144 294.79,-108.33 273.48,-71.74 257.28,-47.44"/>
<polygon fill="grey" stroke="grey" stroke-width="2" points="259.58,-45.14 251.04,-38.87 253.81,-49.1 259.58,-45.14"/>
</g>
<!-- 10&#45;&gt;1 -->
<g id="edge4" class="edge">
<title>10&#45;&gt;1</title>
<path fill="none" stroke="grey" stroke-width="2" d="M204.08,-215.16C208.58,-207.97 213.87,-199.54 218.86,-191.56"/>
<polygon fill="grey" stroke="grey" stroke-width="2" points="222.27,-193.12 224.61,-182.79 216.34,-189.4 222.27,-193.12"/>
</g>
<!-- 10&#45;&gt;11 -->
<g id="edge16" class="edge">
<title>10&#45;&gt;11</title>
<path fill="none" stroke="grey" stroke-width="2" d="M182.73,-215.13C177.75,-205.1 172.28,-192.23 169.75,-180 166.51,-164.33 165.85,-159.52 169.75,-144 178.71,-108.33 200.02,-71.74 216.22,-47.44"/>
<polygon fill="grey" stroke="grey" stroke-width="2" points="219.69,-49.1 222.46,-38.87 213.92,-45.14 219.69,-49.1"/>
</g>
</g>
</svg>
