<?xml version="1.0" encoding="UTF-8" standalone="no"?>
<!DOCTYPE svg PUBLIC "-//W3C//DTD SVG 1.1//EN"
 "http://www.w3.org/Graphics/SVG/1.1/DTD/svg11.dtd">
<!-- Generated by graphviz version 8.1.0 (0)
 -->
<!-- Title: snakemake_dag Pages: 1 -->
<svg width="636pt" height="1269pt"
 viewBox="0.00 0.00 636.00 1268.50" xmlns="http://www.w3.org/2000/svg" xmlns:xlink="http://www.w3.org/1999/xlink">
<g id="graph0" class="graph" transform="scale(1 1) rotate(0) translate(4 1264.5)">
<title>snakemake_dag</title>
<polygon fill="white" stroke="none" points="-4,4 -4,-1264.5 632,-1264.5 632,4 -4,4"/>
<!-- 0 -->
<g id="node1" class="node">
<title>0</title>
<path fill="none" stroke="#c6d856" stroke-width="2" stroke-dasharray="5,2" d="M275.75,-36C275.75,-36 245.75,-36 245.75,-36 239.75,-36 233.75,-30 233.75,-24 233.75,-24 233.75,-12 233.75,-12 233.75,-6 239.75,0 245.75,0 245.75,0 275.75,0 275.75,0 281.75,0 287.75,-6 287.75,-12 287.75,-12 287.75,-24 287.75,-24 287.75,-30 281.75,-36 275.75,-36"/>
<text text-anchor="middle" x="260.75" y="-15.62" font-family="sans" font-size="10.00">all</text>
</g>
<!-- 1 -->
<g id="node2" class="node">
<title>1</title>
<path fill="none" stroke="#568ad8" stroke-width="2" stroke-dasharray="5,2" d="M299.88,-108C299.88,-108 221.62,-108 221.62,-108 215.62,-108 209.62,-102 209.62,-96 209.62,-96 209.62,-84 209.62,-84 209.62,-78 215.62,-72 221.62,-72 221.62,-72 299.88,-72 299.88,-72 305.88,-72 311.88,-78 311.88,-84 311.88,-84 311.88,-96 311.88,-96 311.88,-102 305.88,-108 299.88,-108"/>
<text text-anchor="middle" x="260.75" y="-87.62" font-family="sans" font-size="10.00">build_output_table</text>
</g>
<!-- 1&#45;&gt;0 -->
<g id="edge1" class="edge">
<title>1&#45;&gt;0</title>
<path fill="none" stroke="grey" stroke-width="2" d="M260.75,-71.34C260.75,-64.75 260.75,-57.08 260.75,-49.67"/>
<polygon fill="grey" stroke="grey" stroke-width="2" points="264.25,-49.9 260.75,-39.9 257.25,-49.9 264.25,-49.9"/>
</g>
<!-- 2 -->
<g id="node3" class="node">
<title>2</title>
<path fill="none" stroke="#d85656" stroke-width="2" stroke-dasharray="5,2" d="M95.5,-252C95.5,-252 12,-252 12,-252 6,-252 0,-246 0,-240 0,-240 0,-228 0,-228 0,-222 6,-216 12,-216 12,-216 95.5,-216 95.5,-216 101.5,-216 107.5,-222 107.5,-228 107.5,-228 107.5,-240 107.5,-240 107.5,-246 101.5,-252 95.5,-252"/>
<text text-anchor="middle" x="53.75" y="-231.62" font-family="sans" font-size="10.00">extract_Cys_pattern</text>
</g>
<!-- 2&#45;&gt;1 -->
<g id="edge2" class="edge">
<title>2&#45;&gt;1</title>
<path fill="none" stroke="grey" stroke-width="2" d="M63.26,-215.25C74.72,-195.38 95.73,-163.43 121.75,-144 143.79,-127.54 171.55,-115.61 196.46,-107.28"/>
<polygon fill="grey" stroke="grey" stroke-width="2" points="198.32,-109.72 206.8,-103.36 196.21,-103.05 198.32,-109.72"/>
</g>
<!-- 3 -->
<g id="node4" class="node">
<title>3</title>
<path fill="none" stroke="#56d8b1" stroke-width="2" stroke-dasharray="5,2" d="M331,-324C331,-324 220.5,-324 220.5,-324 214.5,-324 208.5,-318 208.5,-312 208.5,-312 208.5,-300 208.5,-300 208.5,-294 214.5,-288 220.5,-288 220.5,-288 331,-288 331,-288 337,-288 343,-294 343,-300 343,-300 343,-312 343,-312 343,-318 337,-324 331,-324"/>
<text text-anchor="middle" x="275.75" y="-303.62" font-family="sans" font-size="10.00">retrieve_candidate_toxins</text>
</g>
<!-- 3&#45;&gt;2 -->
<g id="edge8" class="edge">
<title>3&#45;&gt;2</title>
<path fill="none" stroke="grey" stroke-width="2" d="M218.87,-287.06C188.81,-277.59 151.75,-265.9 120.36,-256"/>
<polygon fill="grey" stroke="grey" stroke-width="2" points="120.78,-251.83 110.19,-252.17 118.67,-258.51 120.78,-251.83"/>
</g>
<!-- 17 -->
<g id="node18" class="node">
<title>17</title>
<path fill="none" stroke="#566bd8" stroke-width="2" stroke-dasharray="5,2" d="M233.38,-180C233.38,-180 176.12,-180 176.12,-180 170.12,-180 164.12,-174 164.12,-168 164.12,-168 164.12,-156 164.12,-156 164.12,-150 170.12,-144 176.12,-144 176.12,-144 233.38,-144 233.38,-144 239.38,-144 245.38,-150 245.38,-156 245.38,-156 245.38,-168 245.38,-168 245.38,-174 239.38,-180 233.38,-180"/>
<text text-anchor="middle" x="204.75" y="-159.62" font-family="sans" font-size="10.00">run_wolfpsort</text>
</g>
<!-- 3&#45;&gt;17 -->
<g id="edge27" class="edge">
<title>3&#45;&gt;17</title>
<path fill="none" stroke="grey" stroke-width="2" d="M266.76,-287.02C254.81,-263.12 233.55,-220.59 219.3,-192.1"/>
<polygon fill="grey" stroke="grey" stroke-width="2" points="222.27,-190.22 214.67,-182.84 216.01,-193.35 222.27,-190.22"/>
</g>
<!-- 19 -->
<g id="node20" class="node">
<title>19</title>
<path fill="none" stroke="#56d8c9" stroke-width="2" stroke-dasharray="5,2" d="M434.5,-252C434.5,-252 387,-252 387,-252 381,-252 375,-246 375,-240 375,-240 375,-228 375,-228 375,-222 381,-216 387,-216 387,-216 434.5,-216 434.5,-216 440.5,-216 446.5,-222 446.5,-228 446.5,-228 446.5,-240 446.5,-240 446.5,-246 440.5,-252 434.5,-252"/>
<text text-anchor="middle" x="410.75" y="-231.62" font-family="sans" font-size="10.00">run_hmmer</text>
</g>
<!-- 3&#45;&gt;19 -->
<g id="edge29" class="edge">
<title>3&#45;&gt;19</title>
<path fill="none" stroke="grey" stroke-width="2" d="M310.17,-287.15C326.83,-278.52 347.06,-268.02 365,-258.72"/>
<polygon fill="grey" stroke="grey" stroke-width="2" points="367.13,-261.52 374.4,-253.81 363.91,-255.31 367.13,-261.52"/>
</g>
<!-- 21 -->
<g id="node22" class="node">
<title>21</title>
<path fill="none" stroke="#59d856" stroke-width="2" stroke-dasharray="5,2" d="M586,-252C586,-252 517.5,-252 517.5,-252 511.5,-252 505.5,-246 505.5,-240 505.5,-240 505.5,-228 505.5,-228 505.5,-222 511.5,-216 517.5,-216 517.5,-216 586,-216 586,-216 592,-216 598,-222 598,-228 598,-228 598,-240 598,-240 598,-246 592,-252 586,-252"/>
<text text-anchor="middle" x="551.75" y="-231.62" font-family="sans" font-size="10.00">blast_on_uniprot</text>
</g>
<!-- 3&#45;&gt;21 -->
<g id="edge31" class="edge">
<title>3&#45;&gt;21</title>
<path fill="none" stroke="grey" stroke-width="2" d="M343.97,-287.7C389.45,-276.16 448.64,-261.15 492.21,-250.1"/>
<polygon fill="grey" stroke="grey" stroke-width="2" points="493.8,-252.8 502.63,-246.95 492.08,-246.02 493.8,-252.8"/>
</g>
<!-- 24 -->
<g id="node25" class="node">
<title>24</title>
<path fill="none" stroke="#56c9d8" stroke-width="2" stroke-dasharray="5,2" d="M359.88,-180C359.88,-180 275.62,-180 275.62,-180 269.62,-180 263.62,-174 263.62,-168 263.62,-168 263.62,-156 263.62,-156 263.62,-150 269.62,-144 275.62,-144 275.62,-144 359.88,-144 359.88,-144 365.88,-144 371.88,-150 371.88,-156 371.88,-156 371.88,-168 371.88,-168 371.88,-174 365.88,-180 359.88,-180"/>
<text text-anchor="middle" x="317.75" y="-159.62" font-family="sans" font-size="10.00">detect_repeated_aa</text>
</g>
<!-- 3&#45;&gt;24 -->
<g id="edge34" class="edge">
<title>3&#45;&gt;24</title>
<path fill="none" stroke="grey" stroke-width="2" d="M281.07,-287.02C288.04,-263.44 300.38,-221.73 308.8,-193.25"/>
<polygon fill="grey" stroke="grey" stroke-width="2" points="312.99,-193.42 312.47,-182.84 306.28,-191.43 312.99,-193.42"/>
</g>
<!-- 4 -->
<g id="node5" class="node">
<title>4</title>
<path fill="none" stroke="#56b1d8" stroke-width="2" stroke-dasharray="5,2" d="M330.62,-468C330.62,-468 220.88,-468 220.88,-468 214.88,-468 208.88,-462 208.88,-456 208.88,-456 208.88,-444 208.88,-444 208.88,-438 214.88,-432 220.88,-432 220.88,-432 330.62,-432 330.62,-432 336.62,-432 342.62,-438 342.62,-444 342.62,-444 342.62,-456 342.62,-456 342.62,-462 336.62,-468 330.62,-468"/>
<text text-anchor="middle" x="275.75" y="-447.62" font-family="sans" font-size="10.00">extract_non_TM_peptides</text>
</g>
<!-- 4&#45;&gt;3 -->
<g id="edge10" class="edge">
<title>4&#45;&gt;3</title>
<path fill="none" stroke="grey" stroke-width="2" d="M275.75,-431.02C275.75,-407.54 275.75,-366.11 275.75,-337.64"/>
<polygon fill="grey" stroke="grey" stroke-width="2" points="279.25,-337.84 275.75,-327.84 272.25,-337.84 279.25,-337.84"/>
</g>
<!-- 15 -->
<g id="node16" class="node">
<title>15</title>
<path fill="none" stroke="#d6d856" stroke-width="2" stroke-dasharray="5,2" d="M202,-396C202,-396 139.5,-396 139.5,-396 133.5,-396 127.5,-390 127.5,-384 127.5,-384 127.5,-372 127.5,-372 127.5,-366 133.5,-360 139.5,-360 139.5,-360 202,-360 202,-360 208,-360 214,-366 214,-372 214,-372 214,-384 214,-384 214,-390 208,-396 202,-396"/>
<text text-anchor="middle" x="170.75" y="-375.62" font-family="sans" font-size="10.00">blast_on_toxins</text>
</g>
<!-- 4&#45;&gt;15 -->
<g id="edge25" class="edge">
<title>4&#45;&gt;15</title>
<path fill="none" stroke="grey" stroke-width="2" d="M248.98,-431.15C236.52,-422.84 221.48,-412.82 207.93,-403.79"/>
<polygon fill="grey" stroke="grey" stroke-width="2" points="209.73,-400.45 199.47,-397.81 205.85,-406.27 209.73,-400.45"/>
</g>
<!-- 5 -->
<g id="node6" class="node">
<title>5</title>
<path fill="none" stroke="#d88d56" stroke-width="2" stroke-dasharray="5,2" d="M235.62,-540C235.62,-540 185.88,-540 185.88,-540 179.88,-540 173.88,-534 173.88,-528 173.88,-528 173.88,-516 173.88,-516 173.88,-510 179.88,-504 185.88,-504 185.88,-504 235.62,-504 235.62,-504 241.62,-504 247.62,-510 247.62,-516 247.62,-516 247.62,-528 247.62,-528 247.62,-534 241.62,-540 235.62,-540"/>
<text text-anchor="middle" x="210.75" y="-519.62" font-family="sans" font-size="10.00">run_phobius</text>
</g>
<!-- 5&#45;&gt;4 -->
<g id="edge12" class="edge">
<title>5&#45;&gt;4</title>
<path fill="none" stroke="grey" stroke-width="2" d="M227.15,-503.34C234.18,-495.77 242.55,-486.75 250.35,-478.35"/>
<polygon fill="grey" stroke="grey" stroke-width="2" points="252.89,-480.61 257.13,-470.9 247.76,-475.85 252.89,-480.61"/>
</g>
<!-- 6 -->
<g id="node7" class="node">
<title>6</title>
<path fill="none" stroke="#d8a456" stroke-width="2" stroke-dasharray="5,2" d="M267.5,-612C267.5,-612 154,-612 154,-612 148,-612 142,-606 142,-600 142,-600 142,-588 142,-588 142,-582 148,-576 154,-576 154,-576 267.5,-576 267.5,-576 273.5,-576 279.5,-582 279.5,-588 279.5,-588 279.5,-600 279.5,-600 279.5,-606 273.5,-612 267.5,-612"/>
<text text-anchor="middle" x="210.75" y="-591.62" font-family="sans" font-size="10.00">extract_secreted_peptides</text>
</g>
<!-- 6&#45;&gt;4 -->
<g id="edge13" class="edge">
<title>6&#45;&gt;4</title>
<path fill="none" stroke="grey" stroke-width="2" d="M230.38,-575.1C239.71,-565.55 250.23,-553.08 256.75,-540 265.81,-521.84 270.56,-499.49 273.05,-481.74"/>
<polygon fill="grey" stroke="grey" stroke-width="2" points="276.86,-482.26 274.57,-471.92 269.91,-481.44 276.86,-482.26"/>
</g>
<!-- 6&#45;&gt;5 -->
<g id="edge14" class="edge">
<title>6&#45;&gt;5</title>
<path fill="none" stroke="grey" stroke-width="2" d="M210.75,-575.34C210.75,-568.75 210.75,-561.08 210.75,-553.67"/>
<polygon fill="grey" stroke="grey" stroke-width="2" points="214.25,-553.9 210.75,-543.9 207.25,-553.9 214.25,-553.9"/>
</g>
<!-- 7 -->
<g id="node8" class="node">
<title>7</title>
<path fill="none" stroke="#d8b456" stroke-width="2" stroke-dasharray="5,2" d="M136.62,-684C136.62,-684 44.88,-684 44.88,-684 38.88,-684 32.88,-678 32.88,-672 32.88,-672 32.88,-660 32.88,-660 32.88,-654 38.88,-648 44.88,-648 44.88,-648 136.62,-648 136.62,-648 142.62,-648 148.62,-654 148.62,-660 148.62,-660 148.62,-672 148.62,-672 148.62,-678 142.62,-684 136.62,-684"/>
<text text-anchor="middle" x="90.75" y="-663.62" font-family="sans" font-size="10.00">filter_signalp_outputs</text>
</g>
<!-- 7&#45;&gt;2 -->
<g id="edge9" class="edge">
<title>7&#45;&gt;2</title>
<path fill="none" stroke="grey" stroke-width="2" d="M82.9,-647.01C72.04,-620.43 53.75,-568.86 53.75,-523 53.75,-523 53.75,-523 53.75,-377 53.75,-338.65 53.75,-294.48 53.75,-265.72"/>
<polygon fill="grey" stroke="grey" stroke-width="2" points="57.25,-265.93 53.75,-255.93 50.25,-265.93 57.25,-265.93"/>
</g>
<!-- 7&#45;&gt;6 -->
<g id="edge15" class="edge">
<title>7&#45;&gt;6</title>
<path fill="none" stroke="grey" stroke-width="2" d="M121.34,-647.15C135.87,-638.68 153.45,-628.42 169.17,-619.25"/>
<polygon fill="grey" stroke="grey" stroke-width="2" points="171.34,-621.87 178.21,-613.81 167.81,-615.83 171.34,-621.87"/>
</g>
<!-- 8 -->
<g id="node9" class="node">
<title>8</title>
<path fill="none" stroke="#56d8a2" stroke-width="2" stroke-dasharray="5,2" d="M161.62,-828.5C161.62,-828.5 123.88,-828.5 123.88,-828.5 117.88,-828.5 111.88,-822.5 111.88,-816.5 111.88,-816.5 111.88,-804.5 111.88,-804.5 111.88,-798.5 117.88,-792.5 123.88,-792.5 123.88,-792.5 161.62,-792.5 161.62,-792.5 167.62,-792.5 173.62,-798.5 173.62,-804.5 173.62,-804.5 173.62,-816.5 173.62,-816.5 173.62,-822.5 167.62,-828.5 161.62,-828.5"/>
<text text-anchor="middle" x="142.75" y="-808.12" font-family="sans" font-size="10.00">split_fasta</text>
</g>
<!-- 25 -->
<g id="node26" class="node">
<title>25</title>
<path fill="none" stroke="#d87d56" stroke-width="2" stroke-dasharray="5,2" d="M81.38,-756.5C81.38,-756.5 36.12,-756.5 36.12,-756.5 30.12,-756.5 24.12,-750.5 24.12,-744.5 24.12,-744.5 24.12,-732 24.12,-732 24.12,-726 30.12,-720 36.12,-720 36.12,-720 81.38,-720 81.38,-720 87.38,-720 93.38,-726 93.38,-732 93.38,-732 93.38,-744.5 93.38,-744.5 93.38,-750.5 87.38,-756.5 81.38,-756.5"/>
<text text-anchor="middle" x="58.75" y="-743" font-family="sans" font-size="10.00">run_signalp</text>
<text text-anchor="middle" x="58.75" y="-728.75" font-family="sans" font-size="10.00">file_id: 2</text>
</g>
<!-- 8&#45;&gt;25 -->
<g id="edge35" class="edge">
<title>8&#45;&gt;25</title>
<path fill="none" stroke="grey" stroke-width="2" d="M121.55,-791.77C112.05,-783.83 100.65,-774.29 90.18,-765.54"/>
<polygon fill="grey" stroke="grey" stroke-width="2" points="92.44,-762.19 82.53,-758.46 87.95,-767.56 92.44,-762.19"/>
</g>
<!-- 26 -->
<g id="node27" class="node">
<title>26</title>
<path fill="none" stroke="#d87d56" stroke-width="2" stroke-dasharray="5,2" d="M168.38,-756.5C168.38,-756.5 123.12,-756.5 123.12,-756.5 117.12,-756.5 111.12,-750.5 111.12,-744.5 111.12,-744.5 111.12,-732 111.12,-732 111.12,-726 117.12,-720 123.12,-720 123.12,-720 168.38,-720 168.38,-720 174.38,-720 180.38,-726 180.38,-732 180.38,-732 180.38,-744.5 180.38,-744.5 180.38,-750.5 174.38,-756.5 168.38,-756.5"/>
<text text-anchor="middle" x="145.75" y="-743" font-family="sans" font-size="10.00">run_signalp</text>
<text text-anchor="middle" x="145.75" y="-728.75" font-family="sans" font-size="10.00">file_id: 1</text>
</g>
<!-- 8&#45;&gt;26 -->
<g id="edge36" class="edge">
<title>8&#45;&gt;26</title>
<path fill="none" stroke="grey" stroke-width="2" d="M143.51,-791.77C143.79,-785.17 144.12,-777.46 144.44,-770.03"/>
<polygon fill="grey" stroke="grey" stroke-width="2" points="148.05,-770.36 144.98,-760.22 141.06,-770.06 148.05,-770.36"/>
</g>
<!-- 9 -->
<g id="node10" class="node">
<title>9</title>
<path fill="none" stroke="#68d856" stroke-width="2" stroke-dasharray="5,2" d="M171,-900.5C171,-900.5 114.5,-900.5 114.5,-900.5 108.5,-900.5 102.5,-894.5 102.5,-888.5 102.5,-888.5 102.5,-876.5 102.5,-876.5 102.5,-870.5 108.5,-864.5 114.5,-864.5 114.5,-864.5 171,-864.5 171,-864.5 177,-864.5 183,-870.5 183,-876.5 183,-876.5 183,-888.5 183,-888.5 183,-894.5 177,-900.5 171,-900.5"/>
<text text-anchor="middle" x="142.75" y="-880.12" font-family="sans" font-size="10.00">trim_peptides</text>
</g>
<!-- 9&#45;&gt;8 -->
<g id="edge19" class="edge">
<title>9&#45;&gt;8</title>
<path fill="none" stroke="grey" stroke-width="2" d="M142.75,-863.84C142.75,-857.25 142.75,-849.58 142.75,-842.17"/>
<polygon fill="grey" stroke="grey" stroke-width="2" points="146.25,-842.4 142.75,-832.4 139.25,-842.4 146.25,-842.4"/>
</g>
<!-- 10 -->
<g id="node11" class="node">
<title>10</title>
<path fill="none" stroke="#b6d856" stroke-width="2" stroke-dasharray="5,2" d="M211,-972.5C211,-972.5 142.5,-972.5 142.5,-972.5 136.5,-972.5 130.5,-966.5 130.5,-960.5 130.5,-960.5 130.5,-948.5 130.5,-948.5 130.5,-942.5 136.5,-936.5 142.5,-936.5 142.5,-936.5 211,-936.5 211,-936.5 217,-936.5 223,-942.5 223,-948.5 223,-948.5 223,-960.5 223,-960.5 223,-966.5 217,-972.5 211,-972.5"/>
<text text-anchor="middle" x="176.75" y="-952.12" font-family="sans" font-size="10.00">cluster_peptides</text>
</g>
<!-- 10&#45;&gt;6 -->
<g id="edge16" class="edge">
<title>10&#45;&gt;6</title>
<path fill="none" stroke="grey" stroke-width="2" d="M183.79,-935.89C193.75,-909.37 210.75,-857.38 210.75,-811.5 210.75,-811.5 210.75,-811.5 210.75,-737.25 210.75,-698.84 210.75,-654.59 210.75,-625.77"/>
<polygon fill="grey" stroke="grey" stroke-width="2" points="214.25,-625.96 210.75,-615.96 207.25,-625.96 214.25,-625.96"/>
</g>
<!-- 10&#45;&gt;9 -->
<g id="edge20" class="edge">
<title>10&#45;&gt;9</title>
<path fill="none" stroke="grey" stroke-width="2" d="M168.17,-935.84C164.81,-928.93 160.87,-920.81 157.11,-913.06"/>
<polygon fill="grey" stroke="grey" stroke-width="2" points="159.96,-910.87 152.45,-903.4 153.67,-913.93 159.96,-910.87"/>
</g>
<!-- 11 -->
<g id="node12" class="node">
<title>11</title>
<path fill="none" stroke="#9fd856" stroke-width="2" stroke-dasharray="5,2" d="M199.38,-1044.5C199.38,-1044.5 154.12,-1044.5 154.12,-1044.5 148.12,-1044.5 142.12,-1038.5 142.12,-1032.5 142.12,-1032.5 142.12,-1020.5 142.12,-1020.5 142.12,-1014.5 148.12,-1008.5 154.12,-1008.5 154.12,-1008.5 199.38,-1008.5 199.38,-1008.5 205.38,-1008.5 211.38,-1014.5 211.38,-1020.5 211.38,-1020.5 211.38,-1032.5 211.38,-1032.5 211.38,-1038.5 205.38,-1044.5 199.38,-1044.5"/>
<text text-anchor="middle" x="176.75" y="-1024.12" font-family="sans" font-size="10.00">detect_orfs</text>
</g>
<!-- 11&#45;&gt;10 -->
<g id="edge21" class="edge">
<title>11&#45;&gt;10</title>
<path fill="none" stroke="grey" stroke-width="2" d="M176.75,-1007.84C176.75,-1001.25 176.75,-993.58 176.75,-986.17"/>
<polygon fill="grey" stroke="grey" stroke-width="2" points="180.25,-986.4 176.75,-976.4 173.25,-986.4 180.25,-986.4"/>
</g>
<!-- 12 -->
<g id="node13" class="node">
<title>12</title>
<path fill="none" stroke="#d86656" stroke-width="2" stroke-dasharray="5,2" d="M217.38,-1116.5C217.38,-1116.5 136.12,-1116.5 136.12,-1116.5 130.12,-1116.5 124.12,-1110.5 124.12,-1104.5 124.12,-1104.5 124.12,-1092.5 124.12,-1092.5 124.12,-1086.5 130.12,-1080.5 136.12,-1080.5 136.12,-1080.5 217.38,-1080.5 217.38,-1080.5 223.38,-1080.5 229.38,-1086.5 229.38,-1092.5 229.38,-1092.5 229.38,-1104.5 229.38,-1104.5 229.38,-1110.5 223.38,-1116.5 217.38,-1116.5"/>
<text text-anchor="middle" x="176.75" y="-1096.12" font-family="sans" font-size="10.00">filter_contaminants</text>
</g>
<!-- 12&#45;&gt;11 -->
<g id="edge22" class="edge">
<title>12&#45;&gt;11</title>
<path fill="none" stroke="grey" stroke-width="2" d="M176.75,-1079.84C176.75,-1073.25 176.75,-1065.58 176.75,-1058.17"/>
<polygon fill="grey" stroke="grey" stroke-width="2" points="180.25,-1058.4 176.75,-1048.4 173.25,-1058.4 180.25,-1058.4"/>
</g>
<!-- 13 -->
<g id="node14" class="node">
<title>13</title>
<path fill="none" stroke="#56d87b" stroke-width="2" stroke-dasharray="5,2" d="M225.25,-1188.5C225.25,-1188.5 128.25,-1188.5 128.25,-1188.5 122.25,-1188.5 116.25,-1182.5 116.25,-1176.5 116.25,-1176.5 116.25,-1164.5 116.25,-1164.5 116.25,-1158.5 122.25,-1152.5 128.25,-1152.5 128.25,-1152.5 225.25,-1152.5 225.25,-1152.5 231.25,-1152.5 237.25,-1158.5 237.25,-1164.5 237.25,-1164.5 237.25,-1176.5 237.25,-1176.5 237.25,-1182.5 231.25,-1188.5 225.25,-1188.5"/>
<text text-anchor="middle" x="176.75" y="-1168.12" font-family="sans" font-size="10.00">blast_on_contaminants</text>
</g>
<!-- 13&#45;&gt;12 -->
<g id="edge23" class="edge">
<title>13&#45;&gt;12</title>
<path fill="none" stroke="grey" stroke-width="2" d="M176.75,-1151.84C176.75,-1145.25 176.75,-1137.58 176.75,-1130.17"/>
<polygon fill="grey" stroke="grey" stroke-width="2" points="180.25,-1130.4 176.75,-1120.4 173.25,-1130.4 180.25,-1130.4"/>
</g>
<!-- 14 -->
<g id="node15" class="node">
<title>14</title>
<path fill="none" stroke="#56d88a" stroke-width="2" stroke-dasharray="5,2" d="M240.62,-1260.5C240.62,-1260.5 112.88,-1260.5 112.88,-1260.5 106.88,-1260.5 100.88,-1254.5 100.88,-1248.5 100.88,-1248.5 100.88,-1236.5 100.88,-1236.5 100.88,-1230.5 106.88,-1224.5 112.88,-1224.5 112.88,-1224.5 240.62,-1224.5 240.62,-1224.5 246.62,-1224.5 252.62,-1230.5 252.62,-1236.5 252.62,-1236.5 252.62,-1248.5 252.62,-1248.5 252.62,-1254.5 246.62,-1260.5 240.62,-1260.5"/>
<text text-anchor="middle" x="176.75" y="-1240.12" font-family="sans" font-size="10.00">build_contaminants_database</text>
</g>
<!-- 14&#45;&gt;13 -->
<g id="edge24" class="edge">
<title>14&#45;&gt;13</title>
<path fill="none" stroke="grey" stroke-width="2" d="M176.75,-1223.84C176.75,-1217.25 176.75,-1209.58 176.75,-1202.17"/>
<polygon fill="grey" stroke="grey" stroke-width="2" points="180.25,-1202.4 176.75,-1192.4 173.25,-1202.4 180.25,-1202.4"/>
</g>
<!-- 15&#45;&gt;1 -->
<g id="edge5" class="edge">
<title>15&#45;&gt;1</title>
<path fill="none" stroke="grey" stroke-width="2" d="M163.04,-359.27C146.37,-317.94 111.8,-213.5 154.75,-144 164.51,-128.22 180.54,-116.97 197.23,-109.03"/>
<polygon fill="grey" stroke="grey" stroke-width="2" points="199.01,-112.22 206.81,-105.05 196.24,-105.79 199.01,-112.22"/>
</g>
<!-- 15&#45;&gt;3 -->
<g id="edge11" class="edge">
<title>15&#45;&gt;3</title>
<path fill="none" stroke="grey" stroke-width="2" d="M197.52,-359.15C209.98,-350.84 225.02,-340.82 238.57,-331.79"/>
<polygon fill="grey" stroke="grey" stroke-width="2" points="240.65,-334.27 247.03,-325.81 236.77,-328.45 240.65,-334.27"/>
</g>
<!-- 16 -->
<g id="node17" class="node">
<title>16</title>
<path fill="none" stroke="#d8c356" stroke-width="2" stroke-dasharray="5,2" d="M179.25,-468C179.25,-468 94.25,-468 94.25,-468 88.25,-468 82.25,-462 82.25,-456 82.25,-456 82.25,-444 82.25,-444 82.25,-438 88.25,-432 94.25,-432 94.25,-432 179.25,-432 179.25,-432 185.25,-432 191.25,-438 191.25,-444 191.25,-444 191.25,-456 191.25,-456 191.25,-462 185.25,-468 179.25,-468"/>
<text text-anchor="middle" x="136.75" y="-447.62" font-family="sans" font-size="10.00">build_toxin_blast_db</text>
</g>
<!-- 16&#45;&gt;15 -->
<g id="edge26" class="edge">
<title>16&#45;&gt;15</title>
<path fill="none" stroke="grey" stroke-width="2" d="M145.33,-431.34C148.69,-424.43 152.63,-416.31 156.39,-408.56"/>
<polygon fill="grey" stroke="grey" stroke-width="2" points="159.83,-409.43 161.05,-398.9 153.54,-406.37 159.83,-409.43"/>
</g>
<!-- 17&#45;&gt;1 -->
<g id="edge3" class="edge">
<title>17&#45;&gt;1</title>
<path fill="none" stroke="grey" stroke-width="2" d="M218.88,-143.34C224.8,-135.93 231.84,-127.14 238.43,-118.9"/>
<polygon fill="grey" stroke="grey" stroke-width="2" points="241.91,-120.9 245.43,-110.9 236.45,-116.52 241.91,-120.9"/>
</g>
<!-- 18 -->
<g id="node19" class="node">
<title>18</title>
<path fill="none" stroke="#56d86b" stroke-width="2" stroke-dasharray="5,2" d="M515.12,-180C515.12,-180 402.38,-180 402.38,-180 396.38,-180 390.38,-174 390.38,-168 390.38,-168 390.38,-156 390.38,-156 390.38,-150 396.38,-144 402.38,-144 402.38,-144 515.12,-144 515.12,-144 521.12,-144 527.12,-150 527.12,-156 527.12,-156 527.12,-168 527.12,-168 527.12,-174 521.12,-180 515.12,-180"/>
<text text-anchor="middle" x="458.75" y="-159.62" font-family="sans" font-size="10.00">parse_hmmsearch_output</text>
</g>
<!-- 18&#45;&gt;1 -->
<g id="edge4" class="edge">
<title>18&#45;&gt;1</title>
<path fill="none" stroke="grey" stroke-width="2" d="M408.02,-143.06C382.28,-133.97 350.79,-122.83 323.54,-113.2"/>
<polygon fill="grey" stroke="grey" stroke-width="2" points="323.95,-109.92 313.35,-109.89 321.61,-116.52 323.95,-109.92"/>
</g>
<!-- 19&#45;&gt;18 -->
<g id="edge28" class="edge">
<title>19&#45;&gt;18</title>
<path fill="none" stroke="grey" stroke-width="2" d="M422.86,-215.34C427.83,-208.1 433.7,-199.53 439.24,-191.45"/>
<polygon fill="grey" stroke="grey" stroke-width="2" points="442.71,-193.13 445.47,-182.9 436.93,-189.17 442.71,-193.13"/>
</g>
<!-- 20 -->
<g id="node21" class="node">
<title>20</title>
<path fill="none" stroke="#8fd856" stroke-width="2" stroke-dasharray="5,2" d="M443.5,-324C443.5,-324 378,-324 378,-324 372,-324 366,-318 366,-312 366,-312 366,-300 366,-300 366,-294 372,-288 378,-288 378,-288 443.5,-288 443.5,-288 449.5,-288 455.5,-294 455.5,-300 455.5,-300 455.5,-312 455.5,-312 455.5,-318 449.5,-324 443.5,-324"/>
<text text-anchor="middle" x="410.75" y="-303.62" font-family="sans" font-size="10.00">download_pfam</text>
</g>
<!-- 20&#45;&gt;19 -->
<g id="edge30" class="edge">
<title>20&#45;&gt;19</title>
<path fill="none" stroke="grey" stroke-width="2" d="M410.75,-287.34C410.75,-280.75 410.75,-273.08 410.75,-265.67"/>
<polygon fill="grey" stroke="grey" stroke-width="2" points="414.25,-265.9 410.75,-255.9 407.25,-265.9 414.25,-265.9"/>
</g>
<!-- 21&#45;&gt;1 -->
<g id="edge6" class="edge">
<title>21&#45;&gt;1</title>
<path fill="none" stroke="grey" stroke-width="2" d="M553.95,-215.33C555.38,-195.23 554.28,-162.77 535.75,-144 507.04,-114.93 397.53,-101.19 325.67,-95.18"/>
<polygon fill="grey" stroke="grey" stroke-width="2" points="325.96,-91.45 315.72,-94.14 325.41,-98.43 325.96,-91.45"/>
</g>
<!-- 22 -->
<g id="node23" class="node">
<title>22</title>
<path fill="none" stroke="#78d856" stroke-width="2" stroke-dasharray="5,2" d="M616,-324C616,-324 487.5,-324 487.5,-324 481.5,-324 475.5,-318 475.5,-312 475.5,-312 475.5,-300 475.5,-300 475.5,-294 481.5,-288 487.5,-288 487.5,-288 616,-288 616,-288 622,-288 628,-294 628,-300 628,-300 628,-312 628,-312 628,-318 622,-324 616,-324"/>
<text text-anchor="middle" x="551.75" y="-303.62" font-family="sans" font-size="10.00">make_uniprot_blast_database</text>
</g>
<!-- 22&#45;&gt;21 -->
<g id="edge32" class="edge">
<title>22&#45;&gt;21</title>
<path fill="none" stroke="grey" stroke-width="2" d="M551.75,-287.34C551.75,-280.75 551.75,-273.08 551.75,-265.67"/>
<polygon fill="grey" stroke="grey" stroke-width="2" points="555.25,-265.9 551.75,-255.9 548.25,-265.9 555.25,-265.9"/>
</g>
<!-- 23 -->
<g id="node24" class="node">
<title>23</title>
<path fill="none" stroke="#56a2d8" stroke-width="2" stroke-dasharray="5,2" d="M589.38,-396C589.38,-396 514.12,-396 514.12,-396 508.12,-396 502.12,-390 502.12,-384 502.12,-384 502.12,-372 502.12,-372 502.12,-366 508.12,-360 514.12,-360 514.12,-360 589.38,-360 589.38,-360 595.38,-360 601.38,-366 601.38,-372 601.38,-372 601.38,-384 601.38,-384 601.38,-390 595.38,-396 589.38,-396"/>
<text text-anchor="middle" x="551.75" y="-375.62" font-family="sans" font-size="10.00">download_uniprot</text>
</g>
<!-- 23&#45;&gt;22 -->
<g id="edge33" class="edge">
<title>23&#45;&gt;22</title>
<path fill="none" stroke="grey" stroke-width="2" d="M551.75,-359.34C551.75,-352.75 551.75,-345.08 551.75,-337.67"/>
<polygon fill="grey" stroke="grey" stroke-width="2" points="555.25,-337.9 551.75,-327.9 548.25,-337.9 555.25,-337.9"/>
</g>
<!-- 24&#45;&gt;1 -->
<g id="edge7" class="edge">
<title>24&#45;&gt;1</title>
<path fill="none" stroke="grey" stroke-width="2" d="M303.37,-143.34C297.34,-135.93 290.18,-127.14 283.47,-118.9"/>
<polygon fill="grey" stroke="grey" stroke-width="2" points="285.36,-116.45 276.33,-110.9 279.93,-120.87 285.36,-116.45"/>
</g>
<!-- 25&#45;&gt;7 -->
<g id="edge17" class="edge">
<title>25&#45;&gt;7</title>
<path fill="none" stroke="grey" stroke-width="2" d="M66.99,-719.16C70.15,-712.22 73.84,-704.12 77.36,-696.39"/>
<polygon fill="grey" stroke="grey" stroke-width="2" points="80.69,-697.34 81.65,-686.79 74.32,-694.44 80.69,-697.34"/>
</g>
<!-- 26&#45;&gt;7 -->
<g id="edge18" class="edge">
<title>26&#45;&gt;7</title>
<path fill="none" stroke="grey" stroke-width="2" d="M131.59,-719.16C125.83,-711.81 119.05,-703.15 112.68,-695.02"/>
<polygon fill="grey" stroke="grey" stroke-width="2" points="114.6,-692.5 105.68,-686.79 109.08,-696.82 114.6,-692.5"/>
</g>
</g>
</svg>
