<?xml version="1.0" encoding="UTF-8" standalone="no"?>
<!DOCTYPE svg PUBLIC "-//W3C//DTD SVG 1.1//EN"
 "http://www.w3.org/Graphics/SVG/1.1/DTD/svg11.dtd">
<!-- Generated by graphviz version 8.1.0 (0)
 -->
<!-- Title: snakemake_dag Pages: 1 -->
<svg width="526pt" height="981pt"
 viewBox="0.00 0.00 525.88 980.50" xmlns="http://www.w3.org/2000/svg" xmlns:xlink="http://www.w3.org/1999/xlink">
<g id="graph0" class="graph" transform="scale(1 1) rotate(0) translate(4 976.5)">
<title>snakemake_dag</title>
<polygon fill="white" stroke="none" points="-4,4 -4,-976.5 521.88,-976.5 521.88,4 -4,4"/>
<!-- 0 -->
<g id="node1" class="node">
<title>0</title>
<path fill="none" stroke="#56c1d8" stroke-width="2" d="M333.5,-36C333.5,-36 303.5,-36 303.5,-36 297.5,-36 291.5,-30 291.5,-24 291.5,-24 291.5,-12 291.5,-12 291.5,-6 297.5,0 303.5,0 303.5,0 333.5,0 333.5,0 339.5,0 345.5,-6 345.5,-12 345.5,-12 345.5,-24 345.5,-24 345.5,-30 339.5,-36 333.5,-36"/>
<text text-anchor="middle" x="318.5" y="-15.62" font-family="sans" font-size="10.00">all</text>
</g>
<!-- 1 -->
<g id="node2" class="node">
<title>1</title>
<path fill="none" stroke="#56d8c1" stroke-width="2" stroke-dasharray="5,2" d="M329.25,-324C329.25,-324 215.75,-324 215.75,-324 209.75,-324 203.75,-318 203.75,-312 203.75,-312 203.75,-300 203.75,-300 203.75,-294 209.75,-288 215.75,-288 215.75,-288 329.25,-288 329.25,-288 335.25,-288 341.25,-294 341.25,-300 341.25,-300 341.25,-312 341.25,-312 341.25,-318 335.25,-324 329.25,-324"/>
<text text-anchor="middle" x="272.5" y="-303.62" font-family="sans" font-size="10.00">extract_secreted_peptides</text>
</g>
<!-- 1&#45;&gt;0 -->
<g id="edge1" class="edge">
<title>1&#45;&gt;0</title>
<path fill="none" stroke="grey" stroke-width="2" d="M284.45,-287.02C290.61,-277.06 297.8,-264.24 302.5,-252 326.02,-190.8 327.35,-173.17 334.5,-108 336.25,-92.1 336.84,-87.83 334.5,-72 333.38,-64.42 331.41,-56.42 329.22,-49"/>
<polygon fill="grey" stroke="grey" stroke-width="2" points="331.71,-47.3 325.32,-38.85 325.04,-49.44 331.71,-47.3"/>
</g>
<!-- 11 -->
<g id="node12" class="node">
<title>11</title>
<path fill="none" stroke="#d86e56" stroke-width="2" d="M248.38,-180C248.38,-180 138.62,-180 138.62,-180 132.62,-180 126.62,-174 126.62,-168 126.62,-168 126.62,-156 126.62,-156 126.62,-150 132.62,-144 138.62,-144 138.62,-144 248.38,-144 248.38,-144 254.38,-144 260.38,-150 260.38,-156 260.38,-156 260.38,-168 260.38,-168 260.38,-174 254.38,-180 248.38,-180"/>
<text text-anchor="middle" x="193.5" y="-159.62" font-family="sans" font-size="10.00">extract_non_TM_peptides</text>
</g>
<!-- 1&#45;&gt;11 -->
<g id="edge18" class="edge">
<title>1&#45;&gt;11</title>
<path fill="none" stroke="grey" stroke-width="2" d="M231.18,-287C216.94,-278.56 202.55,-267 194.5,-252 185.01,-234.32 184.89,-211.66 187.08,-193.64"/>
<polygon fill="grey" stroke="grey" stroke-width="2" points="190.98,-193.34 189.08,-182.92 184.07,-192.25 190.98,-193.34"/>
</g>
<!-- 12 -->
<g id="node13" class="node">
<title>12</title>
<path fill="none" stroke="#d6d856" stroke-width="2" d="M265.38,-252C265.38,-252 215.62,-252 215.62,-252 209.62,-252 203.62,-246 203.62,-240 203.62,-240 203.62,-228 203.62,-228 203.62,-222 209.62,-216 215.62,-216 215.62,-216 265.38,-216 265.38,-216 271.38,-216 277.38,-222 277.38,-228 277.38,-228 277.38,-240 277.38,-240 277.38,-246 271.38,-252 265.38,-252"/>
<text text-anchor="middle" x="240.5" y="-231.62" font-family="sans" font-size="10.00">run_phobius</text>
</g>
<!-- 1&#45;&gt;12 -->
<g id="edge19" class="edge">
<title>1&#45;&gt;12</title>
<path fill="none" stroke="grey" stroke-width="2" d="M264.43,-287.34C261.27,-280.43 257.56,-272.31 254.01,-264.56"/>
<polygon fill="grey" stroke="grey" stroke-width="2" points="257.02,-262.54 249.68,-254.9 250.66,-265.45 257.02,-262.54"/>
</g>
<!-- 14 -->
<g id="node15" class="node">
<title>14</title>
<path fill="none" stroke="#d89556" stroke-width="2" d="M313.12,-108C313.12,-108 255.88,-108 255.88,-108 249.88,-108 243.88,-102 243.88,-96 243.88,-96 243.88,-84 243.88,-84 243.88,-78 249.88,-72 255.88,-72 255.88,-72 313.12,-72 313.12,-72 319.12,-72 325.12,-78 325.12,-84 325.12,-84 325.12,-96 325.12,-96 325.12,-102 319.12,-108 313.12,-108"/>
<text text-anchor="middle" x="284.5" y="-87.62" font-family="sans" font-size="10.00">run_wolfpsort</text>
</g>
<!-- 1&#45;&gt;14 -->
<g id="edge20" class="edge">
<title>1&#45;&gt;14</title>
<path fill="none" stroke="grey" stroke-width="2" d="M278.47,-287.08C281.54,-276.92 284.96,-263.89 286.5,-252 292.36,-206.88 289.96,-154.06 287.43,-121.57"/>
<polygon fill="grey" stroke="grey" stroke-width="2" points="290.7,-121.63 286.37,-111.96 283.72,-122.22 290.7,-121.63"/>
</g>
<!-- 2 -->
<g id="node3" class="node">
<title>2</title>
<path fill="none" stroke="#68d856" stroke-width="2" stroke-dasharray="5,2" d="M361.38,-396C361.38,-396 269.62,-396 269.62,-396 263.62,-396 257.62,-390 257.62,-384 257.62,-384 257.62,-372 257.62,-372 257.62,-366 263.62,-360 269.62,-360 269.62,-360 361.38,-360 361.38,-360 367.38,-360 373.38,-366 373.38,-372 373.38,-372 373.38,-384 373.38,-384 373.38,-390 367.38,-396 361.38,-396"/>
<text text-anchor="middle" x="315.5" y="-375.62" font-family="sans" font-size="10.00">filter_signalp_outputs</text>
</g>
<!-- 2&#45;&gt;1 -->
<g id="edge5" class="edge">
<title>2&#45;&gt;1</title>
<path fill="none" stroke="grey" stroke-width="2" d="M304.65,-359.34C300.25,-352.18 295.06,-343.73 290.15,-335.73"/>
<polygon fill="grey" stroke="grey" stroke-width="2" points="292.71,-333.59 284.5,-326.9 286.75,-337.25 292.71,-333.59"/>
</g>
<!-- 3 -->
<g id="node4" class="node">
<title>3</title>
<path fill="none" stroke="#80d856" stroke-width="2" stroke-dasharray="5,2" d="M316.38,-540.5C316.38,-540.5 278.62,-540.5 278.62,-540.5 272.62,-540.5 266.62,-534.5 266.62,-528.5 266.62,-528.5 266.62,-516.5 266.62,-516.5 266.62,-510.5 272.62,-504.5 278.62,-504.5 278.62,-504.5 316.38,-504.5 316.38,-504.5 322.38,-504.5 328.38,-510.5 328.38,-516.5 328.38,-516.5 328.38,-528.5 328.38,-528.5 328.38,-534.5 322.38,-540.5 316.38,-540.5"/>
<text text-anchor="middle" x="297.5" y="-520.12" font-family="sans" font-size="10.00">split_fasta</text>
</g>
<!-- 18 -->
<g id="node19" class="node">
<title>18</title>
<path fill="none" stroke="#d85656" stroke-width="2" stroke-dasharray="5,2" d="M405.12,-468.5C405.12,-468.5 359.88,-468.5 359.88,-468.5 353.88,-468.5 347.88,-462.5 347.88,-456.5 347.88,-456.5 347.88,-444 347.88,-444 347.88,-438 353.88,-432 359.88,-432 359.88,-432 405.12,-432 405.12,-432 411.12,-432 417.12,-438 417.12,-444 417.12,-444 417.12,-456.5 417.12,-456.5 417.12,-462.5 411.12,-468.5 405.12,-468.5"/>
<text text-anchor="middle" x="382.5" y="-455" font-family="sans" font-size="10.00">run_signalp</text>
<text text-anchor="middle" x="382.5" y="-440.75" font-family="sans" font-size="10.00">file_id: 2</text>
</g>
<!-- 3&#45;&gt;18 -->
<g id="edge23" class="edge">
<title>3&#45;&gt;18</title>
<path fill="none" stroke="grey" stroke-width="2" d="M318.95,-503.77C328.56,-495.83 340.1,-486.29 350.69,-477.54"/>
<polygon fill="grey" stroke="grey" stroke-width="2" points="352.99,-479.53 358.47,-470.46 348.53,-474.13 352.99,-479.53"/>
</g>
<!-- 19 -->
<g id="node20" class="node">
<title>19</title>
<path fill="none" stroke="#d85656" stroke-width="2" stroke-dasharray="5,2" d="M318.12,-468.5C318.12,-468.5 272.88,-468.5 272.88,-468.5 266.88,-468.5 260.88,-462.5 260.88,-456.5 260.88,-456.5 260.88,-444 260.88,-444 260.88,-438 266.88,-432 272.88,-432 272.88,-432 318.12,-432 318.12,-432 324.12,-432 330.12,-438 330.12,-444 330.12,-444 330.12,-456.5 330.12,-456.5 330.12,-462.5 324.12,-468.5 318.12,-468.5"/>
<text text-anchor="middle" x="295.5" y="-455" font-family="sans" font-size="10.00">run_signalp</text>
<text text-anchor="middle" x="295.5" y="-440.75" font-family="sans" font-size="10.00">file_id: 1</text>
</g>
<!-- 3&#45;&gt;19 -->
<g id="edge24" class="edge">
<title>3&#45;&gt;19</title>
<path fill="none" stroke="grey" stroke-width="2" d="M297,-503.77C296.81,-497.17 296.59,-489.46 296.38,-482.03"/>
<polygon fill="grey" stroke="grey" stroke-width="2" points="299.79,-482.11 296.01,-472.22 292.8,-482.31 299.79,-482.11"/>
</g>
<!-- 4 -->
<g id="node5" class="node">
<title>4</title>
<path fill="none" stroke="#569ad8" stroke-width="2" stroke-dasharray="5,2" d="M325.75,-612.5C325.75,-612.5 269.25,-612.5 269.25,-612.5 263.25,-612.5 257.25,-606.5 257.25,-600.5 257.25,-600.5 257.25,-588.5 257.25,-588.5 257.25,-582.5 263.25,-576.5 269.25,-576.5 269.25,-576.5 325.75,-576.5 325.75,-576.5 331.75,-576.5 337.75,-582.5 337.75,-588.5 337.75,-588.5 337.75,-600.5 337.75,-600.5 337.75,-606.5 331.75,-612.5 325.75,-612.5"/>
<text text-anchor="middle" x="297.5" y="-592.12" font-family="sans" font-size="10.00">trim_peptides</text>
</g>
<!-- 4&#45;&gt;3 -->
<g id="edge9" class="edge">
<title>4&#45;&gt;3</title>
<path fill="none" stroke="grey" stroke-width="2" d="M297.5,-575.84C297.5,-569.25 297.5,-561.58 297.5,-554.17"/>
<polygon fill="grey" stroke="grey" stroke-width="2" points="301,-554.4 297.5,-544.4 294,-554.4 301,-554.4"/>
</g>
<!-- 5 -->
<g id="node6" class="node">
<title>5</title>
<path fill="none" stroke="#d88556" stroke-width="2" stroke-dasharray="5,2" d="M297.75,-684.5C297.75,-684.5 229.25,-684.5 229.25,-684.5 223.25,-684.5 217.25,-678.5 217.25,-672.5 217.25,-672.5 217.25,-660.5 217.25,-660.5 217.25,-654.5 223.25,-648.5 229.25,-648.5 229.25,-648.5 297.75,-648.5 297.75,-648.5 303.75,-648.5 309.75,-654.5 309.75,-660.5 309.75,-660.5 309.75,-672.5 309.75,-672.5 309.75,-678.5 303.75,-684.5 297.75,-684.5"/>
<text text-anchor="middle" x="263.5" y="-664.12" font-family="sans" font-size="10.00">cluster_peptides</text>
</g>
<!-- 5&#45;&gt;1 -->
<g id="edge6" class="edge">
<title>5&#45;&gt;1</title>
<path fill="none" stroke="grey" stroke-width="2" d="M256.46,-647.89C246.5,-621.37 229.5,-569.38 229.5,-523.5 229.5,-523.5 229.5,-523.5 229.5,-449.25 229.5,-408.98 245.49,-364.93 257.96,-336.68"/>
<polygon fill="grey" stroke="grey" stroke-width="2" points="261.39,-337.44 262.38,-326.89 255.03,-334.52 261.39,-337.44"/>
</g>
<!-- 5&#45;&gt;4 -->
<g id="edge10" class="edge">
<title>5&#45;&gt;4</title>
<path fill="none" stroke="grey" stroke-width="2" d="M272.08,-647.84C275.44,-640.93 279.38,-632.81 283.14,-625.06"/>
<polygon fill="grey" stroke="grey" stroke-width="2" points="286.58,-625.93 287.8,-615.4 280.29,-622.87 286.58,-625.93"/>
</g>
<!-- 6 -->
<g id="node7" class="node">
<title>6</title>
<path fill="none" stroke="#c6d856" stroke-width="2" stroke-dasharray="5,2" d="M286.12,-756.5C286.12,-756.5 240.88,-756.5 240.88,-756.5 234.88,-756.5 228.88,-750.5 228.88,-744.5 228.88,-744.5 228.88,-732.5 228.88,-732.5 228.88,-726.5 234.88,-720.5 240.88,-720.5 240.88,-720.5 286.12,-720.5 286.12,-720.5 292.12,-720.5 298.12,-726.5 298.12,-732.5 298.12,-732.5 298.12,-744.5 298.12,-744.5 298.12,-750.5 292.12,-756.5 286.12,-756.5"/>
<text text-anchor="middle" x="263.5" y="-736.12" font-family="sans" font-size="10.00">detect_orfs</text>
</g>
<!-- 6&#45;&gt;5 -->
<g id="edge11" class="edge">
<title>6&#45;&gt;5</title>
<path fill="none" stroke="grey" stroke-width="2" d="M263.5,-719.84C263.5,-713.25 263.5,-705.58 263.5,-698.17"/>
<polygon fill="grey" stroke="grey" stroke-width="2" points="267,-698.4 263.5,-688.4 260,-698.4 267,-698.4"/>
</g>
<!-- 7 -->
<g id="node8" class="node">
<title>7</title>
<path fill="none" stroke="#56d882" stroke-width="2" stroke-dasharray="5,2" d="M304.12,-828.5C304.12,-828.5 222.88,-828.5 222.88,-828.5 216.88,-828.5 210.88,-822.5 210.88,-816.5 210.88,-816.5 210.88,-804.5 210.88,-804.5 210.88,-798.5 216.88,-792.5 222.88,-792.5 222.88,-792.5 304.12,-792.5 304.12,-792.5 310.12,-792.5 316.12,-798.5 316.12,-804.5 316.12,-804.5 316.12,-816.5 316.12,-816.5 316.12,-822.5 310.12,-828.5 304.12,-828.5"/>
<text text-anchor="middle" x="263.5" y="-808.12" font-family="sans" font-size="10.00">filter_contaminants</text>
</g>
<!-- 7&#45;&gt;6 -->
<g id="edge12" class="edge">
<title>7&#45;&gt;6</title>
<path fill="none" stroke="grey" stroke-width="2" d="M263.5,-791.84C263.5,-785.25 263.5,-777.58 263.5,-770.17"/>
<polygon fill="grey" stroke="grey" stroke-width="2" points="267,-770.4 263.5,-760.4 260,-770.4 267,-770.4"/>
</g>
<!-- 8 -->
<g id="node9" class="node">
<title>8</title>
<path fill="none" stroke="#56d86b" stroke-width="2" stroke-dasharray="5,2" d="M312,-900.5C312,-900.5 215,-900.5 215,-900.5 209,-900.5 203,-894.5 203,-888.5 203,-888.5 203,-876.5 203,-876.5 203,-870.5 209,-864.5 215,-864.5 215,-864.5 312,-864.5 312,-864.5 318,-864.5 324,-870.5 324,-876.5 324,-876.5 324,-888.5 324,-888.5 324,-894.5 318,-900.5 312,-900.5"/>
<text text-anchor="middle" x="263.5" y="-880.12" font-family="sans" font-size="10.00">blast_on_contaminants</text>
</g>
<!-- 8&#45;&gt;7 -->
<g id="edge13" class="edge">
<title>8&#45;&gt;7</title>
<path fill="none" stroke="grey" stroke-width="2" d="M263.5,-863.84C263.5,-857.25 263.5,-849.58 263.5,-842.17"/>
<polygon fill="grey" stroke="grey" stroke-width="2" points="267,-842.4 263.5,-832.4 260,-842.4 267,-842.4"/>
</g>
<!-- 9 -->
<g id="node10" class="node">
<title>9</title>
<path fill="none" stroke="#56d89a" stroke-width="2" stroke-dasharray="5,2" d="M327.38,-972.5C327.38,-972.5 199.62,-972.5 199.62,-972.5 193.62,-972.5 187.62,-966.5 187.62,-960.5 187.62,-960.5 187.62,-948.5 187.62,-948.5 187.62,-942.5 193.62,-936.5 199.62,-936.5 199.62,-936.5 327.38,-936.5 327.38,-936.5 333.38,-936.5 339.38,-942.5 339.38,-948.5 339.38,-948.5 339.38,-960.5 339.38,-960.5 339.38,-966.5 333.38,-972.5 327.38,-972.5"/>
<text text-anchor="middle" x="263.5" y="-952.12" font-family="sans" font-size="10.00">build_contaminants_database</text>
</g>
<!-- 9&#45;&gt;8 -->
<g id="edge14" class="edge">
<title>9&#45;&gt;8</title>
<path fill="none" stroke="grey" stroke-width="2" d="M263.5,-935.84C263.5,-929.25 263.5,-921.58 263.5,-914.17"/>
<polygon fill="grey" stroke="grey" stroke-width="2" points="267,-914.4 263.5,-904.4 260,-914.4 267,-914.4"/>
</g>
<!-- 10 -->
<g id="node11" class="node">
<title>10</title>
<path fill="none" stroke="#56d8d8" stroke-width="2" d="M213.75,-108C213.75,-108 151.25,-108 151.25,-108 145.25,-108 139.25,-102 139.25,-96 139.25,-96 139.25,-84 139.25,-84 139.25,-78 145.25,-72 151.25,-72 151.25,-72 213.75,-72 213.75,-72 219.75,-72 225.75,-78 225.75,-84 225.75,-84 225.75,-96 225.75,-96 225.75,-102 219.75,-108 213.75,-108"/>
<text text-anchor="middle" x="182.5" y="-87.62" font-family="sans" font-size="10.00">blast_on_toxins</text>
</g>
<!-- 10&#45;&gt;0 -->
<g id="edge2" class="edge">
<title>10&#45;&gt;0</title>
<path fill="none" stroke="grey" stroke-width="2" d="M217.17,-71.15C236.16,-61.38 259.76,-49.24 279.4,-39.13"/>
<polygon fill="grey" stroke="grey" stroke-width="2" points="281.45,-41.98 288.74,-34.29 278.25,-35.75 281.45,-41.98"/>
</g>
<!-- 11&#45;&gt;10 -->
<g id="edge15" class="edge">
<title>11&#45;&gt;10</title>
<path fill="none" stroke="grey" stroke-width="2" d="M190.72,-143.34C189.69,-136.75 188.48,-129.08 187.32,-121.67"/>
<polygon fill="grey" stroke="grey" stroke-width="2" points="190.32,-120.24 185.31,-110.9 183.41,-121.32 190.32,-120.24"/>
</g>
<!-- 12&#45;&gt;11 -->
<g id="edge17" class="edge">
<title>12&#45;&gt;11</title>
<path fill="none" stroke="grey" stroke-width="2" d="M228.64,-215.34C223.78,-208.1 218.03,-199.53 212.6,-191.45"/>
<polygon fill="grey" stroke="grey" stroke-width="2" points="215,-189.25 206.52,-182.9 209.19,-193.16 215,-189.25"/>
</g>
<!-- 13 -->
<g id="node14" class="node">
<title>13</title>
<path fill="none" stroke="#56a9d8" stroke-width="2" d="M97,-180C97,-180 12,-180 12,-180 6,-180 0,-174 0,-168 0,-168 0,-156 0,-156 0,-150 6,-144 12,-144 12,-144 97,-144 97,-144 103,-144 109,-150 109,-156 109,-156 109,-168 109,-168 109,-174 103,-180 97,-180"/>
<text text-anchor="middle" x="54.5" y="-159.62" font-family="sans" font-size="10.00">build_toxin_blast_db</text>
</g>
<!-- 13&#45;&gt;10 -->
<g id="edge16" class="edge">
<title>13&#45;&gt;10</title>
<path fill="none" stroke="grey" stroke-width="2" d="M87.13,-143.15C102.78,-134.6 121.75,-124.22 138.64,-114.99"/>
<polygon fill="grey" stroke="grey" stroke-width="2" points="140.83,-117.68 147.93,-109.81 137.48,-111.54 140.83,-117.68"/>
</g>
<!-- 14&#45;&gt;0 -->
<g id="edge3" class="edge">
<title>14&#45;&gt;0</title>
<path fill="none" stroke="grey" stroke-width="2" d="M293.08,-71.34C296.44,-64.43 300.38,-56.31 304.14,-48.56"/>
<polygon fill="grey" stroke="grey" stroke-width="2" points="307.58,-49.43 308.8,-38.9 301.29,-46.37 307.58,-49.43"/>
</g>
<!-- 15 -->
<g id="node16" class="node">
<title>15</title>
<path fill="none" stroke="#97d856" stroke-width="2" d="M505.88,-108C505.88,-108 393.12,-108 393.12,-108 387.12,-108 381.12,-102 381.12,-96 381.12,-96 381.12,-84 381.12,-84 381.12,-78 387.12,-72 393.12,-72 393.12,-72 505.88,-72 505.88,-72 511.88,-72 517.88,-78 517.88,-84 517.88,-84 517.88,-96 517.88,-96 517.88,-102 511.88,-108 505.88,-108"/>
<text text-anchor="middle" x="449.5" y="-87.62" font-family="sans" font-size="10.00">parse_hmmsearch_output</text>
</g>
<!-- 15&#45;&gt;0 -->
<g id="edge4" class="edge">
<title>15&#45;&gt;0</title>
<path fill="none" stroke="grey" stroke-width="2" d="M416.1,-71.15C398.24,-61.61 376.13,-49.79 357.48,-39.83"/>
<polygon fill="grey" stroke="grey" stroke-width="2" points="358.56,-36.37 348.09,-34.74 355.26,-42.54 358.56,-36.37"/>
</g>
<!-- 16 -->
<g id="node17" class="node">
<title>16</title>
<path fill="none" stroke="#afd856" stroke-width="2" d="M473.25,-180C473.25,-180 425.75,-180 425.75,-180 419.75,-180 413.75,-174 413.75,-168 413.75,-168 413.75,-156 413.75,-156 413.75,-150 419.75,-144 425.75,-144 425.75,-144 473.25,-144 473.25,-144 479.25,-144 485.25,-150 485.25,-156 485.25,-156 485.25,-168 485.25,-168 485.25,-174 479.25,-180 473.25,-180"/>
<text text-anchor="middle" x="449.5" y="-159.62" font-family="sans" font-size="10.00">run_hmmer</text>
</g>
<!-- 16&#45;&gt;15 -->
<g id="edge21" class="edge">
<title>16&#45;&gt;15</title>
<path fill="none" stroke="grey" stroke-width="2" d="M449.5,-143.34C449.5,-136.75 449.5,-129.08 449.5,-121.67"/>
<polygon fill="grey" stroke="grey" stroke-width="2" points="453,-121.9 449.5,-111.9 446,-121.9 453,-121.9"/>
</g>
<!-- 17 -->
<g id="node18" class="node">
<title>17</title>
<path fill="none" stroke="#59d856" stroke-width="2" stroke-dasharray="5,2" d="M482.25,-252C482.25,-252 416.75,-252 416.75,-252 410.75,-252 404.75,-246 404.75,-240 404.75,-240 404.75,-228 404.75,-228 404.75,-222 410.75,-216 416.75,-216 416.75,-216 482.25,-216 482.25,-216 488.25,-216 494.25,-222 494.25,-228 494.25,-228 494.25,-240 494.25,-240 494.25,-246 488.25,-252 482.25,-252"/>
<text text-anchor="middle" x="449.5" y="-231.62" font-family="sans" font-size="10.00">download_pfam</text>
</g>
<!-- 17&#45;&gt;16 -->
<g id="edge22" class="edge">
<title>17&#45;&gt;16</title>
<path fill="none" stroke="grey" stroke-width="2" d="M449.5,-215.34C449.5,-208.75 449.5,-201.08 449.5,-193.67"/>
<polygon fill="grey" stroke="grey" stroke-width="2" points="453,-193.9 449.5,-183.9 446,-193.9 453,-193.9"/>
</g>
<!-- 18&#45;&gt;2 -->
<g id="edge7" class="edge">
<title>18&#45;&gt;2</title>
<path fill="none" stroke="grey" stroke-width="2" d="M365.25,-431.16C357.92,-423.48 349.23,-414.37 341.18,-405.92"/>
<polygon fill="grey" stroke="grey" stroke-width="2" points="343.9,-403.61 334.46,-398.79 338.83,-408.44 343.9,-403.61"/>
</g>
<!-- 19&#45;&gt;2 -->
<g id="edge8" class="edge">
<title>19&#45;&gt;2</title>
<path fill="none" stroke="grey" stroke-width="2" d="M300.65,-431.16C302.55,-424.47 304.77,-416.69 306.9,-409.22"/>
<polygon fill="grey" stroke="grey" stroke-width="2" points="311.06,-409.36 310.44,-398.79 304.33,-407.45 311.06,-409.36"/>
</g>
</g>
</svg>
